<svg xmlns="http://www.w3.org/2000/svg" width="94.212" height="90" viewBox="0 0 94.212 90">
  <defs>
    <style>
      .cls-1 {
        fill: #ffc312;
      }
    </style>
  </defs>
  <path id="Path_21" data-name="Path 21" class="cls-1" d="M49.093,2C23.1,2,2,22.179,2,47.013S23.1,92,49.093,92,96.212,71.846,96.212,47.013,75.089,2,49.093,2Zm0,3.227c24.177,0,43.741,18.689,43.741,41.786S73.27,88.8,49.093,88.8,5.352,70.109,5.352,47.013,24.915,5.227,49.093,5.227ZM49.08,21.279a1.644,1.644,0,0,0-1.656,1.626v1.607h-6.71a1.609,1.609,0,1,0,0,3.214h1.663v3.214H39.583a6.855,6.855,0,0,0-6.775,5.537L29.036,57.214a7.531,7.531,0,0,0,3.246,7.578V71.12a1.646,1.646,0,0,0,1.682,1.607H64.247a1.646,1.646,0,0,0,1.682-1.607V64.792a7.531,7.531,0,0,0,3.246-7.578L65.4,36.478a6.856,6.856,0,0,0-6.776-5.537H55.835V27.727H57.5a1.609,1.609,0,1,0,0-3.214h-6.71V22.905a1.571,1.571,0,0,0-.495-1.158A1.725,1.725,0,0,0,49.08,21.279Zm-3.338,6.447h6.729v3.214H45.741Zm-1.893,6.429H54.363a1.44,1.44,0,0,1,1.472,1.481q0,.05,0,.1v1.626H42.377V35.737q0-.05,0-.1A1.44,1.44,0,0,1,43.849,34.155Zm-4.58.038v.019a4.471,4.471,0,0,0-.25,1.35q0,.031-.007.063,0,.05,0,.1v3.089L35.851,57.4a12.152,12.152,0,0,0,.342,5.663h-.467l-1.268-.747a4.393,4.393,0,0,1-2.1-4.57L36.12,37.012A3.464,3.464,0,0,1,39.268,34.193Zm19.675.019a3.464,3.464,0,0,1,3.148,2.819l3.765,20.736a4.393,4.393,0,0,1-2.1,4.57l-1.15.678a8.113,8.113,0,0,0,.322-4.319L59.2,38.839v-3.1q0-.053,0-.107A4.477,4.477,0,0,0,58.944,34.212ZM42.127,40.584H56.111l3.5,18.677a4.751,4.751,0,0,1-.572,3.478l-.23.345H55.835V58.269a1.589,1.589,0,0,0-.738-1.332,1.75,1.75,0,0,0-1.568-.162l-4.423,1.683-4.423-1.689a1.753,1.753,0,0,0-.657-.113,1.644,1.644,0,0,0-1.649,1.607v4.815H40.03a8.284,8.284,0,0,1-.854-5.148Zm3.614,20.045,2.741,1.055a1.756,1.756,0,0,0,1.248,0l2.741-1.055v2.449H45.741ZM35.647,66.3H62.565v3.214H35.647Z" transform="translate(-2 -2)"/>
</svg>
