<svg xmlns="http://www.w3.org/2000/svg" width="51" height="51" viewBox="0 0 51 51">
  <defs>
    <style>
      .cls-1 {
        fill: #8080ff;
      }
    </style>
  </defs>
  <g id="Logo" transform="translate(0 0)">
    <path id="Path_34" data-name="Path 34" class="cls-1" d="M48.813,1.2H4.188A2.953,2.953,0,0,0,1,3.986V36.12a2.953,2.953,0,0,0,3.188,2.786H19.7v4.736H15.981a.937.937,0,1,0,0,1.857H37.019a.937.937,0,1,0,0-1.857H33.3V38.906H48.813A2.953,2.953,0,0,0,52,36.12V3.986A2.953,2.953,0,0,0,48.813,1.2ZM31.175,43.55H21.719V38.906h9.456Zm18.7-7.43a.947.947,0,0,1-1.062.929H4.188a.947.947,0,0,1-1.062-.929V31.848h46.75Zm0-6.13H3.125v-26a.947.947,0,0,1,1.063-.929H48.813a.947.947,0,0,1,1.063.929Z" transform="translate(-1 5.5)"/>
    <path id="Path_35" data-name="Path 35" class="cls-1" d="M43.144,12.6a5.637,5.637,0,0,0-5.679,4.3h-9.5V13.8H33.97a.991.991,0,0,0,1.092-1V6.5a.991.991,0,0,0-1.092-1h-14.2a.991.991,0,0,0-1.092,1v6.2a.991.991,0,0,0,1.092,1h6.007v3.1H16.168a5.741,5.741,0,0,0-5.679-4.3A5.6,5.6,0,0,0,4.7,17.8a5.6,5.6,0,0,0,5.788,5.3,5.637,5.637,0,0,0,5.679-4.3h9.611V22H19.772a.991.991,0,0,0-1.092,1v6.2a.991.991,0,0,0,1.092,1h14.2a.991.991,0,0,0,1.092-1V23a.991.991,0,0,0-1.092-1H27.963V18.9h9.611a5.741,5.741,0,0,0,5.679,4.3,5.6,5.6,0,0,0,5.788-5.3C49.042,15,46.311,12.6,43.144,12.6ZM10.6,21.2a3.493,3.493,0,0,1-3.6-3.3,3.493,3.493,0,0,1,3.6-3.3,3.493,3.493,0,0,1,3.6,3.3A3.493,3.493,0,0,1,10.6,21.2ZM32.878,24v4.2H20.864V24ZM20.864,11.7V7.5H32.878v4.2Zm22.28,9.5a3.493,3.493,0,0,1-3.6-3.3,3.618,3.618,0,0,1,7.208,0A3.493,3.493,0,0,1,43.144,21.2Z" transform="translate(-1.371 -5.5)"/>
  </g>
</svg>
