<svg id="letter_mail" data-name="letter mail" xmlns="http://www.w3.org/2000/svg" width="32.801" height="51" viewBox="0 0 32.801 51">
  <defs>
    <style>
      .cls-1 {
        fill: #ffc312;
      }
    </style>
  </defs>
  <path id="Path_29" data-name="Path 29" class="cls-1" d="M37.161,3H7.64A1.823,1.823,0,0,0,6,4.962V52.038A1.823,1.823,0,0,0,7.64,54H37.161a1.823,1.823,0,0,0,1.64-1.962V4.962A1.823,1.823,0,0,0,37.161,3Zm-1.64,47.077H9.28V6.923H35.521Z" transform="translate(-6 -3)"/>
  <path id="Path_30" data-name="Path 30" class="cls-1" d="M24.037,18.045h6.683a1.863,1.863,0,0,0,1.671-2.008V8.008A1.863,1.863,0,0,0,30.719,6H24.037a1.863,1.863,0,0,0-1.671,2.008v8.03A1.863,1.863,0,0,0,24.037,18.045Zm1.671-8.03h3.341V14.03H25.707ZM10.671,34.106H24.037a2.042,2.042,0,0,0,0-4.015H10.671a2.042,2.042,0,0,0,0,4.015Zm0,6.023H24.037a2.042,2.042,0,0,0,0-4.015H10.671a2.042,2.042,0,0,0,0,4.015Zm0,6.023h6.683a2.042,2.042,0,0,0,0-4.015H10.671a2.042,2.042,0,0,0,0,4.015Z" transform="translate(-4.295 -0.576)"/>
</svg>
