<svg xmlns="http://www.w3.org/2000/svg" width="52" height="52" viewBox="0 0 52 52">
  <defs>
    <style>
      .cls-1 {
        fill: none;
      }

      .cls-1, .cls-2 {
        stroke: #3f3ff2;
        stroke-linecap: round;
        stroke-linejoin: round;
      }

      .cls-2 {
        fill: #1900ff;
      }
    </style>
  </defs>
  <g id="Group_37" data-name="Group 37" transform="translate(0.5 0.5)">
    <path id="Path_2259" data-name="Path 2259" class="cls-1" d="M267.854,835.978l5.4-3.9m-2.678-10.208,5.4,3.9m17.641-3.978-5.4,3.9M296.331,836l-5.4-3.9M282.1,818.655v-6.4m0,21.126v3.841" transform="translate(-256.397 -799.355)"/>
    <g id="Group_31" data-name="Group 31" transform="translate(38.545 32.646)">
      <path id="Path_2260" data-name="Path 2260" class="cls-2" d="M10.9.033v.51a1.384,1.384,0,0,1-.737,1.146C8.545,2.672,6.72,3.677,6.72,3.677l-2.5.031C4.077,3.6,2.653,2.889.54,1.579A1.412,1.412,0,0,1,0,.324V0" transform="translate(10.903 9.903) rotate(180)"/>
      <path id="Path_2261" data-name="Path 2261" class="cls-1" d="M1.883,6.234A1.992,1.992,0,0,0,3.766,4.141V2.092A2.166,2.166,0,0,0,1.883,0,2.166,2.166,0,0,0,0,2.092V4.141A1.992,1.992,0,0,0,1.883,6.234ZM3.123.013.627.045" transform="translate(7.306 6.234) rotate(180)"/>
    </g>
    <g id="Group_32" data-name="Group 32" transform="translate(40.097 12.717)">
      <path id="Path_2262" data-name="Path 2262" class="cls-2" d="M10.9.033v.51a1.384,1.384,0,0,1-.737,1.146C8.545,2.672,6.72,3.677,6.72,3.677l-2.5.031C4.077,3.6,2.653,2.889.54,1.579A1.412,1.412,0,0,1,0,.324V0" transform="translate(10.903 9.903) rotate(180)"/>
      <path id="Path_2263" data-name="Path 2263" class="cls-1" d="M1.883,6.234A1.992,1.992,0,0,0,3.766,4.141V2.092A2.166,2.166,0,0,0,1.883,0,2.166,2.166,0,0,0,0,2.092V4.141A1.992,1.992,0,0,0,1.883,6.234ZM3.123.013.627.045" transform="translate(7.306 6.234) rotate(180)"/>
    </g>
    <g id="Group_33" data-name="Group 33" transform="translate(20.035 0)">
      <path id="Path_2264" data-name="Path 2264" class="cls-2" d="M10.9.033v.51a1.384,1.384,0,0,1-.737,1.146C8.545,2.672,6.72,3.677,6.72,3.677l-2.5.031C4.077,3.6,2.653,2.889.54,1.579A1.412,1.412,0,0,1,0,.324V0" transform="translate(10.903 9.903) rotate(180)"/>
      <path id="Path_2265" data-name="Path 2265" class="cls-1" d="M1.883,6.234A1.992,1.992,0,0,0,3.766,4.141V2.092A2.166,2.166,0,0,0,1.883,0,2.166,2.166,0,0,0,0,2.092V4.141A1.992,1.992,0,0,0,1.883,6.234ZM3.123.013.627.045" transform="translate(7.306 6.234) rotate(180)"/>
    </g>
    <g id="Group_34" data-name="Group 34" transform="translate(0.698 12.717)">
      <path id="Path_2266" data-name="Path 2266" class="cls-2" d="M10.9.033v.51a1.384,1.384,0,0,1-.737,1.146C8.545,2.672,6.72,3.677,6.72,3.677l-2.5.031C4.077,3.6,2.653,2.889.54,1.579A1.412,1.412,0,0,1,0,.324V0" transform="translate(10.903 9.903) rotate(180)"/>
      <path id="Path_2267" data-name="Path 2267" class="cls-1" d="M1.883,6.234A1.992,1.992,0,0,0,3.766,4.141V2.092A2.166,2.166,0,0,0,1.883,0,2.166,2.166,0,0,0,0,2.092V4.141A1.992,1.992,0,0,0,1.883,6.234ZM3.123.013.627.045" transform="translate(7.306 6.234) rotate(180)"/>
    </g>
    <g id="Group_35" data-name="Group 35" transform="translate(0 31.817)">
      <path id="Path_2268" data-name="Path 2268" class="cls-2" d="M10.9.033v.51a1.384,1.384,0,0,1-.737,1.146C8.545,2.672,6.72,3.677,6.72,3.677l-2.5.031C4.077,3.6,2.653,2.889.54,1.579A1.412,1.412,0,0,1,0,.324V0" transform="translate(10.903 9.903) rotate(180)"/>
      <path id="Path_2269" data-name="Path 2269" class="cls-1" d="M1.883,6.234A1.992,1.992,0,0,0,3.766,4.141V2.092A2.166,2.166,0,0,0,1.883,0,2.166,2.166,0,0,0,0,2.092V4.141A1.992,1.992,0,0,0,1.883,6.234ZM3.123.013.627.045" transform="translate(7.306 6.234) rotate(180)"/>
    </g>
    <g id="Group_36" data-name="Group 36" transform="translate(20.035 41.097)">
      <path id="Path_2270" data-name="Path 2270" class="cls-2" d="M10.9.033v.51a1.384,1.384,0,0,1-.737,1.146C8.545,2.672,6.72,3.677,6.72,3.677l-2.5.031C4.077,3.6,2.653,2.889.54,1.579A1.412,1.412,0,0,1,0,.324V0" transform="translate(10.903 9.903) rotate(180)"/>
      <path id="Path_2271" data-name="Path 2271" class="cls-1" d="M1.883,6.234A1.992,1.992,0,0,0,3.766,4.141V2.092A2.166,2.166,0,0,0,1.883,0,2.166,2.166,0,0,0,0,2.092V4.141A1.992,1.992,0,0,0,1.883,6.234ZM3.123.013.627.045" transform="translate(7.306 6.234) rotate(180)"/>
    </g>
    <path id="Path_2272" data-name="Path 2272" class="cls-1" d="M10.9.033v.51a1.384,1.384,0,0,1-.737,1.146C8.545,2.672,6.72,3.677,6.72,3.677l-2.5.031C4.077,3.6,2.653,2.889.54,1.579A1.412,1.412,0,0,1,0,.324V0" transform="translate(31.325 32.362) rotate(180)"/>
    <path id="Path_2273" data-name="Path 2273" class="cls-1" d="M1.883,6.234A1.992,1.992,0,0,0,3.766,4.141V2.092A2.166,2.166,0,0,0,1.883,0,2.166,2.166,0,0,0,0,2.092V4.141A1.992,1.992,0,0,0,1.883,6.234ZM3.123.013.627.045" transform="translate(27.722 28.859) rotate(180)"/>
  </g>
</svg>
