<svg id="Group_2" data-name="Group 2" xmlns="http://www.w3.org/2000/svg" width="62.994" height="70" viewBox="0 0 62.994 70">
  <defs>
    <style>
      .cls-1 {
        fill: #ffc312;
      }
    </style>
  </defs>
  <path id="Path_18" data-name="Path 18" class="cls-1" d="M40.227,10.3c0,6.092-3.478,11.033-7.756,11.033S24.728,16.39,24.728,10.3c0-5.655,3.045-9.313,7.743-9.313S40.227,4.643,40.227,10.3ZM47.5,30.337v6.15h-30v-6.15a4.783,4.783,0,0,1,2.546-4.358,28.349,28.349,0,0,1,8.636-2.711,7.881,7.881,0,0,0,7.572.015,29.732,29.732,0,0,1,8.688,2.7A4.809,4.809,0,0,1,47.5,30.337Zm16.5,11.98v3.235a2.789,2.789,0,0,1-2.625,2.915H3.625A2.781,2.781,0,0,1,1,45.553V42.318A2.781,2.781,0,0,1,3.625,39.4H61.369A2.789,2.789,0,0,1,63.994,42.317Zm-6.509,9.065V69.528a1.4,1.4,0,0,1-1.312,1.457H8.809A1.4,1.4,0,0,1,7.5,69.528V51.383Z" transform="translate(-1 -0.985)"/>
  <path id="Path_19" data-name="Path 19" class="cls-1" d="M20.737,7.905a9.055,9.055,0,0,0,4.076,6.73,53.553,53.553,0,0,0-7.6,1.66c-2.842.83-4.687,2.72-4.687,4.83v4.22h-1.86L9.624,13.225a4.336,4.336,0,0,1,2.038-3.85,8.683,8.683,0,0,1,5.044-1.47h4.032Zm34.649,5.32-1.041,12.12h-1.86v-4.22c0-2.09-1.83-3.98-4.7-4.83a58.13,58.13,0,0,0-7.647-1.66,9.031,9.031,0,0,0,4.091-6.73h4.091a8.748,8.748,0,0,1,5.043,1.47A4.321,4.321,0,0,1,55.386,13.225Z" transform="translate(-1.008 -0.985)"/>
</svg>
