<?xml version="1.0" encoding="utf-8"?>
<!-- Generator: Adobe Illustrator 25.2.0, SVG Export Plug-In . SVG Version: 6.00 Build 0)  -->
<svg version="1.1" id="Layer_2_1_" xmlns="http://www.w3.org/2000/svg" xmlns:xlink="http://www.w3.org/1999/xlink" x="0px" y="0px"
	 viewBox="0 0 847 1080" style="enable-background:new 0 0 847 1080;" xml:space="preserve">
<style type="text/css">
	.st0{fill:#3CBF4C;}
	.st1{fill:#FF0000;}
</style>
<path class="st0" d="M362.6-5.3C163.9-2.3,21.4-0.5,10.1-1.1C9-1.2,5-1.5,2,1c-4.9,4-4.2,12.7-2.9,19.4C-1.4,43.6-2,72.8-2.7,106.7
	c-4,216.5-1.2,195.1-3,238.2c-1.3,29.3,4.5,58.9,0.2,87.9c-1,6.7-2.8,16.7,1.2,18.8c7.1,3.8,28.9-20,42.7-40
	c29.6-43.1,18.5-64.1,44.4-116.5c8.2-16.6,5.8-7.3,45.6-67.9c43.8-66.7,42.3-71.2,56.5-81.1c33.6-23.3,56.2-8.1,98.7-30.8
	c28.2-15.1,46.2-36.8,57.1-53.1"/>
<path class="st1" d="M0.1,1080.5C-0.6,1010.3-1,940.2-1,870c0-70.4,0.3-140.8,1-211.1c8.5-15.1,23-36.3,47.1-54
	c11.5-8.5,22.8-13.7,44.8-23.7c51.6-23.5,63.2-21.3,92-39.6c7.2-4.6,24.5-16.1,42.5-35.2c25-26.4,38.5-53.5,45.7-71.2
	c17.2-19.6,37.5-40.6,61.1-61.8c18.7-16.7,36.9-31.4,54.1-44.1c11.5-24.9,23.4-50.1,35.9-75.7c13.3-27.4,26.8-54.1,40.3-80.1
	c23.8-45.8,35.7-68.7,44.4-81.9c15.7-24,42-57.6,85.8-91.5c84,0,167.9-0.1,251.9-0.1c-54.5,144.9-98.4,194.7-129.7,212.1
	c-6.3,3.5-42.8,23.8-84.4,58c-9.2,7.6-18.9,16.5-29.4,27.8c-29.9,31.9-42.6,62.2-51,78.7c-24.1,47.6-40.3,43.9-94.9,111.9
	c-66.2,82.5-53.3,77.4-87.3,130.5c-55.3,86.1-113,59.6-172.3,151.6c-38.1,59.1-55.9,101.8-55.9,101.8c-4.6,11-10.4,26.3-21.2,47.5
	c-13.1,26-26.1,46.3-35.2,59.6"/>
<path class="st0" d="M194.9,241c-1.9,3.6-4.3,9.1-5.6,16.1c-3.7,19.7,3.2,41.1,16.6,55.6c24,25.8,66.9,19.4,67.1,18.3
	c0.1-0.8-20.5,0.5-41-13.3c-20.7-14-29.1-35.3-30.2-38.1c-1.6-4.2-2.6-7.9-3.2-10.6"/>
<path class="st0" d="M348.7,267.1c1.8-3.5,4.1-8.8,5.4-15.5c3.6-19.1-3.1-39.7-16.1-53.6c-23.2-24.9-64.7-18.7-64.8-17.6
	c-0.1,0.8,19.7-0.5,39.6,12.9c19.9,13.5,28.1,34.1,29.2,36.8c1.6,4.1,2.5,7.6,3.1,10.2"/>
<path class="st0" d="M208.5,235.7c-1.6,0.4-1.3,12,1.4,22.8c0.6,2.7,11.7,43.7,46.3,56.1c4.6,1.7,26,9.3,41.4,4.4
	c1.6-0.5,10-3.3,11.6-0.8c0.6,0.9,0.1,2.4-0.3,3.9c-0.8,2.7-2.4,4.5-3.6,5.8c-3.7,4.1-5.3,4.9-8.9,8.7c-1.9,2.1-4.5,4.9-4,5.6
	c0.6,0.8,4.8-1.2,7.6-2.8c1.4-0.8,5.8-3.6,10.9-9.8c3.9-4.7,6-8.6,10.4-10.8c0.8-0.4,1.7-0.9,3.2-1.2c3.9-0.7,5.8,1.4,7.4,0.5
	c2.3-1.2,0.3-6.2,1.7-11.3c1.5-5.1,5.1-5.6,12-12.2c8.1-7.7,13.8-17.1,12.7-18.1c-0.5-0.5-2.5,0.8-4.1,1.9c-6.8,4.5-8.4,9.1-15.2,14
	c-3.6,2.6-4.4,2.3-4.7,2.1c-1.5-0.9-0.1-4.9,0.7-11.3c0,0,0.3-2.8,0.3-12.1c-0.1-18.5-7.6-33.7-7.6-33.7
	c-7.1-14.4-17.4-22.7-23-27.1c-6.3-5-11.9-8-14-9.1c-18.2-9.3-38.3-10.9-39.2-8.3c-0.5,1.5,5.4,3.4,23.5,14.6
	c15.5,9.6,20.5,14,24.1,17.5c3.8,3.8,8.2,8.2,12,15.2c3,5.6,4.5,10.9,7.3,21.5c0.6,2.1,1.3,4.9,1.5,8.5c0.1,2.5,0,3.8-0.1,6.9
	c-0.3,9.1,0.5,10.7-0.1,11.1c-4.8,2.7-63.5-83.5-82.7-83.3c-7.9,0.1-11,3.9-11,3.9c-2.1,2.6-2.4,6.2-2.5,6.8c0,0-0.3,3,0.8,6
	c4.6,13.5,70.2,70.9,70.2,70.9c2.9,2.6,9.7,8.6,8.4,11.2c-0.5,1-2.1,1.4-8.7,0.9c-11.8-0.9-20.7-3.4-21.9-3.8
	c-8.2-2.4-12.4-3.6-16.5-5.8c-8.3-4.3-13.1-9.5-20-17c-9.5-10.4-15.2-19.7-16.4-21.9C212.1,243.9,210,235.3,208.5,235.7z"/>
<path class="st0" d="M218.6,178.9c-1.3,0.5,1.7,6.8-1.4,10.1c-3,3.3-8.7,0.2-11.2,3.4c-2.3,2.8,1,6.8-1.2,9.5
	c-2.9,3.6-11.5-0.3-12,1.1c-0.5,1.4,7.1,8.3,15.9,7.4c9.1-0.9,16.8-9.9,16.8-18.5C225.4,184.6,220,178.4,218.6,178.9z"/>
</svg>
