<?xml version="1.0" encoding="utf-8"?>
<!-- Generator: Adobe Illustrator 25.2.0, SVG Export Plug-In . SVG Version: 6.00 Build 0)  -->
<svg version="1.1" id="Layer_2" xmlns="http://www.w3.org/2000/svg" xmlns:xlink="http://www.w3.org/1999/xlink" x="0px" y="0px"
	 viewBox="0 0 1920 1080" style="enable-background:new 0 0 1920 1080;" xml:space="preserve">
<style type="text/css">
	.st0{fill:#3CBF4C;}
	.st1{fill:#FF0000;}
</style>
<path class="st0" d="M941.34,452.19c-30.69,0.46-52.7,0.75-54.44,0.65c-0.17-0.01-0.79-0.06-1.25,0.33
	c-0.75,0.62-0.65,1.98-0.45,3.03c-0.08,3.61-0.17,8.17-0.27,13.46c-0.62,33.78-0.18,30.45-0.47,37.17c-0.2,4.57,0.7,9.19,0.03,13.71
	c-0.16,1.05-0.43,2.61,0.18,2.94c1.1,0.59,4.47-3.12,6.59-6.24c4.57-6.72,2.85-10,6.86-18.18c1.27-2.59,0.89-1.14,7.04-10.6
	c6.76-10.41,6.54-11.11,8.73-12.65c5.19-3.64,8.68-1.26,15.24-4.81c4.35-2.35,7.13-5.74,8.82-8.29"/>
<path class="st1" d="M885.2,619c-0.31-21.32-0.61-42.63-0.92-63.95c5.31-8.34,10.79-11.39,14.8-12.64c7.13-2.21,13.35,0.1,17.57-4.5
	c1.06-1.16,1.25-1.94,3.21-7.04c2.14-5.58,4-10.06,5.26-13.01c0.35-1.27,2.76-9.56,10.78-13.01c3.56-1.53,6.87-1.52,8.82-1.34
	c1.77-3.84,3.62-7.74,5.54-11.69c2.06-4.23,4.14-8.35,6.22-12.37c3.67-7.08,5.52-10.61,6.86-12.65c2.43-3.7,6.49-8.89,13.25-14.13
	c12.94,0.1,25.88,0.19,38.81,0.29c0.45,0.26,1.07,0.71,1.46,1.46c0.55,1.05,0.35,2.13,0.27,2.64c-0.65,4.12,0.99,5.35-0.06,9.45
	c0,0-0.41,1.61-1.37,3.42c-3.25,6.16-13.14,11.23-20.23,15.48c-6.35,3.8-11.91,7.19-17.58,13.25c-3.84,4.1-6.68,7.21-7.87,12.15
	c-0.96,4-0.06,5.91-1.96,9.95c-0.64,1.36-2.69,5.72-6.92,7.16c-2.59,0.88-3.52-0.18-5.78,0.17c-2.83,0.44-6.4,2.9-13.49,20.15
	c-4.7,11.42-3.61,11.5-5.7,13.78c-6.63,7.2-13.82,2.32-20.92,9.64c-3.54,3.64-5.8,9.02-8.63,15.73c-0.82,1.94-1.64,4.12-3.27,7.34
	c-2.03,4.02-4.02,7.14-5.44,9.21"/>
<path class="st0" d="M914.38,489.42c-0.29,0.56-0.66,1.41-0.86,2.49c-0.57,3.05,0.49,6.35,2.57,8.58c3.71,3.99,10.34,3,10.37,2.83
	c0.02-0.13-3.16,0.08-6.33-2.06c-3.19-2.16-4.49-5.45-4.66-5.88c-0.25-0.65-0.4-1.22-0.49-1.63"/>
<path class="st0" d="M938.14,493.45c0.28-0.54,0.63-1.36,0.83-2.4c0.55-2.95-0.48-6.13-2.49-8.28c-3.59-3.85-9.99-2.89-10.01-2.72
	c-0.02,0.12,3.05-0.08,6.11,1.99c3.08,2.09,4.34,5.26,4.51,5.68c0.24,0.63,0.39,1.18,0.48,1.57"/>
<path class="st0" d="M916.49,488.59c-0.25,0.06-0.2,1.85,0.22,3.52c0.1,0.41,1.8,6.75,7.15,8.66c0.71,0.26,4.01,1.43,6.4,0.68
	c0.25-0.08,1.54-0.51,1.79-0.13c0.09,0.14,0.02,0.37-0.05,0.6c-0.13,0.42-0.37,0.7-0.55,0.9c-0.57,0.64-0.82,0.75-1.37,1.34
	c-0.3,0.32-0.7,0.76-0.62,0.87c0.09,0.13,0.74-0.18,1.17-0.44c0.21-0.13,0.89-0.55,1.69-1.51c0.6-0.72,0.92-1.33,1.6-1.67
	c0.12-0.06,0.27-0.14,0.49-0.18c0.61-0.11,0.89,0.21,1.14,0.08c0.36-0.18,0.04-0.95,0.27-1.75c0.23-0.79,0.78-0.86,1.86-1.88
	c1.25-1.19,2.13-2.64,1.96-2.8c-0.08-0.07-0.38,0.13-0.63,0.29c-1.05,0.7-1.3,1.4-2.35,2.17c-0.55,0.4-0.68,0.36-0.73,0.33
	c-0.23-0.14-0.01-0.76,0.11-1.74c0,0,0.05-0.44,0.04-1.87c-0.02-2.85-1.18-5.21-1.18-5.21c-1.1-2.23-2.69-3.5-3.56-4.19
	c-0.98-0.77-1.84-1.23-2.17-1.4c-2.81-1.43-5.92-1.69-6.05-1.28c-0.07,0.23,0.84,0.52,3.63,2.25c2.4,1.48,3.17,2.16,3.72,2.71
	c0.59,0.59,1.26,1.27,1.85,2.35c0.47,0.87,0.69,1.68,1.13,3.32c0.09,0.33,0.2,0.76,0.23,1.32c0.02,0.38,0,0.58-0.02,1.07
	c-0.05,1.41,0.08,1.66-0.02,1.71c-0.74,0.42-9.81-12.89-12.77-12.86c-1.22,0.01-1.7,0.61-1.7,0.61c-0.32,0.4-0.37,0.95-0.38,1.05
	c0,0-0.04,0.46,0.12,0.92c0.71,2.08,10.85,10.95,10.85,10.95c0.45,0.4,1.5,1.33,1.29,1.73c-0.08,0.15-0.32,0.22-1.34,0.14
	c-1.83-0.14-3.2-0.53-3.38-0.58c-1.27-0.37-1.91-0.56-2.55-0.89c-1.28-0.66-2.02-1.47-3.09-2.63c-1.47-1.6-2.34-3.04-2.54-3.38
	C917.04,489.86,916.71,488.54,916.49,488.59z"/>
<path class="st0" d="M918.05,479.82c-0.2,0.07,0.26,1.05-0.22,1.56c-0.47,0.51-1.34,0.03-1.73,0.53c-0.35,0.44,0.15,1.05-0.18,1.46
	c-0.45,0.55-1.78-0.04-1.86,0.17c-0.08,0.21,1.09,1.28,2.45,1.15c1.4-0.14,2.59-1.53,2.59-2.86
	C919.1,480.7,918.26,479.74,918.05,479.82z"/>
</svg>
