<?xml version="1.0" encoding="UTF-8" ?>
<!DOCTYPE svg PUBLIC "-//W3C//DTD SVG 1.1//EN" "http://www.w3.org/Graphics/SVG/1.1/DTD/svg11.dtd">
<svg width="200pt" height="200pt" viewBox="0 0 200 200" version="1.1" xmlns="http://www.w3.org/2000/svg">
<g id="#73af00ff">
<path fill="#73af00" opacity="1.00" d=" M 97.45 0.00 L 102.61 0.00 C 104.85 0.76 106.99 1.75 109.04 2.93 C 132.91 16.73 156.81 30.50 180.70 44.29 C 184.07 46.20 187.11 49.17 188.05 53.06 C 187.97 53.49 187.81 54.35 187.74 54.79 C 187.91 56.08 188.07 57.38 188.23 58.68 L 186.48 58.30 C 186.80 59.12 187.42 60.76 187.73 61.57 C 188.05 62.49 188.30 63.42 188.50 64.36 C 187.93 64.90 186.79 65.96 186.22 66.50 C 185.78 66.06 184.88 65.20 184.44 64.77 C 179.30 64.55 174.03 63.94 169.05 65.62 C 164.07 63.87 158.78 64.79 153.63 64.60 C 153.28 64.97 152.60 65.71 152.25 66.08 C 146.79 63.61 140.32 64.26 134.60 65.53 C 129.57 64.05 124.31 64.55 119.15 64.75 C 118.81 65.03 118.12 65.60 117.78 65.89 C 112.04 64.23 105.81 63.69 100.08 65.68 C 94.35 63.72 88.10 64.20 82.37 65.91 C 82.03 65.59 81.36 64.97 81.03 64.66 C 75.86 64.58 70.58 64.12 65.55 65.60 C 59.83 64.17 53.69 63.92 48.04 65.77 C 47.41 65.38 46.80 64.99 46.18 64.60 C 41.13 64.76 35.93 63.87 31.06 65.64 C 26.19 64.00 21.03 64.40 16.02 64.95 C 14.81 65.32 13.59 65.65 12.36 65.97 C 12.10 64.68 11.85 63.39 11.61 62.10 C 12.59 61.47 13.57 60.84 14.56 60.22 C 14.69 60.93 14.95 62.35 15.08 63.06 C 15.77 59.81 18.41 59.05 21.27 59.06 C 21.37 59.97 21.59 61.77 21.70 62.68 C 24.69 62.90 27.69 62.85 30.68 62.57 C 30.06 60.90 30.78 58.06 28.55 57.48 C 27.14 57.32 25.75 57.75 24.37 57.96 C 25.93 58.88 27.52 59.78 29.09 60.69 C 27.30 60.86 25.51 61.02 23.71 61.17 C 23.51 59.95 23.31 58.73 23.11 57.51 C 20.28 57.45 17.45 57.63 14.72 58.41 C 13.66 56.91 12.71 55.34 11.78 53.76 C 12.96 49.47 16.17 46.14 19.97 44.00 C 43.67 30.35 67.36 16.67 91.03 2.95 C 93.08 1.78 95.22 0.78 97.45 0.00 M 14.22 54.18 C 14.56 54.53 15.25 55.23 15.59 55.58 C 20.68 56.21 25.86 55.66 30.98 55.87 C 33.30 55.69 36.21 56.55 37.79 54.29 C 29.95 53.73 22.06 53.88 14.22 54.18 M 40.23 53.73 C 39.56 55.02 38.73 56.19 37.74 57.25 C 36.83 55.96 33.51 56.02 33.52 57.89 L 32.14 57.79 C 32.00 59.37 31.86 60.95 31.74 62.54 C 33.78 62.87 36.06 63.27 37.69 61.65 C 36.55 61.33 34.25 60.67 33.11 60.34 C 34.75 59.30 36.70 59.32 38.57 59.19 C 38.67 60.08 38.89 61.85 39.00 62.73 C 41.78 62.88 44.58 62.91 47.36 62.67 C 47.48 59.53 48.13 56.10 46.22 53.32 C 45.58 56.06 46.49 59.32 44.52 61.62 C 44.15 58.94 44.02 56.23 43.70 53.54 C 41.51 55.79 42.88 59.28 41.15 61.79 C 40.57 59.14 40.49 56.42 40.23 53.73 M 48.41 54.46 C 50.73 56.63 54.12 55.64 56.98 55.86 C 61.95 55.62 67.02 56.40 71.91 55.30 L 71.16 54.19 C 63.60 53.87 55.95 53.61 48.41 54.46 M 77.18 53.32 C 76.53 56.09 77.45 59.37 75.44 61.69 C 75.07 59.12 75.04 56.53 75.00 53.94 C 73.44 57.66 69.55 57.90 66.05 57.94 C 66.28 59.91 66.22 63.15 69.00 63.08 C 69.89 62.84 71.66 62.34 72.54 62.09 C 71.48 61.71 69.35 60.95 68.29 60.56 L 68.29 59.39 C 69.72 59.36 71.15 59.34 72.58 59.32 C 73.41 60.35 73.21 62.42 74.73 62.87 C 77.11 63.10 79.49 62.77 81.87 62.59 C 82.14 59.52 82.10 56.41 81.41 53.39 C 79.75 55.84 80.34 58.95 79.69 61.70 C 77.83 59.22 79.15 55.76 77.18 53.32 M 83.12 54.30 C 86.16 57.36 91.12 55.24 94.97 55.85 C 98.80 55.23 103.77 57.38 106.75 54.26 C 98.89 53.81 90.98 53.75 83.12 54.30 M 109.20 53.79 C 108.58 54.97 107.86 56.09 107.03 57.12 C 104.99 57.79 102.78 57.66 100.67 57.89 C 101.02 59.56 100.37 61.92 102.24 62.84 C 103.78 63.76 105.30 62.51 106.67 61.89 C 105.52 61.47 103.23 60.62 102.08 60.19 C 103.81 59.01 105.88 59.37 107.81 59.67 C 107.91 60.46 108.11 62.04 108.21 62.83 C 110.89 62.88 113.57 62.87 116.24 62.76 C 116.57 59.60 116.56 56.40 115.81 53.30 C 114.38 55.95 115.28 59.26 113.49 61.74 C 113.06 58.96 112.94 56.15 112.49 53.37 C 110.70 55.78 111.41 58.95 110.78 61.71 C 109.28 59.33 109.54 56.46 109.20 53.79 M 117.36 54.49 C 119.47 56.39 122.45 55.72 125.04 55.86 C 130.30 55.66 135.62 56.28 140.84 55.41 L 140.23 54.18 C 132.63 53.89 124.93 53.57 117.36 54.49 M 146.27 53.31 C 145.84 56.06 145.76 58.85 145.46 61.61 C 143.28 59.63 144.36 56.45 144.02 53.90 C 143.11 55.01 142.35 56.27 141.26 57.23 C 139.32 57.82 137.23 57.61 135.23 57.79 C 135.49 59.35 134.78 61.57 136.42 62.57 C 137.84 63.85 139.66 62.73 141.06 62.07 C 139.94 61.53 137.70 60.47 136.59 59.93 C 138.41 59.50 140.29 59.34 142.16 59.19 C 142.25 60.09 142.44 61.88 142.53 62.78 C 145.29 62.85 148.06 62.86 150.82 62.78 C 150.97 59.58 151.39 56.23 149.99 53.22 C 149.02 56.02 149.58 59.21 147.97 61.80 C 147.44 58.96 147.89 55.86 146.27 53.31 M 152.02 54.44 C 152.51 54.76 153.50 55.39 153.99 55.71 C 160.00 56.03 166.04 55.78 172.06 55.86 C 173.54 56.04 174.87 55.52 175.74 54.29 C 167.85 53.85 159.88 53.61 152.02 54.44 M 177.85 53.40 C 177.36 54.72 176.84 56.02 176.29 57.31 C 174.17 57.63 172.03 57.62 169.90 57.79 C 169.85 59.37 169.80 60.95 169.76 62.53 C 171.79 63.00 173.88 63.03 175.67 61.84 C 174.53 61.41 172.23 60.55 171.08 60.12 C 172.82 59.53 174.65 59.31 176.48 59.12 C 176.56 59.97 176.73 61.66 176.82 62.50 C 179.62 63.03 182.47 62.94 185.29 62.63 C 185.56 59.50 185.58 56.33 184.79 53.27 C 183.50 55.96 184.40 59.29 182.46 61.68 C 182.08 58.89 181.96 56.07 181.49 53.30 C 179.84 55.54 180.48 58.41 180.02 60.98 L 178.88 60.78 C 178.49 58.33 178.60 55.79 177.85 53.40 M 93.46 58.11 C 94.98 58.97 96.54 59.80 98.05 60.70 C 96.22 60.84 94.40 60.95 92.58 61.04 C 92.46 60.19 92.22 58.48 92.09 57.62 C 89.26 57.44 86.41 57.57 83.58 57.75 C 83.71 59.67 83.89 61.59 84.15 63.50 C 84.66 62.20 85.16 60.90 85.64 59.59 C 87.17 59.46 88.70 59.37 90.24 59.29 C 90.34 60.10 90.54 61.73 90.64 62.55 C 93.54 62.99 96.48 62.91 99.39 62.64 C 99.04 61.10 99.89 58.71 98.18 57.75 C 96.75 56.55 94.99 57.79 93.46 58.11 M 162.36 58.18 C 163.95 59.01 165.56 59.79 167.14 60.64 C 165.43 60.82 163.73 60.98 162.02 61.11 C 161.65 60.03 161.23 58.98 160.76 57.95 C 158.13 56.97 155.27 57.71 152.55 57.76 C 152.58 59.76 152.84 61.76 153.61 63.62 C 153.99 62.21 154.36 60.78 154.71 59.35 C 156.26 59.35 157.81 59.35 159.36 59.36 C 159.44 60.17 159.60 61.79 159.68 62.60 C 162.59 63.03 165.53 62.91 168.44 62.53 C 168.06 60.99 168.79 58.60 167.04 57.73 C 165.57 56.70 163.85 57.77 162.36 58.18 M 49.13 57.74 C 49.23 59.65 49.40 61.55 49.63 63.45 C 50.33 62.10 50.98 60.73 51.61 59.35 C 52.82 59.33 54.04 59.31 55.26 59.29 C 56.03 60.56 56.08 62.78 57.94 62.90 C 60.25 63.12 62.56 62.73 64.86 62.52 C 64.75 60.94 65.31 59.05 63.95 57.86 C 62.40 56.64 60.63 57.61 59.03 58.11 C 60.58 58.93 62.14 59.74 63.68 60.59 C 61.85 60.81 60.02 61.00 58.19 61.17 C 58.04 60.30 57.75 58.57 57.60 57.70 C 54.78 57.45 51.95 57.56 49.13 57.74 M 118.19 58.08 C 117.70 59.94 118.25 61.77 119.12 63.41 C 119.36 62.43 119.83 60.46 120.07 59.48 C 121.30 59.36 122.54 59.32 123.78 59.35 C 125.09 60.64 125.61 63.38 127.94 62.98 C 129.94 62.98 131.91 62.69 133.89 62.47 C 133.70 60.91 134.04 59.11 132.91 57.83 C 131.35 56.71 129.64 57.61 128.07 58.11 C 129.60 58.94 131.17 59.75 132.69 60.61 C 131.01 60.81 129.33 60.97 127.64 61.12 C 127.24 59.94 126.71 58.83 126.07 57.78 C 123.49 57.06 120.74 57.47 118.19 58.08 M 53.05 61.21 C 51.75 64.28 56.41 61.07 53.05 61.21 M 122.04 61.20 C 120.70 64.25 125.39 61.08 122.04 61.20 Z" />
</g>
<g id="#f5f5f5ff">
<path fill="#f5f5f5" opacity="1.00" d=" M 11.36 64.00 C 11.37 60.58 11.42 57.16 11.78 53.76 C 12.71 55.34 13.66 56.91 14.72 58.41 C 17.45 57.63 20.28 57.45 23.11 57.51 C 23.31 58.73 23.51 59.95 23.71 61.17 C 25.51 61.02 27.30 60.86 29.09 60.69 C 27.52 59.78 25.93 58.88 24.37 57.96 C 25.75 57.75 27.14 57.32 28.55 57.48 C 30.78 58.06 30.06 60.90 30.68 62.57 C 27.69 62.85 24.69 62.90 21.70 62.68 C 21.59 61.77 21.37 59.97 21.27 59.06 C 18.41 59.05 15.77 59.81 15.08 63.06 C 14.95 62.35 14.69 60.93 14.56 60.22 C 13.57 60.84 12.59 61.47 11.61 62.10 C 11.85 63.39 12.10 64.68 12.36 65.97 C 13.59 65.65 14.81 65.32 16.02 64.95 C 21.03 64.40 26.19 64.00 31.06 65.64 C 35.93 63.87 41.13 64.76 46.18 64.60 C 46.80 64.99 47.41 65.38 48.04 65.77 C 53.69 63.92 59.83 64.17 65.55 65.60 C 70.58 64.12 75.86 64.58 81.03 64.66 C 81.36 64.97 82.03 65.59 82.37 65.91 C 88.10 64.20 94.35 63.72 100.08 65.68 C 105.81 63.69 112.04 64.23 117.78 65.89 C 118.12 65.60 118.81 65.03 119.15 64.75 C 124.31 64.55 129.57 64.05 134.60 65.53 C 140.32 64.26 146.79 63.61 152.25 66.08 C 152.60 65.71 153.28 64.97 153.63 64.60 C 158.78 64.79 164.07 63.87 169.05 65.62 C 174.03 63.94 179.30 64.55 184.44 64.77 C 184.88 65.20 185.78 66.06 186.22 66.50 C 186.79 65.96 187.93 64.90 188.50 64.36 C 188.96 86.26 188.58 108.18 188.72 130.09 C 188.53 135.80 189.16 141.58 188.13 147.23 C 187.16 144.15 186.58 140.84 187.83 137.74 C 187.89 136.54 187.95 135.35 187.98 134.15 C 181.71 135.22 175.17 136.52 168.97 134.31 C 163.45 136.33 157.54 135.47 151.92 134.38 C 146.25 135.75 140.30 135.80 134.64 134.36 C 128.92 135.81 122.91 135.73 117.19 134.35 C 111.57 135.56 105.64 136.31 100.09 134.30 C 94.42 136.33 88.31 135.61 82.60 134.13 C 82.18 134.36 81.33 134.81 80.91 135.04 C 75.82 135.43 70.59 136.07 65.65 134.33 C 59.89 136.31 53.74 135.61 47.97 134.10 C 47.52 134.34 46.63 134.81 46.19 135.05 C 41.17 135.48 36.01 136.06 31.16 134.33 C 24.89 136.54 18.30 135.11 11.95 134.19 C 12.05 135.34 12.16 136.48 12.30 137.63 C 12.59 138.94 13.11 140.34 12.53 141.66 L 11.67 143.70 C 11.12 117.15 11.72 90.56 11.36 64.00 M 93.77 79.53 C 94.54 80.67 95.39 81.74 96.32 82.75 C 98.77 83.20 101.32 83.15 103.77 82.77 C 104.86 81.80 105.61 80.54 106.45 79.37 C 102.27 80.35 97.98 80.43 93.77 79.53 M 82.27 88.43 C 75.92 96.30 77.75 109.75 87.06 114.53 C 84.16 109.56 81.90 103.98 82.78 98.10 C 82.90 92.14 86.89 87.46 90.47 83.11 C 87.41 84.28 84.24 85.69 82.27 88.43 M 109.94 83.18 C 113.63 87.40 116.97 92.31 117.38 98.08 C 118.36 103.96 116.01 109.60 113.06 114.55 C 116.64 112.40 119.75 109.23 120.85 105.10 C 123.81 96.46 119.08 85.59 109.94 83.18 M 97.08 85.82 C 97.13 94.93 97.66 104.03 97.54 113.14 C 89.42 106.49 87.50 94.15 92.58 85.11 C 92.25 85.21 91.60 85.41 91.27 85.51 C 88.03 89.25 85.64 93.98 85.94 99.05 C 85.72 106.24 89.87 112.90 95.71 116.86 C 93.07 117.02 90.39 117.29 88.01 118.52 C 92.00 119.96 97.48 117.32 100.31 121.28 C 100.85 120.53 101.38 119.77 101.92 119.02 C 105.39 119.19 108.88 119.13 112.30 118.50 C 109.86 117.39 107.18 117.03 104.53 116.82 C 109.99 112.98 114.24 106.84 114.07 99.95 C 114.58 94.11 112.25 87.98 107.43 84.50 C 109.12 88.76 110.92 93.19 110.36 97.88 C 110.18 103.74 107.03 109.06 102.76 112.92 C 102.40 103.85 103.55 94.71 102.67 85.68 C 101.37 83.15 98.74 84.19 97.08 85.82 Z" />
<path fill="#f5f5f5" opacity="1.00" d=" M 14.22 54.18 C 22.06 53.88 29.95 53.73 37.79 54.29 C 36.21 56.55 33.30 55.69 30.98 55.87 C 25.86 55.66 20.68 56.21 15.59 55.58 C 15.25 55.23 14.56 54.53 14.22 54.18 Z" />
<path fill="#f5f5f5" opacity="1.00" d=" M 40.23 53.73 C 40.49 56.42 40.57 59.14 41.15 61.79 C 42.88 59.28 41.51 55.79 43.70 53.54 C 44.02 56.23 44.15 58.94 44.52 61.62 C 46.49 59.32 45.58 56.06 46.22 53.32 C 48.13 56.10 47.48 59.53 47.36 62.67 C 44.58 62.91 41.78 62.88 39.00 62.73 C 38.89 61.85 38.67 60.08 38.57 59.19 C 36.70 59.32 34.75 59.30 33.11 60.34 C 34.25 60.67 36.55 61.33 37.69 61.65 C 36.06 63.27 33.78 62.87 31.74 62.54 C 31.86 60.95 32.00 59.37 32.14 57.79 L 33.52 57.89 C 34.90 57.91 36.64 58.30 37.74 57.25 C 38.73 56.19 39.56 55.02 40.23 53.73 Z" />
<path fill="#f5f5f5" opacity="1.00" d=" M 48.41 54.46 C 55.95 53.61 63.60 53.87 71.16 54.19 L 71.91 55.30 C 67.02 56.40 61.95 55.62 56.98 55.86 C 54.12 55.64 50.73 56.63 48.41 54.46 Z" />
<path fill="#f5f5f5" opacity="1.00" d=" M 77.18 53.32 C 79.15 55.76 77.83 59.22 79.69 61.70 C 80.34 58.95 79.75 55.84 81.41 53.39 C 82.10 56.41 82.14 59.52 81.87 62.59 C 79.49 62.77 77.11 63.10 74.73 62.87 C 73.21 62.42 73.41 60.35 72.58 59.32 C 71.15 59.34 69.72 59.36 68.29 59.39 L 68.29 60.56 C 69.35 60.95 71.48 61.71 72.54 62.09 C 71.66 62.34 69.89 62.84 69.00 63.08 C 66.22 63.15 66.28 59.91 66.05 57.94 C 69.55 57.90 73.44 57.66 75.00 53.94 C 75.04 56.53 75.07 59.12 75.44 61.69 C 77.45 59.37 76.53 56.09 77.18 53.32 Z" />
<path fill="#f5f5f5" opacity="1.00" d=" M 83.12 54.30 C 90.98 53.75 98.89 53.81 106.75 54.26 C 103.77 57.38 98.80 55.23 94.97 55.85 C 91.12 55.24 86.16 57.36 83.12 54.30 Z" />
<path fill="#f5f5f5" opacity="1.00" d=" M 109.20 53.79 C 109.54 56.46 109.28 59.33 110.78 61.71 C 111.41 58.95 110.70 55.78 112.49 53.37 C 112.94 56.15 113.06 58.96 113.49 61.74 C 115.28 59.26 114.38 55.95 115.81 53.30 C 116.56 56.40 116.57 59.60 116.24 62.76 C 113.57 62.87 110.89 62.88 108.21 62.83 C 108.11 62.04 107.91 60.46 107.81 59.67 C 105.88 59.37 103.81 59.01 102.08 60.19 C 103.23 60.62 105.52 61.47 106.67 61.89 C 105.30 62.51 103.78 63.76 102.24 62.84 C 100.37 61.92 101.02 59.56 100.67 57.89 C 102.78 57.66 104.99 57.79 107.03 57.12 C 107.86 56.09 108.58 54.97 109.20 53.79 Z" />
<path fill="#f5f5f5" opacity="1.00" d=" M 117.36 54.49 C 124.93 53.57 132.63 53.89 140.23 54.18 L 140.84 55.41 C 135.62 56.28 130.30 55.66 125.04 55.86 C 122.45 55.72 119.47 56.39 117.36 54.49 Z" />
<path fill="#f5f5f5" opacity="1.00" d=" M 146.27 53.31 C 147.89 55.86 147.44 58.96 147.97 61.80 C 149.58 59.21 149.02 56.02 149.99 53.22 C 151.39 56.23 150.97 59.58 150.82 62.78 C 148.06 62.86 145.29 62.85 142.53 62.78 C 142.44 61.88 142.25 60.09 142.16 59.19 C 140.29 59.34 138.41 59.50 136.59 59.93 C 137.70 60.47 139.94 61.53 141.06 62.07 C 139.66 62.73 137.84 63.85 136.42 62.57 C 134.78 61.57 135.49 59.35 135.23 57.79 C 137.23 57.61 139.32 57.82 141.26 57.23 C 142.35 56.27 143.11 55.01 144.02 53.90 C 144.36 56.45 143.28 59.63 145.46 61.61 C 145.76 58.85 145.84 56.06 146.27 53.31 Z" />
<path fill="#f5f5f5" opacity="1.00" d=" M 152.02 54.44 C 159.88 53.61 167.85 53.85 175.74 54.29 C 174.87 55.52 173.54 56.04 172.06 55.86 C 166.04 55.78 160.00 56.03 153.99 55.71 C 153.50 55.39 152.51 54.76 152.02 54.44 Z" />
<path fill="#f5f5f5" opacity="1.00" d=" M 177.85 53.40 C 178.60 55.79 178.49 58.33 178.88 60.78 L 180.02 60.98 C 180.48 58.41 179.84 55.54 181.49 53.30 C 181.96 56.07 182.08 58.89 182.46 61.68 C 184.40 59.29 183.50 55.96 184.79 53.27 C 185.58 56.33 185.56 59.50 185.29 62.63 C 182.47 62.94 179.62 63.03 176.82 62.50 C 176.73 61.66 176.56 59.97 176.48 59.12 C 174.65 59.31 172.82 59.53 171.08 60.12 C 172.23 60.55 174.53 61.41 175.67 61.84 C 173.88 63.03 171.79 63.00 169.76 62.53 C 169.80 60.95 169.85 59.37 169.90 57.79 C 172.03 57.62 174.17 57.63 176.29 57.31 C 176.84 56.02 177.36 54.72 177.85 53.40 Z" />
<path fill="#f5f5f5" opacity="1.00" d=" M 187.74 54.79 C 187.81 54.35 187.97 53.49 188.05 53.06 C 189.01 56.47 188.71 60.04 188.54 63.54 L 187.73 61.57 C 187.42 60.76 186.80 59.12 186.48 58.30 L 188.23 58.68 C 188.07 57.38 187.91 56.08 187.74 54.79 Z" />
<path fill="#f5f5f5" opacity="1.00" d=" M 93.46 58.11 C 94.99 57.79 96.75 56.55 98.18 57.75 C 99.89 58.71 99.04 61.10 99.39 62.64 C 96.48 62.91 93.54 62.99 90.64 62.55 C 90.54 61.73 90.34 60.10 90.24 59.29 C 88.70 59.37 87.17 59.46 85.64 59.59 C 85.16 60.90 84.66 62.20 84.15 63.50 C 83.89 61.59 83.71 59.67 83.58 57.75 C 86.41 57.57 89.26 57.44 92.09 57.62 C 92.22 58.48 92.46 60.19 92.58 61.04 C 94.40 60.95 96.22 60.84 98.05 60.70 C 96.54 59.80 94.98 58.97 93.46 58.11 Z" />
<path fill="#f5f5f5" opacity="1.00" d=" M 162.36 58.18 C 163.85 57.77 165.57 56.70 167.04 57.73 C 168.79 58.60 168.06 60.99 168.44 62.53 C 165.53 62.91 162.59 63.03 159.68 62.60 C 159.60 61.79 159.44 60.17 159.36 59.36 C 157.81 59.35 156.26 59.35 154.71 59.35 C 154.36 60.78 153.99 62.21 153.61 63.62 C 152.84 61.76 152.58 59.76 152.55 57.76 C 155.27 57.71 158.13 56.97 160.76 57.95 C 161.23 58.98 161.65 60.03 162.02 61.11 C 163.73 60.98 165.43 60.82 167.14 60.64 C 165.56 59.79 163.95 59.01 162.36 58.18 Z" />
<path fill="#f5f5f5" opacity="1.00" d=" M 49.13 57.74 C 51.95 57.56 54.78 57.45 57.60 57.70 C 57.75 58.57 58.04 60.30 58.19 61.17 C 60.02 61.00 61.85 60.81 63.68 60.59 C 62.14 59.74 60.58 58.93 59.03 58.11 C 60.63 57.61 62.40 56.64 63.95 57.86 C 65.31 59.05 64.75 60.94 64.86 62.52 C 62.56 62.73 60.25 63.12 57.94 62.90 C 56.08 62.78 56.03 60.56 55.26 59.29 C 54.04 59.31 52.82 59.33 51.61 59.35 C 50.98 60.73 50.33 62.10 49.63 63.45 C 49.40 61.55 49.23 59.65 49.13 57.74 Z" />
<path fill="#f5f5f5" opacity="1.00" d=" M 118.19 58.08 C 120.74 57.47 123.49 57.06 126.07 57.78 C 126.71 58.83 127.24 59.94 127.64 61.12 C 129.33 60.97 131.01 60.81 132.69 60.61 C 131.17 59.75 129.60 58.94 128.07 58.11 C 129.64 57.61 131.35 56.71 132.91 57.83 C 134.04 59.11 133.70 60.91 133.89 62.47 C 131.91 62.69 129.94 62.98 127.94 62.98 C 125.61 63.38 125.09 60.64 123.78 59.35 C 122.54 59.32 121.30 59.36 120.07 59.48 C 119.83 60.46 119.36 62.43 119.12 63.41 C 118.25 61.77 117.70 59.94 118.19 58.08 Z" />
<path fill="#f5f5f5" opacity="1.00" d=" M 53.05 61.21 C 56.41 61.07 51.75 64.28 53.05 61.21 Z" />
<path fill="#f5f5f5" opacity="1.00" d=" M 122.04 61.20 C 125.39 61.08 120.70 64.25 122.04 61.20 Z" />
<path fill="#f5f5f5" opacity="1.00" d=" M 24.48 138.20 C 26.31 137.44 28.28 137.21 30.25 137.35 C 30.26 139.04 30.26 140.72 30.26 142.40 C 28.05 142.54 25.84 142.62 23.63 142.71 C 23.31 144.09 22.97 145.46 22.63 146.84 C 21.51 144.12 21.89 141.01 20.47 138.40 C 20.01 141.15 19.85 143.93 19.45 146.69 C 17.53 144.36 18.16 141.13 17.57 138.36 C 16.10 140.97 16.52 144.13 15.24 146.82 C 14.67 143.74 14.68 140.60 14.82 137.49 C 17.38 137.38 19.95 137.31 22.51 137.43 C 23.30 138.50 23.20 140.72 24.94 140.87 C 26.45 141.10 27.86 140.40 29.28 140.03 C 28.08 139.57 25.68 138.66 24.48 138.20 Z" />
<path fill="#f5f5f5" opacity="1.00" d=" M 49.43 137.57 C 51.98 137.53 54.72 136.67 57.16 137.69 C 57.74 138.81 58.26 139.96 58.73 141.14 C 60.39 140.83 62.06 140.48 63.65 139.89 C 62.48 139.49 60.15 138.69 58.98 138.29 C 60.82 137.31 62.86 137.21 64.87 137.63 C 64.86 139.17 64.86 140.71 64.85 142.25 C 62.58 142.50 60.31 142.66 58.04 142.83 C 57.84 143.81 57.44 145.75 57.23 146.73 C 55.64 144.23 56.04 141.15 55.55 138.36 C 53.99 140.92 54.36 144.01 53.79 146.84 C 52.46 144.16 53.00 140.99 51.62 138.35 C 50.93 141.09 51.50 144.27 49.68 146.64 C 49.16 143.64 49.14 140.59 49.43 137.57 Z" />
<path fill="#f5f5f5" opacity="1.00" d=" M 100.90 137.55 C 103.31 137.41 105.75 137.00 108.15 137.42 C 109.74 137.79 109.77 139.80 110.58 140.91 C 111.91 140.84 113.23 140.78 114.55 140.71 C 114.75 139.74 115.13 137.81 115.33 136.84 C 116.41 138.37 117.08 140.40 116.12 142.17 C 113.80 143.18 111.24 142.58 108.82 142.45 C 108.01 141.24 107.81 139.20 106.06 139.01 C 105.17 139.14 103.41 139.41 102.52 139.54 C 103.83 140.43 105.16 141.33 106.47 142.22 C 104.85 142.53 103.22 142.83 101.60 143.12 C 101.29 141.27 101.07 139.41 100.90 137.55 Z" />
<path fill="#f5f5f5" opacity="1.00" d=" M 118.45 137.45 C 121.22 137.30 124.02 137.27 126.78 137.66 C 126.91 138.48 127.17 140.14 127.30 140.96 C 129.05 140.84 130.80 140.71 132.55 140.57 C 131.10 139.59 129.57 138.73 128.16 137.69 C 130.00 137.43 132.03 136.85 133.74 137.91 C 133.91 139.30 133.89 140.70 133.69 142.10 C 131.72 142.77 129.60 142.62 127.56 142.74 C 126.91 144.10 126.24 145.46 125.52 146.79 C 125.19 143.97 124.99 141.13 124.55 138.32 C 123.14 140.95 123.33 143.99 122.82 146.85 C 121.44 144.17 121.99 140.98 120.57 138.32 C 120.12 140.91 120.00 143.55 119.61 146.16 C 116.76 144.48 118.47 140.16 118.45 137.45 Z" />
<path fill="#f5f5f5" opacity="1.00" d=" M 146.23 137.46 C 149.57 137.72 144.56 140.34 146.23 137.46 Z" />
<path fill="#f5f5f5" opacity="1.00" d=" M 162.66 138.28 C 164.41 137.34 166.37 137.24 168.31 137.38 C 168.29 139.04 168.27 140.70 168.24 142.37 C 166.04 142.53 163.84 142.64 161.64 142.73 C 161.28 144.11 160.91 145.49 160.53 146.87 C 159.64 144.08 159.80 141.03 158.54 138.35 C 157.80 141.09 158.62 144.43 156.52 146.67 C 156.10 143.88 155.91 141.07 155.41 138.31 C 154.20 141.03 154.42 144.12 153.29 146.87 C 152.60 143.77 152.57 140.59 152.77 137.44 C 155.55 137.35 158.33 137.34 161.11 137.39 C 161.23 138.31 161.47 140.14 161.59 141.05 C 163.39 140.90 165.23 140.73 166.84 139.84 C 165.80 139.45 163.71 138.67 162.66 138.28 Z" />
<path fill="#f5f5f5" opacity="1.00" d=" M 169.96 137.83 C 172.75 137.05 175.70 137.24 178.55 137.53 C 178.56 138.34 178.57 139.97 178.57 140.78 C 179.99 140.80 181.42 140.87 182.85 140.73 C 183.68 139.56 184.43 138.34 185.09 137.06 C 185.28 138.86 185.43 140.66 185.56 142.47 C 182.68 142.60 179.78 142.66 176.90 142.43 C 176.81 141.59 176.65 139.90 176.57 139.05 C 174.76 139.14 172.96 139.24 171.17 139.40 C 172.61 140.28 174.08 141.09 175.56 141.93 C 174.07 142.43 172.22 143.69 170.83 142.28 C 169.30 141.31 169.74 139.31 169.96 137.83 Z" />
<path fill="#f5f5f5" opacity="1.00" d=" M 31.63 137.65 C 34.54 137.37 37.47 137.22 40.40 137.42 C 40.49 138.27 40.67 139.97 40.76 140.82 C 42.19 140.80 43.62 140.83 45.04 140.65 C 45.79 139.51 46.48 138.34 47.11 137.13 C 47.35 138.93 47.54 140.74 47.69 142.55 C 44.80 142.62 41.89 142.63 39.00 142.47 C 38.91 141.61 38.74 139.89 38.66 139.03 C 36.79 139.14 34.93 139.27 33.07 139.44 C 34.58 140.31 36.11 141.11 37.63 141.95 C 36.26 142.35 34.71 143.52 33.31 142.56 C 31.49 141.69 32.18 139.22 31.63 137.65 Z" />
<path fill="#f5f5f5" opacity="1.00" d=" M 66.34 137.52 C 69.00 137.36 71.66 137.31 74.32 137.42 C 74.55 140.46 76.91 141.09 79.48 141.11 C 80.05 139.61 80.64 138.11 81.25 136.63 C 81.67 138.50 82.71 140.62 81.56 142.45 C 78.94 142.77 76.29 142.62 73.66 142.54 C 73.45 141.35 73.24 140.15 73.03 138.96 C 71.16 139.14 69.28 139.33 67.42 139.55 C 68.95 140.37 70.50 141.14 72.04 141.94 C 70.77 142.22 69.43 143.54 68.12 142.75 C 65.99 141.94 66.59 139.28 66.34 137.52 Z" />
<path fill="#f5f5f5" opacity="1.00" d=" M 83.81 137.47 C 86.35 137.37 88.89 137.34 91.43 137.41 C 91.88 138.61 92.48 139.72 93.23 140.74 C 94.95 140.95 96.68 140.65 98.39 140.50 C 96.80 139.63 95.17 138.79 93.57 137.96 C 95.44 137.49 97.36 137.34 99.28 137.36 C 99.28 139.04 99.27 140.73 99.26 142.42 C 97.11 142.55 94.96 142.62 92.81 142.69 C 92.25 144.06 91.69 145.44 91.10 146.80 C 90.67 143.98 90.93 140.95 89.58 138.35 C 88.88 141.08 89.52 144.31 87.60 146.62 C 87.24 143.85 87.07 141.06 86.63 138.31 C 85.13 140.93 85.67 144.13 84.24 146.79 C 83.69 143.71 83.68 140.58 83.81 137.47 Z" />
<path fill="#f5f5f5" opacity="1.00" d=" M 135.31 137.49 C 138.23 137.29 141.16 137.25 144.07 137.61 C 144.17 138.44 144.36 140.10 144.45 140.93 C 146.07 140.83 147.69 140.73 149.30 140.61 C 149.30 139.87 149.30 138.40 149.30 137.66 L 151.31 137.70 C 151.17 139.13 150.97 140.55 150.71 141.97 C 148.45 143.39 145.73 142.56 143.28 142.35 C 142.91 138.55 139.24 138.94 136.46 139.33 C 138.03 140.35 139.66 141.27 141.27 142.24 C 139.75 142.34 137.92 143.56 136.52 142.42 C 134.77 141.44 135.58 139.08 135.31 137.49 Z" />
<path fill="#f5f5f5" opacity="1.00" d=" M 11.72 144.40 C 13.23 144.95 13.24 145.51 11.75 146.10 C 11.74 145.67 11.73 144.82 11.72 144.40 Z" />
<path fill="#f5f5f5" opacity="1.00" d=" M 24.22 145.64 C 26.53 144.12 29.38 144.40 32.00 144.33 C 36.35 144.39 40.69 144.27 45.04 144.43 C 46.17 144.35 47.23 144.81 48.10 145.49 C 40.24 146.67 32.13 146.34 24.22 145.64 Z" />
<path fill="#f5f5f5" opacity="1.00" d=" M 58.93 145.82 C 60.55 144.12 62.93 144.40 65.03 144.35 C 69.70 144.41 74.37 144.30 79.03 144.40 C 80.44 144.28 81.70 144.85 82.74 145.77 C 74.83 146.39 66.85 146.32 58.93 145.82 Z" />
<path fill="#f5f5f5" opacity="1.00" d=" M 93.23 145.72 C 94.34 145.01 95.55 144.34 96.92 144.41 C 101.62 144.24 106.32 144.42 111.03 144.34 C 113.11 144.41 115.55 144.04 117.05 145.88 C 109.13 146.23 101.14 146.47 93.23 145.72 Z" />
<path fill="#f5f5f5" opacity="1.00" d=" M 127.94 145.80 C 129.06 144.86 130.42 144.33 131.88 144.41 C 137.26 144.31 142.65 144.30 148.03 144.43 C 149.42 144.33 150.66 144.94 151.73 145.77 C 143.83 146.39 135.85 146.32 127.94 145.80 Z" />
<path fill="#f5f5f5" opacity="1.00" d=" M 162.21 145.72 C 166.02 143.36 170.76 144.70 174.98 144.35 C 178.66 144.73 182.92 143.33 186.09 145.78 C 178.16 146.33 170.14 146.41 162.21 145.72 Z" />
</g>
<g id="#ff4b55ff">
<path fill="#ff4b55" opacity="1.00" d=" M 33.52 57.89 C 33.51 56.02 36.83 55.96 37.74 57.25 C 36.64 58.30 34.90 57.91 33.52 57.89 Z" />
<path fill="#ff4b55" opacity="1.00" d=" M 93.77 79.53 C 97.98 80.43 102.27 80.35 106.45 79.37 C 105.61 80.54 104.86 81.80 103.77 82.77 C 101.32 83.15 98.77 83.20 96.32 82.75 C 95.39 81.74 94.54 80.67 93.77 79.53 Z" />
<path fill="#ff4b55" opacity="1.00" d=" M 82.27 88.43 C 84.24 85.69 87.41 84.28 90.47 83.11 C 86.89 87.46 82.90 92.14 82.78 98.10 C 81.90 103.98 84.16 109.56 87.06 114.53 C 77.75 109.75 75.92 96.30 82.27 88.43 Z" />
<path fill="#ff4b55" opacity="1.00" d=" M 109.94 83.18 C 119.08 85.59 123.81 96.46 120.85 105.10 C 119.75 109.23 116.64 112.40 113.06 114.55 C 116.01 109.60 118.36 103.96 117.38 98.08 C 116.97 92.31 113.63 87.40 109.94 83.18 Z" />
<path fill="#ff4b55" opacity="1.00" d=" M 97.08 85.82 C 98.74 84.19 101.37 83.15 102.67 85.68 C 103.55 94.71 102.40 103.85 102.76 112.92 C 107.03 109.06 110.18 103.74 110.36 97.88 C 110.92 93.19 109.12 88.76 107.43 84.50 C 112.25 87.98 114.58 94.11 114.07 99.95 C 114.24 106.84 109.99 112.98 104.53 116.82 C 107.18 117.03 109.86 117.39 112.30 118.50 C 108.88 119.13 105.39 119.19 101.92 119.02 C 101.38 119.77 100.85 120.53 100.31 121.28 C 97.48 117.32 92.00 119.96 88.01 118.52 C 90.39 117.29 93.07 117.02 95.71 116.86 C 89.87 112.90 85.72 106.24 85.94 99.05 C 85.64 93.98 88.03 89.25 91.27 85.51 C 91.60 85.41 92.25 85.21 92.58 85.11 C 87.50 94.15 89.42 106.49 97.54 113.14 C 97.66 104.03 97.13 94.93 97.08 85.82 Z" />
<path fill="#ff4b55" opacity="1.00" d=" M 11.95 134.19 C 18.30 135.11 24.89 136.54 31.16 134.33 C 36.01 136.06 41.17 135.48 46.19 135.05 C 46.63 134.81 47.52 134.34 47.97 134.10 C 53.74 135.61 59.89 136.31 65.65 134.33 C 70.59 136.07 75.82 135.43 80.91 135.04 C 81.33 134.81 82.18 134.36 82.60 134.13 C 88.31 135.61 94.42 136.33 100.09 134.30 C 105.64 136.31 111.57 135.56 117.19 134.35 C 122.91 135.73 128.92 135.81 134.64 134.36 C 140.30 135.80 146.25 135.75 151.92 134.38 C 157.54 135.47 163.45 136.33 168.97 134.31 C 175.17 136.52 181.71 135.22 187.98 134.15 C 187.95 135.35 187.89 136.54 187.83 137.74 C 186.58 140.84 187.16 144.15 188.13 147.23 C 186.38 153.05 180.68 156.01 175.74 158.75 C 156.68 169.67 137.71 180.76 118.63 191.65 C 113.58 194.62 108.66 197.87 103.17 200.00 L 97.12 200.00 C 92.85 198.57 89.10 196.01 85.21 193.81 C 63.23 181.12 41.26 168.41 19.25 155.76 C 15.57 153.69 12.76 150.23 11.75 146.10 C 13.24 145.51 13.23 144.95 11.72 144.40 C 11.93 143.72 12.33 142.35 12.53 141.66 C 13.11 140.34 12.59 138.94 12.30 137.63 C 12.16 136.48 12.05 135.34 11.95 134.19 M 24.48 138.20 C 25.68 138.66 28.08 139.57 29.28 140.03 C 27.86 140.40 26.45 141.10 24.94 140.87 C 23.20 140.72 23.30 138.50 22.51 137.43 C 19.95 137.31 17.38 137.38 14.82 137.49 C 14.68 140.60 14.67 143.74 15.24 146.82 C 16.52 144.13 16.10 140.97 17.57 138.36 C 18.16 141.13 17.53 144.36 19.45 146.69 C 19.85 143.93 20.01 141.15 20.47 138.40 C 21.89 141.01 21.51 144.12 22.63 146.84 C 22.97 145.46 23.31 144.09 23.63 142.71 C 25.84 142.62 28.05 142.54 30.26 142.40 C 30.26 140.72 30.26 139.04 30.25 137.35 C 28.28 137.21 26.31 137.44 24.48 138.20 M 49.43 137.57 C 49.14 140.59 49.16 143.64 49.68 146.64 C 51.50 144.27 50.93 141.09 51.62 138.35 C 53.00 140.99 52.46 144.16 53.79 146.84 C 54.36 144.01 53.99 140.92 55.55 138.36 C 56.04 141.15 55.64 144.23 57.23 146.73 C 57.44 145.75 57.84 143.81 58.04 142.83 C 60.31 142.66 62.58 142.50 64.85 142.25 C 64.86 140.71 64.86 139.17 64.87 137.63 C 62.86 137.21 60.82 137.31 58.98 138.29 C 60.15 138.69 62.48 139.49 63.65 139.89 C 62.06 140.48 60.39 140.83 58.73 141.14 C 58.26 139.96 57.74 138.81 57.16 137.69 C 54.72 136.67 51.98 137.53 49.43 137.57 M 100.90 137.55 C 101.07 139.41 101.29 141.27 101.60 143.12 C 103.22 142.83 104.85 142.53 106.47 142.22 C 105.16 141.33 103.83 140.43 102.52 139.54 C 103.41 139.41 105.17 139.14 106.06 139.01 C 107.81 139.20 108.01 141.24 108.82 142.45 C 111.24 142.58 113.80 143.18 116.12 142.17 C 117.08 140.40 116.41 138.37 115.33 136.84 C 115.13 137.81 114.75 139.74 114.55 140.71 C 113.23 140.78 111.91 140.84 110.58 140.91 C 109.77 139.80 109.74 137.79 108.15 137.42 C 105.75 137.00 103.31 137.41 100.90 137.55 M 118.45 137.45 C 118.47 140.16 116.76 144.48 119.61 146.16 C 120.00 143.55 120.12 140.91 120.57 138.32 C 121.99 140.98 121.44 144.17 122.82 146.85 C 123.33 143.99 123.14 140.95 124.55 138.32 C 124.99 141.13 125.19 143.97 125.52 146.79 C 126.24 145.46 126.91 144.10 127.56 142.74 C 129.60 142.62 131.72 142.77 133.69 142.10 C 133.89 140.70 133.91 139.30 133.74 137.91 C 132.03 136.85 130.00 137.43 128.16 137.69 C 129.57 138.73 131.10 139.59 132.55 140.57 C 130.80 140.71 129.05 140.84 127.30 140.96 C 127.17 140.14 126.91 138.48 126.78 137.66 C 124.02 137.27 121.22 137.30 118.45 137.45 M 146.23 137.46 C 144.56 140.34 149.57 137.72 146.23 137.46 M 162.66 138.28 C 163.71 138.67 165.80 139.45 166.84 139.84 C 165.23 140.73 163.39 140.90 161.59 141.05 C 161.47 140.14 161.23 138.31 161.11 137.39 C 158.33 137.34 155.55 137.35 152.77 137.44 C 152.57 140.59 152.60 143.77 153.29 146.87 C 154.42 144.12 154.20 141.03 155.41 138.31 C 155.91 141.07 156.10 143.88 156.52 146.67 C 158.62 144.43 157.80 141.09 158.54 138.35 C 159.80 141.03 159.64 144.08 160.53 146.87 C 160.91 145.49 161.28 144.11 161.64 142.73 C 163.84 142.64 166.04 142.53 168.24 142.37 C 168.27 140.70 168.29 139.04 168.31 137.38 C 166.37 137.24 164.41 137.34 162.66 138.28 M 169.96 137.83 C 169.74 139.31 169.30 141.31 170.83 142.28 C 172.22 143.69 174.07 142.43 175.56 141.93 C 174.08 141.09 172.61 140.28 171.17 139.40 C 172.96 139.24 174.76 139.14 176.57 139.05 C 176.65 139.90 176.81 141.59 176.90 142.43 C 179.78 142.66 182.68 142.60 185.56 142.47 C 185.43 140.66 185.28 138.86 185.09 137.06 C 184.43 138.34 183.68 139.56 182.85 140.73 C 181.42 140.87 179.99 140.80 178.57 140.78 C 178.57 139.97 178.56 138.34 178.55 137.53 C 175.70 137.24 172.75 137.05 169.96 137.83 M 31.63 137.65 C 32.18 139.22 31.49 141.69 33.31 142.56 C 34.71 143.52 36.26 142.35 37.63 141.95 C 36.11 141.11 34.58 140.31 33.07 139.44 C 34.93 139.27 36.79 139.14 38.66 139.03 C 38.74 139.89 38.91 141.61 39.00 142.47 C 41.89 142.63 44.80 142.62 47.69 142.55 C 47.54 140.74 47.35 138.93 47.11 137.13 C 46.48 138.34 45.79 139.51 45.04 140.65 C 43.62 140.83 42.19 140.80 40.76 140.82 C 40.67 139.97 40.49 138.27 40.40 137.42 C 37.47 137.22 34.54 137.37 31.63 137.65 M 66.34 137.52 C 66.59 139.28 65.99 141.94 68.12 142.75 C 69.43 143.54 70.77 142.22 72.04 141.94 C 70.50 141.14 68.95 140.37 67.42 139.55 C 69.28 139.33 71.16 139.14 73.03 138.96 C 73.24 140.15 73.45 141.35 73.66 142.54 C 76.29 142.62 78.94 142.77 81.56 142.45 C 82.71 140.62 81.67 138.50 81.25 136.63 C 80.64 138.11 80.05 139.61 79.48 141.11 C 76.91 141.09 74.55 140.46 74.32 137.42 C 71.66 137.31 69.00 137.36 66.34 137.52 M 83.81 137.47 C 83.68 140.58 83.69 143.71 84.24 146.79 C 85.67 144.13 85.13 140.93 86.63 138.31 C 87.07 141.06 87.24 143.85 87.60 146.62 C 89.52 144.31 88.88 141.08 89.58 138.35 C 90.93 140.95 90.67 143.98 91.10 146.80 C 91.69 145.44 92.25 144.06 92.81 142.69 C 94.96 142.62 97.11 142.55 99.26 142.42 C 99.27 140.73 99.28 139.04 99.28 137.36 C 97.36 137.34 95.44 137.49 93.57 137.96 C 95.17 138.79 96.80 139.63 98.39 140.50 C 96.68 140.65 94.95 140.95 93.23 140.74 C 92.48 139.72 91.88 138.61 91.43 137.41 C 88.89 137.34 86.35 137.37 83.81 137.47 M 135.31 137.49 C 135.58 139.08 134.77 141.44 136.52 142.42 C 137.92 143.56 139.75 142.34 141.27 142.24 C 139.66 141.27 138.03 140.35 136.46 139.33 C 139.24 138.94 142.91 138.55 143.28 142.35 C 145.73 142.56 148.45 143.39 150.71 141.97 C 150.97 140.55 151.17 139.13 151.31 137.70 L 149.30 137.66 C 149.30 138.40 149.30 139.87 149.30 140.61 C 147.69 140.73 146.07 140.83 144.45 140.93 C 144.36 140.10 144.17 138.44 144.07 137.61 C 141.16 137.25 138.23 137.29 135.31 137.49 M 24.22 145.64 C 32.13 146.34 40.24 146.67 48.10 145.49 C 47.23 144.81 46.17 144.35 45.04 144.43 C 40.69 144.27 36.35 144.39 32.00 144.33 C 29.38 144.40 26.53 144.12 24.22 145.64 M 58.93 145.82 C 66.85 146.32 74.83 146.39 82.74 145.77 C 81.70 144.85 80.44 144.28 79.03 144.40 C 74.37 144.30 69.70 144.41 65.03 144.35 C 62.93 144.40 60.55 144.12 58.93 145.82 M 93.23 145.72 C 101.14 146.47 109.13 146.23 117.05 145.88 C 115.55 144.04 113.11 144.41 111.03 144.34 C 106.32 144.42 101.62 144.24 96.92 144.41 C 95.55 144.34 94.34 145.01 93.23 145.72 M 127.94 145.80 C 135.85 146.32 143.83 146.39 151.73 145.77 C 150.66 144.94 149.42 144.33 148.03 144.43 C 142.65 144.30 137.26 144.31 131.88 144.41 C 130.42 144.33 129.06 144.86 127.94 145.80 M 162.21 145.72 C 170.14 146.41 178.16 146.33 186.09 145.78 C 182.92 143.33 178.66 144.73 174.98 144.35 C 170.76 144.70 166.02 143.36 162.21 145.72 Z" />
</g>
</svg>
