<?xml version="1.0" encoding="UTF-8" ?>
<!DOCTYPE svg PUBLIC "-//W3C//DTD SVG 1.1//EN" "http://www.w3.org/Graphics/SVG/1.1/DTD/svg11.dtd">
<svg width="510pt" height="547pt" viewBox="0 0 510 547" version="1.1" xmlns="http://www.w3.org/2000/svg">
<g id="#fffffeff">
<path fill="#fffffe" opacity="1.00" d=" M 336.42 149.19 C 337.79 142.21 341.28 135.90 344.65 129.71 C 344.44 138.39 343.77 147.06 343.55 155.75 C 343.25 166.29 341.52 177.02 336.42 186.39 C 333.95 190.70 331.20 195.35 326.68 197.75 C 322.40 198.35 318.02 192.67 313.87 195.86 C 311.07 197.66 308.71 200.03 306.17 202.16 C 282.78 222.20 253.98 235.47 223.95 241.88 C 208.09 245.36 191.60 245.58 175.54 243.46 C 164.56 241.83 152.80 238.42 145.41 229.59 C 140.78 224.33 140.67 217.00 138.51 210.73 C 135.16 215.99 132.69 221.79 128.96 226.82 C 120.71 227.15 113.38 231.04 105.81 233.86 C 111.12 228.64 118.04 225.54 123.49 220.50 C 128.08 216.41 132.51 212.00 135.65 206.66 C 140.20 199.08 142.88 190.59 145.15 182.10 C 145.72 179.55 147.46 177.55 148.66 175.30 C 148.45 183.76 144.69 192.00 146.49 200.51 C 147.81 208.48 154.30 214.36 161.26 217.75 C 170.61 222.29 180.97 224.47 191.27 225.48 C 213.91 226.78 236.86 224.32 258.53 217.53 C 277.11 211.40 295.23 202.91 310.43 190.43 C 312.78 188.72 315.11 186.65 318.06 186.14 C 322.13 186.35 325.71 189.11 329.79 189.02 C 333.57 187.07 335.02 182.57 335.43 178.60 C 336.20 168.82 335.07 158.94 336.42 149.19 Z" />
<path fill="#fffffe" opacity="1.00" d=" M 372.61 153.88 C 375.45 148.84 378.93 144.18 382.67 139.78 C 386.61 142.45 392.61 144.58 392.98 150.09 C 392.86 155.29 389.03 160.66 383.99 162.11 C 379.48 161.00 375.81 157.94 371.84 155.69 C 369.13 158.40 366.79 162.11 362.97 163.22 C 358.65 162.26 354.73 160.02 351.12 157.53 C 353.21 151.71 357.73 147.23 360.72 141.88 C 364.18 143.33 368.03 144.46 370.65 147.30 C 372.02 149.19 372.07 151.68 372.61 153.88 Z" />
<path fill="#fffffe" opacity="1.00" d=" M 243.61 185.67 C 245.73 173.13 241.60 159.50 247.76 147.73 C 247.70 154.83 246.79 161.90 246.79 169.01 C 246.67 177.19 246.48 185.90 242.07 193.09 C 239.08 198.07 234.17 202.87 227.97 202.73 C 223.53 202.88 219.67 199.21 218.95 194.94 C 217.88 189.10 220.19 183.38 222.44 178.10 C 221.43 177.16 220.44 176.23 219.44 175.29 C 221.38 173.72 223.59 172.52 226.02 171.91 C 225.22 177.96 219.79 182.66 220.66 189.00 C 220.88 193.14 225.28 195.32 228.97 195.37 C 235.18 195.81 242.39 192.24 243.61 185.67 Z" />
<path fill="#fffffe" opacity="1.00" d=" M 250.99 175.09 C 250.98 166.60 251.28 157.81 254.64 149.87 C 254.72 157.22 252.58 164.46 253.26 171.80 C 253.28 174.34 256.46 176.20 258.66 174.92 C 263.31 173.01 267.07 169.56 271.56 167.35 C 269.51 171.44 266.02 174.41 261.79 176.07 C 259.97 178.21 258.59 181.18 255.94 182.29 C 251.95 182.95 251.06 178.04 250.99 175.09 Z" />
<path fill="#fffffe" opacity="1.00" d=" M 209.91 163.53 C 212.44 160.49 214.67 156.44 219.31 156.98 C 217.10 158.75 213.50 159.91 212.89 162.91 C 215.34 165.02 217.95 162.31 220.41 161.58 C 218.19 165.14 215.18 168.16 211.24 169.78 C 211.46 174.00 211.57 178.24 211.31 182.47 C 209.56 176.90 207.31 171.49 204.95 166.15 C 203.83 164.10 204.98 161.86 205.37 159.78 C 206.87 161.03 208.32 162.38 209.91 163.53 Z" />
<path fill="#fffffe" opacity="1.00" d=" M 194.03 159.44 C 198.89 166.05 200.43 174.50 199.44 182.54 C 197.63 176.90 195.50 171.36 193.10 165.95 C 191.82 163.79 193.40 161.53 194.03 159.44 Z" />
<path fill="#fffffe" opacity="1.00" d=" M 233.32 171.37 C 236.28 172.33 236.73 175.21 236.96 177.92 C 235.07 177.58 233.18 177.27 231.35 176.69 C 231.85 174.86 232.62 173.13 233.32 171.37 Z" />
<path fill="#fffffe" opacity="1.00" d=" M 357.21 195.17 C 358.85 189.56 361.65 184.37 364.77 179.46 C 366.14 190.38 365.42 202.02 359.70 211.70 C 356.67 218.05 350.18 221.91 347.39 228.40 C 344.94 233.78 342.62 239.31 338.95 244.01 C 337.43 246.15 334.67 246.59 332.35 247.36 C 327.05 248.81 321.94 250.87 316.59 252.11 C 324.55 245.21 335.19 241.61 341.44 232.75 C 337.54 232.73 332.60 233.69 329.90 230.07 C 327.91 227.95 328.10 224.79 329.34 222.35 C 331.41 217.93 333.63 213.51 336.53 209.57 C 338.21 207.08 341.92 207.39 344.13 208.95 C 346.90 211.05 348.40 214.28 350.20 217.16 C 352.14 215.10 354.39 213.21 355.66 210.63 C 357.04 205.59 355.70 200.20 357.21 195.17 Z" />
<path fill="#fffffe" opacity="1.00" d=" M 236.25 256.25 C 240.26 257.00 244.10 259.18 246.61 262.42 C 248.81 265.51 247.28 269.60 245.35 272.42 C 243.28 275.31 240.68 278.36 237.05 279.14 C 232.98 277.71 229.34 275.36 225.53 273.40 C 223.16 276.99 221.13 281.47 216.88 283.17 C 211.90 282.95 207.28 280.33 203.16 277.69 C 205.49 271.53 210.12 266.63 213.36 260.97 C 218.61 262.61 223.82 265.08 226.71 270.01 C 229.99 265.49 232.47 260.38 236.25 256.25 Z" />
<path fill="#fffffe" opacity="1.00" d=" M 364.88 308.11 C 367.09 305.02 369.42 302.03 371.85 299.11 C 373.73 300.67 375.81 302.11 377.18 304.19 C 377.63 307.35 375.23 310.22 372.69 311.79 C 369.72 311.67 367.35 309.52 364.88 308.11 Z" />
<path fill="#fffffe" opacity="1.00" d=" M 79.78 323.02 C 80.96 315.07 84.56 307.63 88.88 300.92 C 87.53 306.96 83.01 313.16 85.66 319.42 C 86.85 322.20 89.99 321.04 92.29 321.02 C 89.33 326.76 85.04 331.91 83.16 338.15 C 82.10 340.88 84.15 343.11 85.06 345.50 C 86.52 344.25 87.89 342.90 89.27 341.56 C 92.56 344.01 90.97 348.41 89.29 351.33 C 87.82 354.02 84.88 355.27 82.34 356.70 C 78.96 363.25 75.84 370.50 76.76 378.04 C 77.17 382.49 81.13 385.77 85.33 386.57 C 93.20 388.11 101.59 384.81 106.73 378.76 C 107.96 377.21 109.22 375.36 108.98 373.29 C 106.72 370.66 102.80 369.73 101.01 366.79 C 99.76 358.06 107.29 351.32 108.30 342.98 C 108.19 338.88 105.66 335.30 105.38 331.23 C 105.80 328.14 107.43 325.37 109.04 322.75 C 111.67 326.93 113.50 331.89 112.81 336.89 C 111.84 344.03 106.61 349.71 105.35 356.76 C 107.50 359.22 110.48 360.95 112.29 363.70 C 113.30 368.04 111.98 372.53 110.64 376.66 C 107.79 384.55 102.68 392.18 94.98 395.98 C 90.47 398.03 84.95 398.72 80.35 396.59 C 76.52 394.67 74.14 390.63 73.57 386.47 C 72.51 378.88 74.03 371.07 77.20 364.14 C 78.22 361.67 79.60 359.30 80.12 356.66 C 79.90 352.80 77.54 349.19 78.33 345.25 C 78.88 340.56 82.01 336.72 83.04 332.20 C 81.90 329.14 78.98 326.57 79.78 323.02 Z" />
<path fill="#fffffe" opacity="1.00" d=" M 185.82 309.64 C 187.48 306.42 188.87 302.74 192.01 300.66 C 194.15 301.38 196.33 302.52 197.56 304.50 C 198.28 307.19 196.65 309.93 194.64 311.63 C 191.98 314.26 188.60 310.45 185.82 309.64 Z" />
<path fill="#fffffe" opacity="1.00" d=" M 263.57 302.43 C 264.98 301.11 267.00 302.85 268.19 303.76 C 271.73 306.58 269.53 312.41 265.82 313.94 C 262.96 314.02 260.51 312.09 258.77 310.00 C 259.75 307.15 261.34 304.47 263.57 302.43 Z" />
<path fill="#fffffe" opacity="1.00" d=" M 236.95 324.02 C 237.67 316.65 240.89 309.73 244.91 303.59 C 243.90 309.01 239.76 315.41 243.55 320.53 C 244.97 322.87 247.40 320.86 249.51 320.94 C 246.69 326.57 242.75 331.65 240.59 337.59 C 239.23 340.64 241.12 343.47 242.47 346.11 C 243.65 344.59 244.83 343.06 246.00 341.53 C 246.84 342.69 247.97 343.70 248.47 345.09 C 248.57 350.58 244.54 355.19 239.54 357.01 C 236.17 363.42 233.10 370.54 233.87 377.95 C 234.19 381.51 236.55 384.77 239.90 386.06 C 245.78 388.42 252.71 387.35 257.98 383.96 C 261.66 381.63 265.43 378.53 266.44 374.08 C 264.27 371.32 260.81 370.03 258.33 367.60 C 256.58 359.61 263.14 353.14 264.97 345.78 C 266.30 341.78 264.01 337.93 263.01 334.15 C 261.54 330.20 264.58 326.55 266.11 323.13 C 268.33 327.05 270.56 331.33 270.13 336.00 C 269.70 343.60 263.93 349.49 262.70 356.87 C 264.61 359.68 268.19 361.22 269.49 364.42 C 270.49 372.85 267.07 381.34 261.91 387.90 C 258.31 392.38 253.78 396.73 247.95 397.87 C 243.50 398.68 238.38 398.26 234.89 395.10 C 231.90 392.47 230.72 388.42 230.44 384.57 C 229.86 376.56 232.20 368.65 235.62 361.49 C 236.31 359.59 237.64 357.63 237.04 355.54 C 236.44 352.15 234.66 348.81 235.51 345.31 C 236.46 340.75 238.71 336.63 240.62 332.43 C 238.84 329.94 236.47 327.34 236.95 324.02 Z" />
<path fill="#fffffe" opacity="1.00" d=" M 207.03 321.07 C 207.75 315.39 209.40 309.86 211.94 304.74 C 211.87 313.24 209.37 321.51 209.26 330.01 C 208.93 332.63 210.84 334.59 212.37 336.45 C 213.52 334.80 214.67 333.16 215.84 331.53 C 216.29 333.83 217.65 336.20 216.62 338.55 C 215.49 341.78 213.48 345.41 209.91 346.28 C 206.93 346.62 205.42 343.36 205.25 340.87 C 204.64 334.21 206.20 327.63 207.03 321.07 Z" />
<path fill="#fffffe" opacity="1.00" d=" M 334.79 311.88 C 336.85 313.23 339.48 314.12 340.78 316.34 C 341.31 319.46 339.27 323.32 336.03 323.94 C 333.76 323.33 331.62 322.26 329.30 321.91 C 327.34 322.73 325.71 324.15 323.81 325.08 C 321.25 324.85 318.93 323.60 316.57 322.70 C 318.32 319.43 319.85 315.77 323.03 313.60 C 326.02 314.09 327.85 316.70 329.92 318.64 C 331.53 316.37 333.16 314.13 334.79 311.88 Z" />
<path fill="#fffffe" opacity="1.00" d=" M 378.31 311.75 C 380.20 313.17 382.37 314.38 383.74 316.36 C 384.41 319.56 382.32 323.48 378.95 324.01 C 376.58 323.53 374.43 322.39 372.26 321.38 C 370.56 322.75 368.87 324.16 366.93 325.19 C 364.28 325.07 361.88 323.74 359.99 321.95 C 361.23 318.69 363.28 315.64 366.13 313.58 C 369.05 314.09 370.85 316.69 372.86 318.62 C 374.67 316.32 376.48 314.03 378.31 311.75 Z" />
<path fill="#fffffe" opacity="1.00" d=" M 122.27 329.96 C 122.72 324.80 125.35 320.24 127.89 315.87 C 126.96 324.33 126.51 332.86 125.27 341.29 C 124.59 346.37 122.23 350.99 119.43 355.22 C 121.15 346.89 121.71 338.42 122.27 329.96 Z" />
<path fill="#fffffe" opacity="1.00" d=" M 428.39 323.33 C 429.67 320.40 431.82 317.99 433.99 315.68 C 431.91 327.03 424.43 336.52 416.21 344.23 C 399.86 358.48 378.57 366.55 357.03 368.09 C 349.54 368.66 341.94 368.74 334.53 367.43 C 329.97 366.67 326.03 364.11 322.33 361.50 C 319.97 364.05 317.83 366.89 314.96 368.89 C 312.47 369.76 309.63 369.21 307.28 370.53 C 304.93 371.80 302.56 373.13 299.87 373.50 C 293.90 374.08 293.26 382.27 287.65 383.62 C 284.35 384.25 281.46 381.46 280.66 378.45 C 278.87 372.10 279.73 365.41 280.17 358.94 C 281.20 348.71 281.82 338.02 286.88 328.81 C 286.14 341.54 282.56 354.13 283.81 366.95 C 284.02 370.98 288.13 373.74 291.96 373.27 C 294.81 372.37 297.01 370.16 299.79 369.08 C 301.83 368.52 303.97 368.46 306.06 368.09 C 307.17 364.10 307.91 360.01 309.12 356.04 C 310.44 358.31 310.65 362.45 313.99 362.61 C 319.46 363.14 321.53 356.94 325.35 354.26 C 330.09 354.20 334.57 356.11 339.24 356.73 C 348.45 358.12 357.84 357.99 367.13 357.42 C 379.94 356.63 392.29 352.43 403.74 346.77 C 410.41 343.43 416.72 339.26 422.21 334.20 C 425.44 331.35 426.66 327.12 428.39 323.33 Z" />
<path fill="#fffffe" opacity="1.00" d=" M 153.86 329.51 C 155.54 326.19 157.14 322.64 160.04 320.18 C 162.69 321.16 165.78 322.96 166.13 326.06 C 166.00 328.82 164.52 331.86 161.83 332.92 C 158.89 332.64 156.42 330.80 153.86 329.51 Z" />
<path fill="#fffffe" opacity="1.00" d=" M 190.44 335.10 C 190.76 331.24 192.63 327.81 194.77 324.68 C 196.25 333.88 192.62 343.52 185.18 349.19 C 181.36 352.13 175.84 348.95 172.01 351.96 C 166.46 355.91 162.26 361.81 160.34 368.34 C 158.90 373.43 159.17 379.82 163.55 383.42 C 169.86 388.78 179.19 388.68 186.48 385.51 C 192.81 382.99 197.27 377.68 202.02 373.06 C 197.73 381.81 191.56 390.04 183.00 394.97 C 177.98 397.78 171.89 399.01 166.26 397.54 C 160.19 395.86 155.49 390.09 155.40 383.73 C 155.08 374.11 158.09 364.41 163.50 356.48 C 166.29 352.24 170.91 349.73 173.94 345.72 C 174.91 342.72 170.68 342.11 168.89 340.89 C 171.09 339.12 173.01 336.37 176.11 336.37 C 178.57 336.21 181.44 337.08 182.56 339.49 C 182.56 341.97 181.91 344.39 181.44 346.82 C 183.38 345.97 185.40 345.28 187.24 344.21 C 190.06 342.11 189.78 338.19 190.44 335.10 Z" />
<path fill="#fffffe" opacity="1.00" d=" M 137.57 328.43 C 139.76 330.17 142.70 331.49 143.60 334.37 C 145.47 339.83 143.11 345.66 140.23 350.31 C 137.47 354.94 131.70 355.81 126.92 357.03 C 130.93 353.56 136.08 351.24 139.13 346.78 C 139.90 342.80 135.35 340.82 133.63 337.83 C 134.27 334.47 136.15 331.50 137.57 328.43 Z" />
<path fill="#fffffe" opacity="1.00" d=" M 144.39 360.35 C 149.02 357.21 151.67 352.15 155.07 347.87 C 153.35 353.51 151.13 359.51 146.35 363.26 C 142.47 365.22 138.05 365.65 133.86 366.60 C 137.37 364.52 141.00 362.62 144.39 360.35 Z" />
<path fill="#fffffe" opacity="1.00" d=" M 220.04 375.72 C 217.13 373.42 218.92 369.78 219.37 366.77 C 219.60 368.06 219.82 369.36 220.04 370.67 C 221.20 370.61 222.35 370.57 223.51 370.55 C 222.35 372.27 221.22 374.01 220.04 375.72 Z" />
<path fill="#fffffe" opacity="1.00" d=" M 397.03 383.94 C 399.03 381.53 401.03 379.12 403.04 376.72 C 404.73 378.18 406.55 379.54 407.94 381.32 C 408.57 384.32 406.74 387.92 403.87 389.03 C 401.21 388.81 398.83 387.47 396.44 386.42 C 394.92 388.25 393.50 390.19 391.68 391.73 C 388.94 391.65 386.54 390.01 384.72 388.08 C 386.06 384.89 388.21 382.03 390.97 379.95 C 393.13 381.05 395.06 382.53 397.03 383.94 Z" />
<path fill="#fffffe" opacity="1.00" d=" M 131.41 389.15 C 133.23 386.97 135.00 384.70 137.26 382.95 C 140.06 382.99 142.79 385.19 142.99 388.06 C 143.01 390.37 141.55 392.46 139.79 393.85 C 136.99 396.21 134.06 392.27 131.10 392.01 C 129.12 393.37 127.51 395.19 125.57 396.61 C 122.83 396.33 120.64 394.42 118.30 393.15 C 120.32 390.14 122.27 386.98 125.07 384.62 C 127.37 385.84 129.39 387.51 131.41 389.15 Z" />
<path fill="#fffffe" opacity="1.00" d=" M 341.49 386.27 C 344.35 385.89 347.14 388.44 347.72 391.14 C 347.70 393.61 346.02 395.75 344.23 397.29 C 341.51 399.90 338.71 395.76 335.95 395.16 C 333.90 396.74 331.98 398.51 329.78 399.90 C 327.22 399.86 325.02 398.11 323.69 396.03 C 324.89 393.04 326.72 390.21 329.29 388.23 C 332.16 388.42 333.90 391.07 335.94 392.76 C 337.59 390.44 339.36 388.17 341.49 386.27 Z" />
<path fill="#fffffe" opacity="1.00" d=" M 294.81 397.21 C 296.66 394.16 298.42 390.97 301.09 388.55 C 303.58 389.16 306.43 390.43 307.17 393.15 C 307.34 396.17 305.64 399.41 302.77 400.59 C 299.88 400.13 297.37 398.52 294.81 397.21 Z" />
<path fill="#fffffe" opacity="1.00" d=" M 397.26 390.59 C 399.19 392.05 401.36 393.33 402.79 395.35 C 403.51 398.81 401.06 402.27 397.91 403.54 C 395.42 402.64 393.24 401.11 391.00 399.75 C 393.06 396.68 395.13 393.62 397.26 390.59 Z" />
</g>
<g id="#c7a776ff">
<path fill="#c7a776" opacity="1.00" d=" M 247.37 21.45 C 254.77 19.85 262.72 21.01 269.31 24.77 C 330.83 60.21 392.27 95.79 453.80 131.21 C 460.54 135.23 468.14 138.54 472.88 145.07 C 477.23 150.72 479.17 157.90 479.08 164.97 C 479.04 235.32 479.06 305.66 479.06 376.00 C 479.07 385.11 479.98 394.93 475.04 403.08 C 470.77 411.17 462.33 415.40 454.67 419.66 C 395.75 453.75 336.70 487.63 277.80 521.77 C 272.57 524.73 267.47 528.16 261.60 529.69 C 253.84 531.72 245.40 530.39 238.44 526.49 C 178.67 491.92 118.82 457.49 59.04 422.94 C 52.47 418.87 45.23 415.79 39.31 410.75 C 32.49 404.93 28.76 395.96 28.93 387.04 C 28.96 317.02 28.93 247.01 28.94 177.00 C 28.98 171.06 28.63 165.10 29.34 159.19 C 30.36 150.80 35.26 143.05 42.21 138.30 C 46.86 135.16 51.88 132.64 56.70 129.78 C 114.03 96.75 171.31 63.63 228.62 30.58 C 234.68 27.20 240.46 22.93 247.37 21.45 M 250.39 30.46 C 244.10 32.11 238.88 36.19 233.24 39.24 C 183.68 67.68 134.35 96.48 84.75 124.84 C 74.65 130.75 64.63 136.79 54.36 142.41 C 48.88 145.57 42.56 148.82 40.14 155.09 C 38.21 160.85 39.12 167.04 39.02 173.00 C 39.04 245.35 39.04 317.71 39.01 390.05 C 39.13 394.01 40.23 398.08 42.94 401.08 C 46.50 405.07 51.50 407.24 56.03 409.90 C 119.03 446.24 182.00 482.64 245.03 518.93 C 250.98 522.28 258.50 521.84 264.25 518.27 C 326.93 481.90 389.87 445.97 452.48 409.50 C 458.18 406.23 465.21 403.41 467.72 396.79 C 469.87 390.42 468.87 383.58 469.00 377.00 C 469.00 305.32 468.95 233.63 469.03 161.96 C 468.92 158.90 468.60 155.70 466.96 153.04 C 464.74 149.29 461.02 146.80 457.37 144.59 C 395.20 108.82 333.12 72.88 271.00 37.02 C 264.81 33.36 257.98 28.58 250.39 30.46 Z" />
<path fill="#c7a776" opacity="1.00" d=" M 238.45 38.37 C 243.32 35.62 248.09 31.75 253.98 31.85 C 260.59 31.96 265.91 36.39 271.43 39.46 C 331.46 74.10 391.53 108.67 451.51 143.39 C 456.87 146.42 463.14 149.24 465.86 155.16 C 467.91 160.17 467.24 165.72 467.31 171.00 C 467.27 189.01 467.19 207.01 467.38 225.02 C 467.31 227.19 467.33 229.44 466.59 231.51 C 463.43 234.30 459.50 236.03 455.73 237.83 C 452.65 239.43 449.13 238.82 445.86 238.41 C 445.25 240.57 444.58 242.72 444.24 244.95 C 446.41 246.11 448.83 246.65 451.21 247.25 C 452.35 244.88 453.09 242.05 455.37 240.47 C 458.94 237.95 463.05 236.39 466.99 234.56 C 467.65 260.70 467.10 286.85 467.28 313.00 C 467.28 337.67 467.26 362.34 467.30 387.01 C 467.24 391.64 466.91 396.88 463.31 400.27 C 458.70 404.66 452.75 407.21 447.34 410.42 C 389.20 443.90 331.21 477.64 273.01 511.02 C 267.23 514.18 261.79 518.71 255.01 519.39 C 248.39 519.96 242.96 515.55 237.53 512.47 C 177.14 477.92 117.12 442.73 56.68 408.25 C 51.36 405.21 45.09 402.47 42.33 396.61 C 40.13 391.37 40.84 385.53 40.73 380.00 C 40.76 307.99 40.75 235.98 40.74 163.97 C 40.81 159.84 41.10 155.27 44.03 152.05 C 48.28 147.35 54.25 144.82 59.54 141.54 C 119.22 107.22 178.79 72.73 238.45 38.37 M 285.33 89.38 C 281.74 91.67 277.27 91.13 273.34 92.36 C 269.73 93.88 266.58 96.25 263.20 98.17 C 250.99 105.31 238.86 112.57 226.60 119.60 C 223.23 121.23 221.84 124.81 220.63 128.09 C 224.17 128.81 228.09 129.42 231.28 127.24 C 246.03 118.72 260.60 109.87 275.43 101.46 C 280.21 98.98 281.78 93.00 286.66 90.64 C 298.17 84.20 309.42 77.34 320.84 70.75 C 320.60 70.31 320.10 69.42 319.85 68.98 C 308.30 75.70 296.70 82.36 285.33 89.38 M 155.10 119.82 C 154.37 122.46 153.65 125.11 152.93 127.76 C 155.63 128.24 158.34 128.71 161.04 129.18 C 161.39 126.89 161.84 124.60 161.86 122.28 C 159.69 121.25 157.38 120.57 155.10 119.82 M 140.60 129.93 C 137.19 131.11 134.27 133.32 131.17 135.12 C 121.28 140.96 111.34 146.72 101.43 152.51 C 98.49 154.01 97.00 157.48 98.34 160.59 C 103.23 162.39 107.84 159.30 111.85 156.87 C 121.59 150.84 131.62 145.31 141.45 139.44 C 144.75 137.70 146.25 134.18 147.51 130.88 C 145.24 130.45 142.92 129.50 140.60 129.93 M 336.42 149.19 C 335.07 158.94 336.20 168.82 335.43 178.60 C 335.02 182.57 333.57 187.07 329.79 189.02 C 325.71 189.11 322.13 186.35 318.06 186.14 C 315.11 186.65 312.78 188.72 310.43 190.43 C 295.23 202.91 277.11 211.40 258.53 217.53 C 236.86 224.32 213.91 226.78 191.27 225.48 C 180.97 224.47 170.61 222.29 161.26 217.75 C 154.30 214.36 147.81 208.48 146.49 200.51 C 144.69 192.00 148.45 183.76 148.66 175.30 C 147.46 177.55 145.72 179.55 145.15 182.10 C 142.88 190.59 140.20 199.08 135.65 206.66 C 132.51 212.00 128.08 216.41 123.49 220.50 C 118.04 225.54 111.12 228.64 105.81 233.86 C 113.38 231.04 120.71 227.15 128.96 226.82 C 132.69 221.79 135.16 215.99 138.51 210.73 C 140.67 217.00 140.78 224.33 145.41 229.59 C 152.80 238.42 164.56 241.83 175.54 243.46 C 191.60 245.58 208.09 245.36 223.95 241.88 C 253.98 235.47 282.78 222.20 306.17 202.16 C 308.71 200.03 311.07 197.66 313.87 195.86 C 318.02 192.67 322.40 198.35 326.68 197.75 C 331.20 195.35 333.95 190.70 336.42 186.39 C 341.52 177.02 343.25 166.29 343.55 155.75 C 343.77 147.06 344.44 138.39 344.65 129.71 C 341.28 135.90 337.79 142.21 336.42 149.19 M 372.61 153.88 C 372.07 151.68 372.02 149.19 370.65 147.30 C 368.03 144.46 364.18 143.33 360.72 141.88 C 357.73 147.23 353.21 151.71 351.12 157.53 C 354.73 160.02 358.65 162.26 362.97 163.22 C 366.79 162.11 369.13 158.40 371.84 155.69 C 375.81 157.94 379.48 161.00 383.99 162.11 C 389.03 160.66 392.86 155.29 392.98 150.09 C 392.61 144.58 386.61 142.45 382.67 139.78 C 378.93 144.18 375.45 148.84 372.61 153.88 M 243.61 185.67 C 242.39 192.24 235.18 195.81 228.97 195.37 C 225.28 195.32 220.88 193.14 220.66 189.00 C 219.79 182.66 225.22 177.96 226.02 171.91 C 223.59 172.52 221.38 173.72 219.44 175.29 C 220.44 176.23 221.43 177.16 222.44 178.10 C 220.19 183.38 217.88 189.10 218.95 194.94 C 219.67 199.21 223.53 202.88 227.97 202.73 C 234.17 202.87 239.08 198.07 242.07 193.09 C 246.48 185.90 246.67 177.19 246.79 169.01 C 246.79 161.90 247.70 154.83 247.76 147.73 C 241.60 159.50 245.73 173.13 243.61 185.67 M 250.99 175.09 C 251.06 178.04 251.95 182.95 255.94 182.29 C 258.59 181.18 259.97 178.21 261.79 176.07 C 266.02 174.41 269.51 171.44 271.56 167.35 C 267.07 169.56 263.31 173.01 258.66 174.92 C 256.46 176.20 253.28 174.34 253.26 171.80 C 252.58 164.46 254.72 157.22 254.64 149.87 C 251.28 157.81 250.98 166.60 250.99 175.09 M 209.91 163.53 C 208.32 162.38 206.87 161.03 205.37 159.78 C 204.98 161.86 203.83 164.10 204.95 166.15 C 207.31 171.49 209.56 176.90 211.31 182.47 C 211.57 178.24 211.46 174.00 211.24 169.78 C 215.18 168.16 218.19 165.14 220.41 161.58 C 217.95 162.31 215.34 165.02 212.89 162.91 C 213.50 159.91 217.10 158.75 219.31 156.98 C 214.67 156.44 212.44 160.49 209.91 163.53 M 194.03 159.44 C 193.40 161.53 191.82 163.79 193.10 165.95 C 195.50 171.36 197.63 176.90 199.44 182.54 C 200.43 174.50 198.89 166.05 194.03 159.44 M 233.32 171.37 C 232.62 173.13 231.85 174.86 231.35 176.69 C 233.18 177.27 235.07 177.58 236.96 177.92 C 236.73 175.21 236.28 172.33 233.32 171.37 M 357.21 195.17 C 355.70 200.20 357.04 205.59 355.66 210.63 C 354.39 213.21 352.14 215.10 350.20 217.16 C 348.40 214.28 346.90 211.05 344.13 208.95 C 341.92 207.39 338.21 207.08 336.53 209.57 C 333.63 213.51 331.41 217.93 329.34 222.35 C 328.10 224.79 327.91 227.95 329.90 230.07 C 332.60 233.69 337.54 232.73 341.44 232.75 C 335.19 241.61 324.55 245.21 316.59 252.11 C 321.94 250.87 327.05 248.81 332.35 247.36 C 334.67 246.59 337.43 246.15 338.95 244.01 C 342.62 239.31 344.94 233.78 347.39 228.40 C 350.18 221.91 356.67 218.05 359.70 211.70 C 365.42 202.02 366.14 190.38 364.77 179.46 C 361.65 184.37 358.85 189.56 357.21 195.17 M 74.30 213.34 C 71.12 215.02 67.43 214.45 64.00 214.23 C 63.64 216.56 63.43 218.93 63.61 221.30 C 65.76 222.06 68.01 222.48 70.23 223.00 C 71.21 220.57 71.63 217.57 73.99 216.03 C 80.55 211.28 88.74 209.06 94.47 203.15 C 87.07 205.11 81.05 209.99 74.30 213.34 M 294.91 237.89 C 288.08 242.16 280.96 245.94 274.12 250.18 C 271.74 251.37 271.28 254.11 270.39 256.35 C 275.67 255.97 280.31 253.44 284.58 250.53 C 291.09 246.13 299.35 243.73 303.70 236.72 C 300.71 236.15 297.50 236.00 294.91 237.89 M 423.12 253.04 C 412.54 259.57 401.67 265.64 390.96 271.95 C 387.03 274.31 382.76 276.22 379.32 279.30 C 377.89 280.36 377.90 282.26 377.81 283.86 C 379.05 284.41 380.37 285.25 381.79 284.75 C 386.80 283.32 390.91 279.92 395.44 277.48 C 406.13 271.60 416.41 265.02 427.06 259.09 C 430.01 257.72 431.33 254.69 432.45 251.85 C 429.30 251.41 425.87 251.10 423.12 253.04 M 236.25 256.25 C 232.47 260.38 229.99 265.49 226.71 270.01 C 223.82 265.08 218.61 262.61 213.36 260.97 C 210.12 266.63 205.49 271.53 203.16 277.69 C 207.28 280.33 211.90 282.95 216.88 283.17 C 221.13 281.47 223.16 276.99 225.53 273.40 C 229.34 275.36 232.98 277.71 237.05 279.14 C 240.68 278.36 243.28 275.31 245.35 272.42 C 247.28 269.60 248.81 265.51 246.61 262.42 C 244.10 259.18 240.26 257.00 236.25 256.25 M 104.76 267.69 C 100.54 269.21 96.80 271.77 92.94 274.00 C 85.69 278.52 78.13 282.50 70.77 286.80 C 67.87 288.18 67.21 291.44 66.42 294.23 C 69.34 294.47 72.50 294.86 75.10 293.18 C 85.06 287.42 94.93 281.51 105.08 276.10 C 108.20 274.61 110.02 271.60 111.63 268.70 C 109.42 268.08 107.06 266.80 104.76 267.69 M 319.34 281.48 C 316.39 283.11 313.01 282.05 309.93 281.51 C 309.54 283.97 309.14 286.43 308.74 288.90 C 310.94 289.52 313.14 290.14 315.34 290.76 C 316.44 288.24 317.11 285.16 319.66 283.65 C 326.48 279.23 334.47 276.62 340.41 270.88 C 332.59 272.71 326.42 278.05 319.34 281.48 M 161.63 296.63 C 159.21 297.86 157.97 300.33 156.48 302.46 C 157.95 302.86 159.43 303.28 160.91 303.68 C 165.55 300.59 170.56 298.13 175.35 295.28 C 177.89 293.93 179.21 291.28 180.49 288.85 C 173.26 288.50 167.56 293.30 161.63 296.63 M 364.88 308.11 C 367.35 309.52 369.72 311.67 372.69 311.79 C 375.23 310.22 377.63 307.35 377.18 304.19 C 375.81 302.11 373.73 300.67 371.85 299.11 C 369.42 302.03 367.09 305.02 364.88 308.11 M 79.78 323.02 C 78.98 326.57 81.90 329.14 83.04 332.20 C 82.01 336.72 78.88 340.56 78.33 345.25 C 77.54 349.19 79.90 352.80 80.12 356.66 C 79.60 359.30 78.22 361.67 77.20 364.14 C 74.03 371.07 72.51 378.88 73.57 386.47 C 74.14 390.63 76.52 394.67 80.35 396.59 C 84.95 398.72 90.47 398.03 94.98 395.98 C 102.68 392.18 107.79 384.55 110.64 376.66 C 111.98 372.53 113.30 368.04 112.29 363.70 C 110.48 360.95 107.50 359.22 105.35 356.76 C 106.61 349.71 111.84 344.03 112.81 336.89 C 113.50 331.89 111.67 326.93 109.04 322.75 C 107.43 325.37 105.80 328.14 105.38 331.23 C 105.66 335.30 108.19 338.88 108.30 342.98 C 107.29 351.32 99.76 358.06 101.01 366.79 C 102.80 369.73 106.72 370.66 108.98 373.29 C 109.22 375.36 107.96 377.21 106.73 378.76 C 101.59 384.81 93.20 388.11 85.33 386.57 C 81.13 385.77 77.17 382.49 76.76 378.04 C 75.84 370.50 78.96 363.25 82.34 356.70 C 84.88 355.27 87.82 354.02 89.29 351.33 C 90.97 348.41 92.56 344.01 89.27 341.56 C 87.89 342.90 86.52 344.25 85.06 345.50 C 84.15 343.11 82.10 340.88 83.16 338.15 C 85.04 331.91 89.33 326.76 92.29 321.02 C 89.99 321.04 86.85 322.20 85.66 319.42 C 83.01 313.16 87.53 306.96 88.88 300.92 C 84.56 307.63 80.96 315.07 79.78 323.02 M 185.82 309.64 C 188.60 310.45 191.98 314.26 194.64 311.63 C 196.65 309.93 198.28 307.19 197.56 304.50 C 196.33 302.52 194.15 301.38 192.01 300.66 C 188.87 302.74 187.48 306.42 185.82 309.64 M 263.57 302.43 C 261.34 304.47 259.75 307.15 258.77 310.00 C 260.51 312.09 262.96 314.02 265.82 313.94 C 269.53 312.41 271.73 306.58 268.19 303.76 C 267.00 302.85 264.98 301.11 263.57 302.43 M 236.95 324.02 C 236.47 327.34 238.84 329.94 240.62 332.43 C 238.71 336.63 236.46 340.75 235.51 345.31 C 234.66 348.81 236.44 352.15 237.04 355.54 C 237.64 357.63 236.31 359.59 235.62 361.49 C 232.20 368.65 229.86 376.56 230.44 384.57 C 230.72 388.42 231.90 392.47 234.89 395.10 C 238.38 398.26 243.50 398.68 247.95 397.87 C 253.78 396.73 258.31 392.38 261.91 387.90 C 267.07 381.34 270.49 372.85 269.49 364.42 C 268.19 361.22 264.61 359.68 262.70 356.87 C 263.93 349.49 269.70 343.60 270.13 336.00 C 270.56 331.33 268.33 327.05 266.11 323.13 C 264.58 326.55 261.54 330.20 263.01 334.15 C 264.01 337.93 266.30 341.78 264.97 345.78 C 263.14 353.14 256.58 359.61 258.33 367.60 C 260.81 370.03 264.27 371.32 266.44 374.08 C 265.43 378.53 261.66 381.63 257.98 383.96 C 252.71 387.35 245.78 388.42 239.90 386.06 C 236.55 384.77 234.19 381.51 233.87 377.95 C 233.10 370.54 236.17 363.42 239.54 357.01 C 244.54 355.19 248.57 350.58 248.47 345.09 C 247.97 343.70 246.84 342.69 246.00 341.53 C 244.83 343.06 243.65 344.59 242.47 346.11 C 241.12 343.47 239.23 340.64 240.59 337.59 C 242.75 331.65 246.69 326.57 249.51 320.94 C 247.40 320.86 244.97 322.87 243.55 320.53 C 239.76 315.41 243.90 309.01 244.91 303.59 C 240.89 309.73 237.67 316.65 236.95 324.02 M 207.03 321.07 C 206.20 327.63 204.64 334.21 205.25 340.87 C 205.42 343.36 206.93 346.62 209.91 346.28 C 213.48 345.41 215.49 341.78 216.62 338.55 C 217.65 336.20 216.29 333.83 215.84 331.53 C 214.67 333.16 213.52 334.80 212.37 336.45 C 210.84 334.59 208.93 332.63 209.26 330.01 C 209.37 321.51 211.87 313.24 211.94 304.74 C 209.40 309.86 207.75 315.39 207.03 321.07 M 334.79 311.88 C 333.16 314.13 331.53 316.37 329.92 318.64 C 327.85 316.70 326.02 314.09 323.03 313.60 C 319.85 315.77 318.32 319.43 316.57 322.70 C 318.93 323.60 321.25 324.85 323.81 325.08 C 325.71 324.15 327.34 322.73 329.30 321.91 C 331.62 322.26 333.76 323.33 336.03 323.94 C 339.27 323.32 341.31 319.46 340.78 316.34 C 339.48 314.12 336.85 313.23 334.79 311.88 M 378.31 311.75 C 376.48 314.03 374.67 316.32 372.86 318.62 C 370.85 316.69 369.05 314.09 366.13 313.58 C 363.28 315.64 361.23 318.69 359.99 321.95 C 361.88 323.74 364.28 325.07 366.93 325.19 C 368.87 324.16 370.56 322.75 372.26 321.38 C 374.43 322.39 376.58 323.53 378.95 324.01 C 382.32 323.48 384.41 319.56 383.74 316.36 C 382.37 314.38 380.20 313.17 378.31 311.75 M 122.27 329.96 C 121.71 338.42 121.15 346.89 119.43 355.22 C 122.23 350.99 124.59 346.37 125.27 341.29 C 126.51 332.86 126.96 324.33 127.89 315.87 C 125.35 320.24 122.72 324.80 122.27 329.96 M 428.39 323.33 C 426.66 327.12 425.44 331.35 422.21 334.20 C 416.72 339.26 410.41 343.43 403.74 346.77 C 392.29 352.43 379.94 356.63 367.13 357.42 C 357.84 357.99 348.45 358.12 339.24 356.73 C 334.57 356.11 330.09 354.20 325.35 354.26 C 321.53 356.94 319.46 363.14 313.99 362.61 C 310.65 362.45 310.44 358.31 309.12 356.04 C 307.91 360.01 307.17 364.10 306.06 368.09 C 303.97 368.46 301.83 368.52 299.79 369.08 C 297.01 370.16 294.81 372.37 291.96 373.27 C 288.13 373.74 284.02 370.98 283.81 366.95 C 282.56 354.13 286.14 341.54 286.88 328.81 C 281.82 338.02 281.20 348.71 280.17 358.94 C 279.73 365.41 278.87 372.10 280.66 378.45 C 281.46 381.46 284.35 384.25 287.65 383.62 C 293.26 382.27 293.90 374.08 299.87 373.50 C 302.56 373.13 304.93 371.80 307.28 370.53 C 309.63 369.21 312.47 369.76 314.96 368.89 C 317.83 366.89 319.97 364.05 322.33 361.50 C 326.03 364.11 329.97 366.67 334.53 367.43 C 341.94 368.74 349.54 368.66 357.03 368.09 C 378.57 366.55 399.86 358.48 416.21 344.23 C 424.43 336.52 431.91 327.03 433.99 315.68 C 431.82 317.99 429.67 320.40 428.39 323.33 M 153.86 329.51 C 156.42 330.80 158.89 332.64 161.83 332.92 C 164.52 331.86 166.00 328.82 166.13 326.06 C 165.78 322.96 162.69 321.16 160.04 320.18 C 157.14 322.64 155.54 326.19 153.86 329.51 M 190.44 335.10 C 189.78 338.19 190.06 342.11 187.24 344.21 C 185.40 345.28 183.38 345.97 181.44 346.82 C 181.91 344.39 182.56 341.97 182.56 339.49 C 181.44 337.08 178.57 336.21 176.11 336.37 C 173.01 336.37 171.09 339.12 168.89 340.89 C 170.68 342.11 174.91 342.72 173.94 345.72 C 170.91 349.73 166.29 352.24 163.50 356.48 C 158.09 364.41 155.08 374.11 155.40 383.73 C 155.49 390.09 160.19 395.86 166.26 397.54 C 171.89 399.01 177.98 397.78 183.00 394.97 C 191.56 390.04 197.73 381.81 202.02 373.06 C 197.27 377.68 192.81 382.99 186.48 385.51 C 179.19 388.68 169.86 388.78 163.55 383.42 C 159.17 379.82 158.90 373.43 160.34 368.34 C 162.26 361.81 166.46 355.91 172.01 351.96 C 175.84 348.95 181.36 352.13 185.18 349.19 C 192.62 343.52 196.25 333.88 194.77 324.68 C 192.63 327.81 190.76 331.24 190.44 335.10 M 137.57 328.43 C 136.15 331.50 134.27 334.47 133.63 337.83 C 135.35 340.82 139.90 342.80 139.13 346.78 C 136.08 351.24 130.93 353.56 126.92 357.03 C 131.70 355.81 137.47 354.94 140.23 350.31 C 143.11 345.66 145.47 339.83 143.60 334.37 C 142.70 331.49 139.76 330.17 137.57 328.43 M 144.39 360.35 C 141.00 362.62 137.37 364.52 133.86 366.60 C 138.05 365.65 142.47 365.22 146.35 363.26 C 151.13 359.51 153.35 353.51 155.07 347.87 C 151.67 352.15 149.02 357.21 144.39 360.35 M 220.04 375.72 C 221.22 374.01 222.35 372.27 223.51 370.55 C 222.35 370.57 221.20 370.61 220.04 370.67 C 219.82 369.36 219.60 368.06 219.37 366.77 C 218.92 369.78 217.13 373.42 220.04 375.72 M 397.03 383.94 C 395.06 382.53 393.13 381.05 390.97 379.95 C 388.21 382.03 386.06 384.89 384.72 388.08 C 386.54 390.01 388.94 391.65 391.68 391.73 C 393.50 390.19 394.92 388.25 396.44 386.42 C 398.83 387.47 401.21 388.81 403.87 389.03 C 406.74 387.92 408.57 384.32 407.94 381.32 C 406.55 379.54 404.73 378.18 403.04 376.72 C 401.03 379.12 399.03 381.53 397.03 383.94 M 131.41 389.15 C 129.39 387.51 127.37 385.84 125.07 384.62 C 122.27 386.98 120.32 390.14 118.30 393.15 C 120.64 394.42 122.83 396.33 125.57 396.61 C 127.51 395.19 129.12 393.37 131.10 392.01 C 134.06 392.27 136.99 396.21 139.79 393.85 C 141.55 392.46 143.01 390.37 142.99 388.06 C 142.79 385.19 140.06 382.99 137.26 382.95 C 135.00 384.70 133.23 386.97 131.41 389.15 M 341.49 386.27 C 339.36 388.17 337.59 390.44 335.94 392.76 C 333.90 391.07 332.16 388.42 329.29 388.23 C 326.72 390.21 324.89 393.04 323.69 396.03 C 325.02 398.11 327.22 399.86 329.78 399.90 C 331.98 398.51 333.90 396.74 335.95 395.16 C 338.71 395.76 341.51 399.90 344.23 397.29 C 346.02 395.75 347.70 393.61 347.72 391.14 C 347.14 388.44 344.35 385.89 341.49 386.27 M 294.81 397.21 C 297.37 398.52 299.88 400.13 302.77 400.59 C 305.64 399.41 307.34 396.17 307.17 393.15 C 306.43 390.43 303.58 389.16 301.09 388.55 C 298.42 390.97 296.66 394.16 294.81 397.21 M 397.26 390.59 C 395.13 393.62 393.06 396.68 391.00 399.75 C 393.24 401.11 395.42 402.64 397.91 403.54 C 401.06 402.27 403.51 398.81 402.79 395.35 C 401.36 393.33 399.19 392.05 397.26 390.59 M 203.82 417.63 C 203.16 420.39 202.44 423.15 201.67 425.89 C 204.03 426.25 206.39 426.73 208.79 426.75 C 210.05 424.81 210.64 422.51 210.80 420.23 C 208.48 419.32 206.25 418.22 203.82 417.63 M 176.61 435.54 C 172.50 438.21 168.02 440.25 163.96 442.98 C 161.53 444.48 160.80 447.39 159.85 449.88 C 163.52 449.92 167.37 449.67 170.49 447.51 C 176.23 443.95 181.96 440.35 188.10 437.51 C 188.09 435.70 188.98 433.59 187.65 432.06 C 183.61 431.11 179.93 433.61 176.61 435.54 M 355.18 439.16 C 343.65 445.69 331.95 451.91 320.52 458.62 C 316.23 461.17 310.74 459.73 306.49 462.38 C 296.40 468.39 286.29 474.36 276.06 480.14 C 273.02 481.69 272.42 485.28 271.41 488.21 C 274.74 488.75 278.38 489.39 281.42 487.45 C 291.17 481.93 300.72 476.03 310.52 470.57 C 315.17 468.29 316.64 462.55 321.24 460.24 C 335.10 452.88 348.67 445.00 362.49 437.57 C 364.66 436.43 366.40 434.68 368.21 433.07 C 363.41 434.00 359.29 436.67 355.18 439.16 M 253.14 492.71 C 252.75 495.04 252.37 497.37 251.98 499.71 C 254.37 500.43 256.75 501.15 259.14 501.87 C 259.83 499.22 260.51 496.58 261.20 493.93 C 258.51 493.53 255.82 493.12 253.14 492.71 Z" />
</g>
<g id="#eacb9dff">
<path fill="#eacb9d" opacity="1.00" d=" M 250.39 30.46 C 257.98 28.58 264.81 33.36 271.00 37.02 C 333.12 72.88 395.20 108.82 457.37 144.59 C 461.02 146.80 464.74 149.29 466.96 153.04 C 468.60 155.70 468.92 158.90 469.03 161.96 C 468.95 233.63 469.00 305.32 469.00 377.00 C 468.87 383.58 469.87 390.42 467.72 396.79 C 465.21 403.41 458.18 406.23 452.48 409.50 C 389.87 445.97 326.93 481.90 264.25 518.27 C 258.50 521.84 250.98 522.28 245.03 518.93 C 182.00 482.64 119.03 446.24 56.03 409.90 C 51.50 407.24 46.50 405.07 42.94 401.08 C 40.23 398.08 39.13 394.01 39.01 390.05 C 39.04 317.71 39.04 245.35 39.02 173.00 C 39.12 167.04 38.21 160.85 40.14 155.09 C 42.56 148.82 48.88 145.57 54.36 142.41 C 64.63 136.79 74.65 130.75 84.75 124.84 C 134.35 96.48 183.68 67.68 233.24 39.24 C 238.88 36.19 244.10 32.11 250.39 30.46 M 238.45 38.37 C 178.79 72.73 119.22 107.22 59.54 141.54 C 54.25 144.82 48.28 147.35 44.03 152.05 C 41.10 155.27 40.81 159.84 40.74 163.97 C 40.75 235.98 40.76 307.99 40.73 380.00 C 40.84 385.53 40.13 391.37 42.33 396.61 C 45.09 402.47 51.36 405.21 56.68 408.25 C 117.12 442.73 177.14 477.92 237.53 512.47 C 242.96 515.55 248.39 519.96 255.01 519.39 C 261.79 518.71 267.23 514.18 273.01 511.02 C 331.21 477.64 389.20 443.90 447.34 410.42 C 452.75 407.21 458.70 404.66 463.31 400.27 C 466.91 396.88 467.24 391.64 467.30 387.01 C 467.26 362.34 467.28 337.67 467.28 313.00 C 467.10 286.85 467.65 260.70 466.99 234.56 C 463.05 236.39 458.94 237.95 455.37 240.47 C 453.09 242.05 452.35 244.88 451.21 247.25 C 448.83 246.65 446.41 246.11 444.24 244.95 C 444.58 242.72 445.25 240.57 445.86 238.41 C 449.13 238.82 452.65 239.43 455.73 237.83 C 459.50 236.03 463.43 234.30 466.59 231.51 C 467.33 229.44 467.31 227.19 467.38 225.02 C 467.19 207.01 467.27 189.01 467.31 171.00 C 467.24 165.72 467.91 160.17 465.86 155.16 C 463.14 149.24 456.87 146.42 451.51 143.39 C 391.53 108.67 331.46 74.10 271.43 39.46 C 265.91 36.39 260.59 31.96 253.98 31.85 C 248.09 31.75 243.32 35.62 238.45 38.37 Z" />
<path fill="#eacb9d" opacity="1.00" d=" M 285.33 89.38 C 296.70 82.36 308.30 75.70 319.85 68.98 C 320.10 69.42 320.60 70.31 320.84 70.75 C 309.42 77.34 298.17 84.20 286.66 90.64 C 281.78 93.00 280.21 98.98 275.43 101.46 C 260.60 109.87 246.03 118.72 231.28 127.24 C 228.09 129.42 224.17 128.81 220.63 128.09 C 221.84 124.81 223.23 121.23 226.60 119.60 C 238.86 112.57 250.99 105.31 263.20 98.17 C 266.58 96.25 269.73 93.88 273.34 92.36 C 277.27 91.13 281.74 91.67 285.33 89.38 Z" />
<path fill="#eacb9d" opacity="1.00" d=" M 155.10 119.82 C 157.38 120.57 159.69 121.25 161.86 122.28 C 161.84 124.60 161.39 126.89 161.04 129.18 C 158.34 128.71 155.63 128.24 152.93 127.76 C 153.65 125.11 154.37 122.46 155.10 119.82 Z" />
<path fill="#eacb9d" opacity="1.00" d=" M 140.60 129.93 C 142.92 129.50 145.24 130.45 147.51 130.88 C 146.25 134.18 144.75 137.70 141.45 139.44 C 131.62 145.31 121.59 150.84 111.85 156.87 C 107.84 159.30 103.23 162.39 98.34 160.59 C 97.00 157.48 98.49 154.01 101.43 152.51 C 111.34 146.72 121.28 140.96 131.17 135.12 C 134.27 133.32 137.19 131.11 140.60 129.93 Z" />
<path fill="#eacb9d" opacity="1.00" d=" M 74.30 213.34 C 81.05 209.99 87.07 205.11 94.47 203.15 C 88.74 209.06 80.55 211.28 73.99 216.03 C 71.63 217.57 71.21 220.57 70.23 223.00 C 68.01 222.48 65.76 222.06 63.61 221.30 C 63.43 218.93 63.64 216.56 64.00 214.23 C 67.43 214.45 71.12 215.02 74.30 213.34 Z" />
<path fill="#eacb9d" opacity="1.00" d=" M 294.91 237.89 C 297.50 236.00 300.71 236.15 303.70 236.72 C 299.35 243.73 291.09 246.13 284.58 250.53 C 280.31 253.44 275.67 255.97 270.39 256.35 C 271.28 254.11 271.74 251.37 274.12 250.18 C 280.96 245.94 288.08 242.16 294.91 237.89 Z" />
<path fill="#eacb9d" opacity="1.00" d=" M 423.12 253.04 C 425.87 251.10 429.30 251.41 432.45 251.85 C 431.33 254.69 430.01 257.72 427.06 259.09 C 416.41 265.02 406.13 271.60 395.44 277.48 C 390.91 279.92 386.80 283.32 381.79 284.75 C 380.37 285.25 379.05 284.41 377.81 283.86 C 377.90 282.26 377.89 280.36 379.32 279.30 C 382.76 276.22 387.03 274.31 390.96 271.95 C 401.67 265.64 412.54 259.57 423.12 253.04 Z" />
<path fill="#eacb9d" opacity="1.00" d=" M 104.76 267.69 C 107.06 266.80 109.42 268.08 111.63 268.70 C 110.02 271.60 108.20 274.61 105.08 276.10 C 94.93 281.51 85.06 287.42 75.10 293.18 C 72.50 294.86 69.34 294.47 66.42 294.23 C 67.21 291.44 67.87 288.18 70.77 286.80 C 78.13 282.50 85.69 278.52 92.94 274.00 C 96.80 271.77 100.54 269.21 104.76 267.69 Z" />
<path fill="#eacb9d" opacity="1.00" d=" M 319.34 281.48 C 326.42 278.05 332.59 272.71 340.41 270.88 C 334.47 276.62 326.48 279.23 319.66 283.65 C 317.11 285.16 316.44 288.24 315.34 290.76 C 313.14 290.14 310.94 289.52 308.74 288.90 C 309.14 286.43 309.54 283.97 309.93 281.51 C 313.01 282.05 316.39 283.11 319.34 281.48 Z" />
<path fill="#eacb9d" opacity="1.00" d=" M 161.63 296.63 C 167.56 293.30 173.26 288.50 180.49 288.85 C 179.21 291.28 177.89 293.93 175.35 295.28 C 170.56 298.13 165.55 300.59 160.91 303.68 C 159.43 303.28 157.95 302.86 156.48 302.46 C 157.97 300.33 159.21 297.86 161.63 296.63 Z" />
<path fill="#eacb9d" opacity="1.00" d=" M 203.82 417.63 C 206.25 418.22 208.48 419.32 210.80 420.23 C 210.64 422.51 210.05 424.81 208.79 426.75 C 206.39 426.73 204.03 426.25 201.67 425.89 C 202.44 423.15 203.16 420.39 203.82 417.63 Z" />
<path fill="#eacb9d" opacity="1.00" d=" M 176.61 435.54 C 179.93 433.61 183.61 431.11 187.65 432.06 C 188.98 433.59 188.09 435.70 188.10 437.51 C 181.96 440.35 176.23 443.95 170.49 447.51 C 167.37 449.67 163.52 449.92 159.85 449.88 C 160.80 447.39 161.53 444.48 163.96 442.98 C 168.02 440.25 172.50 438.21 176.61 435.54 Z" />
<path fill="#eacb9d" opacity="1.00" d=" M 355.18 439.16 C 359.29 436.67 363.41 434.00 368.21 433.07 C 366.40 434.68 364.66 436.43 362.49 437.57 C 348.67 445.00 335.10 452.88 321.24 460.24 C 316.64 462.55 315.17 468.29 310.52 470.57 C 300.72 476.03 291.17 481.93 281.42 487.45 C 278.38 489.39 274.74 488.75 271.41 488.21 C 272.42 485.28 273.02 481.69 276.06 480.14 C 286.29 474.36 296.40 468.39 306.49 462.38 C 310.74 459.73 316.23 461.17 320.52 458.62 C 331.95 451.91 343.65 445.69 355.18 439.16 Z" />
<path fill="#eacb9d" opacity="1.00" d=" M 253.14 492.71 C 255.82 493.12 258.51 493.53 261.20 493.93 C 260.51 496.58 259.83 499.22 259.14 501.87 C 256.75 501.15 254.37 500.43 251.98 499.71 C 252.37 497.37 252.75 495.04 253.14 492.71 Z" />
</g>
</svg>
