<svg xmlns="http://www.w3.org/2000/svg" width="46.681" height="70" viewBox="0 0 46.681 70">
  <defs>
    <style>
      .cls-1 {
        fill: #ffc312;
        opacity: 0.8;
      }
    </style>
  </defs>
  <path id="Icon_awesome-lightbulb" data-name="Icon awesome-lightbulb" class="cls-1" d="M12.739,62.117a4.474,4.474,0,0,0,.711,2.419l2.266,3.512A4.21,4.21,0,0,0,19.249,70h8.184a4.21,4.21,0,0,0,3.533-1.952l2.266-3.512a4.47,4.47,0,0,0,.711-2.419l.005-5.243H12.733ZM0,24.062A24.358,24.358,0,0,0,5.777,39.891a39.6,39.6,0,0,1,6.924,12.5c.005.036.009.071.015.107h21.25c.005-.036.009-.07.015-.107a39.6,39.6,0,0,1,6.924-12.5,24.358,24.358,0,0,0,5.777-15.829C46.681,10.747,36.192-.041,23.268,0,9.739.042,0,11.343,0,24.062ZM23.341,13.125A10.79,10.79,0,0,0,12.731,24.062a2.123,2.123,0,1,1-4.244,0A15.1,15.1,0,0,1,23.341,8.75a2.188,2.188,0,0,1,0,4.375Z" transform="translate(0 0)"/>
</svg>
