<?xml version="1.0" encoding="utf-8"?>
<!-- Generator: Adobe Illustrator 25.2.0, SVG Export Plug-In . SVG Version: 6.00 Build 0)  -->
<svg version="1.1" id="Layer_1" xmlns="http://www.w3.org/2000/svg" xmlns:xlink="http://www.w3.org/1999/xlink" x="0px" y="0px"
	 viewBox="0 0 46.7 47.6" style="enable-background:new 0 0 46.7 47.6;" xml:space="preserve">
<style type="text/css">
	.st0{opacity:0.8;fill:#FFC312;enable-background:new    ;}
</style>
<path id="Icon_awesome-lightbulb" class="st0" d="M16,41.5c0,0.5,0.2,1.1,0.5,1.6l1.6,2.3c0.5,0.8,1.5,1.3,2.5,1.3h5.7
	c1,0,1.9-0.5,2.5-1.3l1.6-2.3c0.3-0.4,0.5-1,0.5-1.6v-3.4H16V41.5z M7.1,16.6c0,3.7,1.4,7.5,4,10.3c2.1,2.4,3.8,5.2,4.8,8.2v0.1
	h14.9v-0.1c1.1-3,2.7-5.7,4.8-8.2c2.6-2.9,4.1-6.5,4-10.3C39.6,8,32.3,0.9,23.2,1C13.9,1,7.1,8.4,7.1,16.6z M23.4,9.5
	c-4.2,0.1-7.5,3.2-7.4,7.1c0,0.8-0.6,1.4-1.4,1.4s-1.5-0.5-1.6-1.3v-0.1c-0.1-5.4,4.6-9.9,10.4-10c0.8,0,1.5,0.7,1.5,1.5
	S24.3,9.5,23.4,9.5z"/>
</svg>
