<?xml version="1.0" encoding="utf-8"?>
<!-- Generator: Adobe Illustrator 25.2.0, SVG Export Plug-In . SVG Version: 6.00 Build 0)  -->
<svg version="1.1" id="Layer_1" xmlns="http://www.w3.org/2000/svg" xmlns:xlink="http://www.w3.org/1999/xlink" x="0px" y="0px"
	 viewBox="0 0 46.7 47.6" style="enable-background:new 0 0 46.7 47.6;" xml:space="preserve">
<style type="text/css">
	.st0{fill:#C0392B;}
	.st1{fill:#FFFFFF;}
</style>
<circle class="st0" cx="23.4" cy="23.8" r="23.3"/>
<path class="st1" d="M23.4,21.9c-0.5,0-0.8-0.4-0.8-0.8v-8.9c0-0.5,0.4-0.8,0.8-0.8s0.8,0.4,0.8,0.8V21
	C24.2,21.5,23.8,21.9,23.4,21.9z"/>
<path class="st1" d="M23.3,32.2c-4.9,0-8.9-4-8.9-8.9c0-3.4,1.9-6.5,5-8c0.4-0.2,0.9,0,1.2,0.4s0,0.9-0.4,1.2c-2.5,1.2-4,3.7-4,6.4
	c0,3.9,3.2,7.1,7.1,7.1s7.1-3.2,7.1-7.1c0-2.7-1.5-5.2-4-6.4c-0.4-0.2-0.6-0.7-0.4-1.2c0.2-0.4,0.7-0.6,1.2-0.4c3.1,1.5,5,4.5,5,8
	C32.2,28.3,28.2,32.2,23.3,32.2z"/>
</svg>
