<?xml version="1.0" encoding="utf-8"?>
<!-- Generator: Adobe Illustrator 25.2.0, SVG Export Plug-In . SVG Version: 6.00 Build 0)  -->
<svg version="1.1" id="Layer_1" xmlns="http://www.w3.org/2000/svg" xmlns:xlink="http://www.w3.org/1999/xlink" x="0px" y="0px"
	 viewBox="0 0 46.7 47.6" style="enable-background:new 0 0 46.7 47.6;" xml:space="preserve">
<style type="text/css">
	.st0{fill:#E74C3C;}
	.st1{fill:#FFFFFF;}
</style>
<circle class="st0" cx="23.4" cy="23.8" r="23.3"/>
<path class="st1" d="M23.5,22.4c-0.7,0-1.1-0.5-1.1-1.1V9.2c0-0.7,0.5-1.1,1.1-1.1s1.1,0.5,1.1,1.1v12
	C24.6,21.8,24.1,22.4,23.5,22.4z"/>
<path class="st1" d="M23.4,36.4c-6.7,0-12.1-5.4-12.1-12.1c0-4.6,2.6-8.8,6.8-10.9c0.5-0.3,1.2,0,1.6,0.5s0,1.2-0.5,1.6
	c-3.4,1.6-5.4,5-5.4,8.7c0,5.3,4.3,9.6,9.6,9.6s9.6-4.3,9.6-9.6c0-3.7-2-7.1-5.4-8.7c-0.5-0.3-0.8-1-0.5-1.6c0.3-0.5,1-0.8,1.6-0.5
	c4.2,2,6.8,6.1,6.8,10.9C35.5,31.1,30.1,36.4,23.4,36.4z"/>
</svg>
