<svg id="logo" xmlns="http://www.w3.org/2000/svg" width="51" height="51" viewBox="0 0 51 51">
  <defs>
    <style>
      .cls-1 {
        fill: #9257a2;
      }

      .cls-2 {
        fill: #fff;
      }
    </style>
  </defs>
  <circle id="Ellipse_1" data-name="Ellipse 1" class="cls-1" cx="25.5" cy="25.5" r="25.5" transform="translate(0)"/>
  <path id="Path_2274" data-name="Path 2274" class="cls-2" d="M0,2V27.882H31.112V2ZM1.944,4.157H17.5V6.314H1.944Zm17.5,0h1.944V6.314H19.445Zm3.889,0h1.944V6.314H23.334Zm3.889,0h1.944V6.314H27.223ZM1.944,8.471H29.167V25.725H1.944ZM15.62,11.6l-3.543,6.736L8.8,13.147,4.1,19.663l1.519,1.344L8.7,16.74l3.532,5.594,3.262-6.205,2.814,6.247,3.012-4.449,2.389,4.242L27,17.789l-1.5-1.378L23.934,18.5l-2.472-4.385L18.64,18.29Z" transform="translate(9.946 10.561)"/>
</svg>
