<?xml version="1.0" encoding="utf-8"?>
<!-- Generator: Adobe Illustrator 25.2.0, SVG Export Plug-In . SVG Version: 6.00 Build 0)  -->
<svg version="1.1" id="Layer_1" xmlns="http://www.w3.org/2000/svg" xmlns:xlink="http://www.w3.org/1999/xlink" x="0px" y="0px"
	 viewBox="0 0 46.7 47.6" style="enable-background:new 0 0 46.7 47.6;" xml:space="preserve">
<style type="text/css">
	.st0{fill:#3498DB;stroke:#3498DB;stroke-linecap:round;stroke-linejoin:round;}
	.st1{fill:#2980B9;}
</style>
<g id="_x23_ffffffff">
</g>
<g id="_x23_ffffffff_1_">
</g>
<g id="Group_37" transform="translate(0.5 0.5)">
	<g id="Group_31" transform="translate(38.545 32.646)">
		<path id="Path_2260" class="st0" d="M-7.4,3.3V2.9c0-0.4,0.2-0.7,0.6-0.9c1.2-0.7,2.6-1.5,2.6-1.5l1.9,0c0.1,0.1,1.2,0.6,2.8,1.6
			c0.3,0.2,0.4,0.6,0.4,1v0.2"/>
		<path id="Path_2261" class="st0" d="M-3.3-4.2c-0.8,0-1.5,0.8-1.4,1.6v1.6c0,0.8,0.6,1.5,1.4,1.6c0.8-0.1,1.4-0.8,1.4-1.6v-1.6
			C-1.8-3.5-2.5-4.2-3.3-4.2z M-4.3,0.5l1.9,0"/>
	</g>
	<g id="Group_32" transform="translate(40.097 12.717)">
		<path id="Path_2262" class="st0" d="M-5.9,7.2V6.8c0-0.4,0.2-0.7,0.6-0.9c1.2-0.7,2.6-1.5,2.6-1.5l1.9,0C-0.7,4.5,0.3,5.1,2,6.1
			c0.3,0.2,0.4,0.6,0.4,1v0.2"/>
		<path id="Path_2263" class="st0" d="M-1.8-0.3c-0.8,0-1.5,0.8-1.4,1.6v1.6c0,0.8,0.6,1.5,1.4,1.6C-1,4.4-0.4,3.7-0.4,2.9V1.3
			C-0.3,0.5-1-0.2-1.8-0.3z M-2.7,4.4l1.9,0"/>
	</g>
	<g id="Group_33" transform="translate(20.035 0)">
		<path id="Path_2264" class="st0" d="M-0.7,9.9V9.5c0-0.4,0.2-0.7,0.6-0.9c1.2-0.7,2.6-1.5,2.6-1.5l1.9,0c0.1,0.1,1.2,0.6,2.8,1.6
			c0.3,0.2,0.4,0.6,0.4,1v0.2"/>
		<path id="Path_2265" class="st0" d="M3.4,2.4C2.6,2.4,1.9,3.2,2,4v1.6C2,6.4,2.6,7,3.4,7.1C4.2,7,4.8,6.4,4.8,5.6V4
			C4.9,3.2,4.2,2.4,3.4,2.4z M2.5,7.1l1.9,0"/>
	</g>
	<g id="Group_34" transform="translate(0.698 12.717)">
		<path id="Path_2266" class="st0" d="M2.9,6.6V6.2c0-0.4,0.2-0.7,0.6-0.9c1.2-0.7,2.6-1.5,2.6-1.5l1.9,0c0.1,0.1,1.2,0.6,2.8,1.6
			c0.3,0.2,0.4,0.6,0.4,1v0.2"/>
		<path id="Path_2267" class="st0" d="M7.1-0.9c-0.8,0-1.5,0.8-1.4,1.6v1.6c0,0.8,0.6,1.5,1.4,1.6c0.8-0.1,1.4-0.8,1.4-1.6V0.7
			C8.5-0.1,7.9-0.8,7.1-0.9z M6.1,3.8l1.9,0"/>
	</g>
	<g id="Group_35" transform="translate(0 31.817)">
		<path id="Path_2268" class="st0" d="M6,3.6V3.2c0-0.4,0.2-0.7,0.6-0.9c1.2-0.7,2.6-1.5,2.6-1.5l1.9,0c0.1,0.1,1.2,0.6,2.8,1.6
			c0.3,0.2,0.4,0.6,0.4,1v0.2"/>
		<path id="Path_2269" class="st0" d="M10.1-3.9c-0.8,0-1.5,0.8-1.4,1.6v1.6c0,0.8,0.6,1.5,1.4,1.6c0.8-0.1,1.4-0.8,1.4-1.6v-1.6
			C11.6-3.2,11-3.9,10.1-3.9z M9.2,0.8l1.9,0"/>
	</g>
	<g id="Group_36" transform="translate(20.035 41.097)">
		<path id="Path_2270" class="st0" d="M-0.7,2.1V1.8c0-0.4,0.2-0.7,0.6-0.9c1.2-0.7,2.6-1.5,2.6-1.5l1.9,0C4.5-0.6,5.6,0,7.2,1
			c0.3,0.2,0.4,0.6,0.4,1v0.2"/>
		<path id="Path_2271" class="st0" d="M3.4-5.4C2.6-5.3,1.9-4.6,2-3.8v1.6c0,0.8,0.6,1.5,1.4,1.6c0.8-0.1,1.4-0.8,1.4-1.6v-1.6
			C4.9-4.6,4.2-5.3,3.4-5.4z M2.5-0.6l1.9,0"/>
	</g>
</g>
<path id="Path_2275" class="st1" d="M23.9,14.9c-4.9,0-8.9,4-8.9,8.9s4,8.9,8.9,8.9s8.9-4,8.9-8.9S28.9,14.9,23.9,14.9z M23.9,15
	c4.9,0,8.8,3.9,8.8,8.8s-3.9,8.8-8.8,8.8s-8.8-3.9-8.8-8.8l0,0C15.2,19,19.1,15,23.9,15L23.9,15z M19.3,19.4c0,0-0.1,0-0.1,0.1l0,0
	c0,0.1,0,0.1,0.1,0.1l0,0c0,0,0.1,0,0.1-0.1l0,0C19.4,19.4,19.4,19.4,19.3,19.4z M20.7,19.4c-0.1,0-0.1,0-0.1,0.1s0,0.1,0.1,0.1l0,0
	c0,0,0.1,0,0.1-0.1l0,0C20.8,19.4,20.8,19.4,20.7,19.4L20.7,19.4z M21.2,19.4c0,0-0.1,0-0.1,0.1l0,0c0,0,0,0.1,0.1,0.1c0,0,0,0,0,0
	c0.1,0,0.1,0,0.1-0.1l0,0C21.3,19.4,21.3,19.4,21.2,19.4L21.2,19.4z M19.3,19.9c-0.1,0-0.1,0-0.1,0.1l0,0c0,0.1,0,0.1,0.1,0.1
	c0,0,0.1,0,0.1-0.1l0,0C19.4,19.9,19.4,19.9,19.3,19.9L19.3,19.9z M19.7,19.9c0,0-0.1,0-0.1,0.1l0,0c0,0.1,0,0.1,0.1,0.1l0,0
	c0,0,0.1,0,0.1-0.1l0,0C19.9,19.9,19.8,19.9,19.7,19.9C19.8,19.9,19.8,19.9,19.7,19.9L19.7,19.9z M20.2,19.9c0,0-0.1,0-0.1,0.1l0,0
	c0,0.1,0,0.1,0.1,0.1s0.1,0,0.1-0.1C20.4,19.9,20.3,19.9,20.2,19.9L20.2,19.9z M20.7,19.9c-0.1,0-0.1,0-0.1,0.1s0,0.1,0.1,0.1
	c0,0,0.1,0,0.1-0.1l0,0C20.8,19.9,20.8,19.9,20.7,19.9C20.7,19.9,20.7,19.9,20.7,19.9L20.7,19.9z M21.2,19.9c0,0-0.1,0-0.1,0.1l0,0
	c0,0.1,0,0.1,0.1,0.1l0,0c0,0,0.1,0,0.1-0.1l0,0C21.3,19.9,21.3,19.9,21.2,19.9L21.2,19.9L21.2,19.9z M19.3,20.4
	c-0.1,0-0.1,0-0.1,0.1l0,0c0,0.1,0,0.1,0.1,0.1s0.1,0,0.1-0.1S19.4,20.4,19.3,20.4z M19.7,20.4c-0.1,0-0.1,0-0.1,0.1
	c0,0.1,0,0.1,0.1,0.1s0.1,0,0.1-0.1l0,0C19.9,20.4,19.8,20.4,19.7,20.4C19.8,20.4,19.8,20.4,19.7,20.4L19.7,20.4z M20.2,20.4
	c0,0-0.1,0-0.1,0.1l0,0c0,0,0,0.1,0.1,0.1s0.1,0,0.1-0.1C20.4,20.4,20.3,20.4,20.2,20.4L20.2,20.4z M20.7,20.4c-0.1,0-0.1,0-0.1,0.1
	c0,0.1,0,0.1,0.1,0.1l0,0c0.1,0,0.1,0,0.1-0.1S20.8,20.4,20.7,20.4z M21.2,20.4c-0.1,0-0.1,0-0.1,0.1c0,0.1,0,0.1,0.1,0.1
	s0.1,0,0.1-0.1C21.3,20.4,21.3,20.4,21.2,20.4L21.2,20.4z M21.7,20.4c-0.1,0-0.1,0-0.1,0.1l0,0c0,0.1,0,0.1,0.1,0.1
	c0,0,0.1,0,0.1-0.1S21.8,20.4,21.7,20.4L21.7,20.4L21.7,20.4z M25,20.4c-0.1,0-0.1,0-0.1,0.1c0,0.1,0,0.1,0.1,0.1s0.1,0,0.1-0.1
	S25.1,20.4,25,20.4L25,20.4z M25.5,20.4c-0.1,0-0.1,0-0.1,0.1c0,0.1,0,0.1,0.1,0.1h0c0,0,0.1,0,0.1-0.1
	C25.6,20.4,25.6,20.4,25.5,20.4L25.5,20.4L25.5,20.4z M25.9,20.4c-0.1,0-0.1,0-0.1,0.1c0,0.1,0,0.1,0.1,0.1l0,0c0.1,0,0.1,0,0.1-0.1
	l0,0C26.1,20.4,26,20.4,25.9,20.4C26,20.4,26,20.4,25.9,20.4L25.9,20.4z M22.1,20.8c0,0-0.1,0-0.1,0.1s0,0.1,0.1,0.1s0.1,0,0.1-0.1
	C22.3,20.9,22.2,20.8,22.1,20.8L22.1,20.8z M19.3,20.8c-0.1,0-0.1,0-0.1,0.1c0,0.1,0,0.1,0.1,0.1l0,0c0,0,0.1,0,0.1-0.1l0,0
	C19.4,20.9,19.4,20.8,19.3,20.8L19.3,20.8z M19.8,20.8c-0.1,0-0.1,0-0.1,0.1l0,0c0,0,0,0.1,0.1,0.1c0,0,0,0,0,0c0.1,0,0.1,0,0.1-0.1
	l0,0C19.9,20.9,19.8,20.8,19.8,20.8L19.8,20.8z M20.2,20.8c-0.1,0-0.1,0-0.1,0.1l0,0c0,0,0,0.1,0.1,0.1l0,0c0.1,0,0.1,0,0.1-0.1
	C20.4,20.9,20.3,20.8,20.2,20.8L20.2,20.8z M20.7,20.8c-0.1,0-0.1,0-0.1,0.1c0,0.1,0,0.1,0.1,0.1l0,0c0,0,0.1,0,0.1-0.1l0,0
	C20.8,20.9,20.8,20.8,20.7,20.8L20.7,20.8z M21.2,20.8c-0.1,0-0.1,0-0.1,0.1l0,0c0,0,0,0.1,0.1,0.1c0,0,0,0,0,0c0.1,0,0.1,0,0.1-0.1
	l0,0C21.3,20.9,21.3,20.8,21.2,20.8L21.2,20.8z M21.7,20.8c-0.1,0-0.1,0-0.1,0.1c0,0.1,0,0.1,0.1,0.1l0,0c0,0,0.1,0,0.1-0.1
	S21.8,20.8,21.7,20.8L21.7,20.8L21.7,20.8z M24.1,20.8c-0.1,0-0.1,0-0.1,0.1c0,0.1,0,0.1,0.1,0.1s0.1,0,0.1-0.1l0,0
	C24.2,20.9,24.1,20.8,24.1,20.8L24.1,20.8L24.1,20.8z M24.5,20.8c-0.1,0-0.1,0-0.1,0.1l0,0c0,0,0,0.1,0.1,0.1c0,0,0,0,0,0
	c0.1,0,0.1,0,0.1-0.1l0,0C24.6,20.9,24.6,20.8,24.5,20.8L24.5,20.8z M25,20.8c-0.1,0-0.1,0-0.1,0.1l0,0c0,0,0,0.1,0.1,0.1
	c0,0,0,0,0,0c0.1,0,0.1,0,0.1-0.1l0,0C25.2,20.9,25.1,20.8,25,20.8L25,20.8z M25.5,20.8c-0.1,0-0.1,0-0.1,0.1c0,0.1,0,0.1,0.1,0.1
	l0,0c0,0,0.1,0,0.1-0.1S25.6,20.8,25.5,20.8L25.5,20.8z M25.9,20.8c-0.1,0-0.1,0-0.1,0.1c0,0,0,0.1,0.1,0.1l0,0c0.1,0,0.1,0,0.1-0.1
	l0,0C26.1,20.9,26,20.8,25.9,20.8L25.9,20.8z M26.5,20.8c-0.1,0-0.1,0-0.1,0.1l0,0c0,0,0,0.1,0.1,0.1l0,0c0,0,0.1,0,0.1-0.1
	C26.5,20.9,26.5,20.8,26.5,20.8L26.5,20.8z M26.9,20.8c-0.1,0-0.1,0-0.1,0.1c0,0,0,0.1,0.1,0.1l0,0c0,0,0.1,0,0.1-0.1l0,0
	C27,20.9,27,20.8,26.9,20.8L26.9,20.8z M22.1,21.3c0,0-0.1,0-0.1,0.1l0,0c0,0.1,0,0.1,0.1,0.1l0,0c0.1,0,0.1,0,0.1-0.1l0,0
	C22.3,21.3,22.2,21.3,22.1,21.3z M27.9,21.3c-0.1,0-0.1,0-0.1,0.1l0,0c0,0.1,0,0.1,0.1,0.1s0.1,0,0.1-0.1l0,0
	C28,21.3,28,21.3,27.9,21.3L27.9,21.3L27.9,21.3z M19.3,21.3c0,0-0.1,0-0.1,0.1l0,0c0,0.1,0,0.1,0.1,0.1c0,0,0.1,0,0.1-0.1l0,0
	C19.4,21.4,19.4,21.3,19.3,21.3L19.3,21.3L19.3,21.3z M19.8,21.3c0,0-0.1,0-0.1,0.1c0,0,0,0,0,0c0,0,0,0.1,0.1,0.1l0,0
	c0,0,0.1,0,0.1-0.1l0,0C19.9,21.4,19.8,21.3,19.8,21.3L19.8,21.3L19.8,21.3z M20.2,21.3c0,0-0.1,0-0.1,0.1c0,0,0,0,0,0
	c0,0.1,0,0.1,0.1,0.1l0,0c0.1,0,0.1,0,0.1-0.1C20.4,21.4,20.3,21.3,20.2,21.3L20.2,21.3z M20.7,21.3c-0.1,0-0.1,0-0.1,0.1l0,0
	c0,0.1,0,0.1,0.1,0.1c0,0,0.1,0,0.1-0.1l0,0C20.8,21.4,20.8,21.3,20.7,21.3C20.7,21.3,20.7,21.3,20.7,21.3L20.7,21.3z M21.2,21.3
	c0,0-0.1,0-0.1,0.1c0,0,0,0,0,0c0,0,0,0.1,0.1,0.1l0,0c0,0,0.1,0,0.1-0.1l0,0C21.3,21.4,21.3,21.3,21.2,21.3L21.2,21.3L21.2,21.3z
	 M21.7,21.3c0,0-0.1,0-0.1,0.1l0,0c0,0.1,0,0.1,0.1,0.1s0.1,0,0.1-0.1l0,0C21.8,21.4,21.8,21.3,21.7,21.3L21.7,21.3L21.7,21.3z
	 M22.6,21.3c0,0-0.1,0-0.1,0.1c0,0,0,0,0,0c0,0.1,0,0.1,0.1,0.1c0.1,0,0.1,0,0.1-0.1l0,0C22.8,21.4,22.7,21.3,22.6,21.3L22.6,21.3
	L22.6,21.3z M23.1,21.3c0,0-0.1,0-0.1,0.1l0,0c0,0.1,0,0.1,0.1,0.1s0.1,0,0.1-0.1l0,0C23.2,21.4,23.2,21.3,23.1,21.3
	C23.1,21.3,23.1,21.3,23.1,21.3L23.1,21.3z M23.6,21.3c0,0-0.1,0-0.1,0.1c0,0,0,0,0,0c0,0.1,0,0.1,0.1,0.1l0,0c0.1,0,0.1,0,0.1-0.1
	C23.7,21.4,23.6,21.3,23.6,21.3L23.6,21.3L23.6,21.3z M24.1,21.3c0,0-0.1,0-0.1,0.1l0,0c0,0.1,0,0.1,0.1,0.1l0,0c0,0,0.1,0,0.1-0.1
	l0,0C24.2,21.4,24.1,21.3,24.1,21.3L24.1,21.3L24.1,21.3z M24.5,21.3c0,0-0.1,0-0.1,0.1c0,0,0,0,0,0c0,0,0,0.1,0.1,0.1l0,0
	c0,0,0.1,0,0.1-0.1l0,0C24.6,21.4,24.6,21.3,24.5,21.3C24.6,21.3,24.5,21.3,24.5,21.3L24.5,21.3z M25,21.3c0,0-0.1,0-0.1,0.1
	c0,0,0,0,0,0c0,0,0,0.1,0.1,0.1l0,0c0,0,0.1,0,0.1-0.1l0,0C25.2,21.4,25.1,21.3,25,21.3L25,21.3L25,21.3z M25.5,21.3
	c-0.1,0-0.1,0-0.1,0.1l0,0c0,0.1,0,0.1,0.1,0.1l0,0c0.1,0,0.1,0,0.1-0.1l0,0C25.6,21.4,25.6,21.3,25.5,21.3L25.5,21.3L25.5,21.3z
	 M25.9,21.3c0,0-0.1,0-0.1,0.1l0,0c0,0.1,0,0.1,0.1,0.1l0,0c0,0,0.1,0,0.1-0.1l0,0C26.1,21.4,26,21.3,25.9,21.3
	C26,21.3,26,21.3,25.9,21.3L25.9,21.3z M26.5,21.3c0,0-0.1,0-0.1,0.1c0,0,0,0,0,0c0,0.1,0,0.1,0.1,0.1s0.1,0,0.1-0.1
	C26.5,21.3,26.5,21.3,26.5,21.3L26.5,21.3z M26.9,21.3c0,0-0.1,0-0.1,0.1l0,0c0,0,0,0.1,0.1,0.1l0,0c0,0,0.1,0,0.1-0.1l0,0
	C27,21.4,27,21.3,26.9,21.3L26.9,21.3L26.9,21.3z M27.4,21.3c-0.1,0-0.1,0-0.1,0.1l0,0c0,0.1,0,0.1,0.1,0.1c0.1,0,0.1,0,0.1-0.1
	C27.5,21.4,27.5,21.3,27.4,21.3L27.4,21.3L27.4,21.3z M19.8,21.7c-0.1,0-0.1,0-0.1,0.1l0,0c0,0,0,0.1,0.1,0.1c0,0,0,0,0,0
	c0,0,0.1,0,0.1-0.1l0,0C19.9,21.8,19.8,21.7,19.8,21.7L19.8,21.7z M20.2,21.7c-0.1,0-0.1,0-0.1,0.1l0,0c0,0,0,0.1,0.1,0.1l0,0
	c0.1,0,0.1,0,0.1-0.1l0,0C20.4,21.8,20.3,21.7,20.2,21.7L20.2,21.7z M20.7,21.7c-0.1,0-0.1,0-0.1,0.1s0,0.1,0.1,0.1l0,0
	c0,0,0.1,0,0.1-0.1c0,0,0,0,0,0S20.8,21.7,20.7,21.7L20.7,21.7z M21.2,21.7c-0.1,0-0.1,0-0.1,0.1l0,0c0,0,0,0.1,0.1,0.1c0,0,0,0,0,0
	c0,0,0.1,0,0.1-0.1l0,0C21.3,21.8,21.3,21.7,21.2,21.7L21.2,21.7z M21.7,21.7c-0.1,0-0.1,0-0.1,0.1s0,0.1,0.1,0.1l0,0
	c0,0,0.1,0,0.1-0.1l0,0C21.8,21.8,21.8,21.7,21.7,21.7L21.7,21.7L21.7,21.7z M22.1,21.7c-0.1,0-0.1,0-0.1,0.1l0,0c0,0,0,0.1,0.1,0.1
	l0,0c0.1,0,0.1,0,0.1-0.1C22.3,21.8,22.2,21.7,22.1,21.7L22.1,21.7z M22.6,21.7c-0.1,0-0.1,0-0.1,0.1l0,0c0,0.1,0,0.1,0.1,0.1
	c0.1,0,0.1,0,0.1-0.1C22.8,21.8,22.7,21.7,22.6,21.7L22.6,21.7L22.6,21.7z M23.1,21.7c-0.1,0-0.1,0-0.1,0.1s0,0.1,0.1,0.1l0,0
	c0,0,0.1,0,0.1-0.1l0,0C23.2,21.8,23.2,21.7,23.1,21.7L23.1,21.7L23.1,21.7z M23.6,21.7c-0.1,0-0.1,0-0.1,0.1l0,0c0,0,0,0.1,0.1,0.1
	l0,0c0.1,0,0.1,0,0.1-0.1l0,0C23.7,21.8,23.6,21.7,23.6,21.7L23.6,21.7z M24.1,21.7c-0.1,0-0.1,0-0.1,0.1c0,0,0,0.1,0.1,0.1l0,0
	c0,0,0.1,0,0.1-0.1c0,0,0,0,0,0S24.1,21.7,24.1,21.7L24.1,21.7L24.1,21.7z M24.5,21.7c-0.1,0-0.1,0-0.1,0.1l0,0c0,0,0,0.1,0.1,0.1
	c0,0,0,0,0,0c0,0,0.1,0,0.1-0.1l0,0C24.6,21.8,24.6,21.7,24.5,21.7L24.5,21.7z M25,21.7c-0.1,0-0.1,0-0.1,0.1l0,0c0,0,0,0.1,0.1,0.1
	c0,0,0,0,0,0s0.1,0,0.1-0.1l0,0C25.2,21.8,25.1,21.7,25,21.7L25,21.7z M25.5,21.7c-0.1,0-0.1,0-0.1,0.1s0,0.1,0.1,0.1l0,0
	c0,0,0.1,0,0.1-0.1l0,0C25.6,21.8,25.6,21.7,25.5,21.7L25.5,21.7z M25.9,21.7c-0.1,0-0.1,0-0.1,0.1c0,0,0,0.1,0.1,0.1l0,0
	c0,0,0.1,0,0.1-0.1l0,0C26.1,21.8,26,21.7,25.9,21.7L25.9,21.7z M26.5,21.7c-0.1,0-0.1,0-0.1,0.1l0,0c0,0.1,0,0.1,0.1,0.1
	s0.1,0,0.1-0.1C26.5,21.8,26.5,21.7,26.5,21.7L26.5,21.7z M26.9,21.7c-0.1,0-0.1,0-0.1,0.1c0,0,0,0.1,0.1,0.1l0,0c0,0,0.1,0,0.1-0.1
	c0,0,0,0,0,0C27,21.8,27,21.7,26.9,21.7L26.9,21.7z M27.4,21.7c-0.1,0-0.1,0-0.1,0.1s0.1,0.1,0.1,0.1c0,0,0.1,0,0.1-0.1
	C27.5,21.8,27.5,21.7,27.4,21.7L27.4,21.7z M27.9,21.7c-0.1,0-0.1,0-0.1,0.1s0,0.1,0.1,0.1l0,0c0,0,0.1,0,0.1-0.1c0,0,0,0,0,0
	S28,21.7,27.9,21.7L27.9,21.7L27.9,21.7z M19.8,22.2c0,0-0.1,0-0.1,0.1l0,0c0,0.1,0,0.1,0.1,0.1l0,0c0.1,0,0.1,0,0.1-0.1
	C19.9,22.3,19.8,22.2,19.8,22.2L19.8,22.2z M20.2,22.2c0,0-0.1,0-0.1,0.1l0,0c0,0.1,0,0.1,0.1,0.1s0.1,0,0.1-0.1
	C20.4,22.3,20.3,22.2,20.2,22.2L20.2,22.2z M20.7,22.2c-0.1,0-0.1,0-0.1,0.1s0,0.1,0.1,0.1s0.1,0,0.1-0.1l0,0
	C20.8,22.3,20.8,22.2,20.7,22.2L20.7,22.2z M21.2,22.2c0,0-0.1,0-0.1,0.1l0,0c0,0.1,0,0.1,0.1,0.1l0,0c0.1,0,0.1,0,0.1-0.1
	C21.3,22.3,21.3,22.2,21.2,22.2z M21.7,22.2c-0.1,0-0.1,0-0.1,0.1l0,0c0,0.1,0,0.1,0.1,0.1s0.1,0,0.1-0.1
	C21.8,22.3,21.8,22.2,21.7,22.2L21.7,22.2L21.7,22.2z M22.1,22.2c-0.1,0-0.1,0-0.1,0.1s0,0.1,0.1,0.1s0.1,0,0.1-0.1
	C22.3,22.3,22.2,22.2,22.1,22.2L22.1,22.2z M22.6,22.2c0,0-0.1,0-0.1,0.1l0,0c0,0.1,0,0.1,0.1,0.1c0.1,0,0.1,0,0.1-0.1l0,0
	C22.8,22.3,22.7,22.2,22.6,22.2L22.6,22.2L22.6,22.2z M23.1,22.2c-0.1,0-0.1,0-0.1,0.1l0,0c0,0.1,0,0.1,0.1,0.1s0.1,0,0.1-0.1
	C23.2,22.3,23.2,22.2,23.1,22.2L23.1,22.2L23.1,22.2z M23.6,22.2c0,0-0.1,0-0.1,0.1l0,0c0,0.1,0,0.1,0.1,0.1s0.1,0,0.1-0.1
	C23.7,22.3,23.6,22.2,23.6,22.2L23.6,22.2z M24.1,22.2c0,0-0.1,0-0.1,0.1s0,0.1,0.1,0.1c0.1,0,0.1,0,0.1-0.1l0,0
	C24.2,22.3,24.1,22.2,24.1,22.2L24.1,22.2L24.1,22.2z M24.5,22.2c0,0-0.1,0-0.1,0.1l0,0c0,0.1,0,0.1,0.1,0.1l0,0
	c0.1,0,0.1,0,0.1-0.1C24.6,22.3,24.6,22.2,24.5,22.2L24.5,22.2L24.5,22.2z M25,22.2c0,0-0.1,0-0.1,0.1l0,0c0,0.1,0,0.1,0.1,0.1l0,0
	c0.1,0,0.1,0,0.1-0.1C25.2,22.3,25.1,22.2,25,22.2L25,22.2z M25.5,22.2c-0.1,0-0.1,0-0.1,0.1s0.1,0.1,0.1,0.1c0.1,0,0.1,0,0.1-0.1
	C25.6,22.3,25.6,22.2,25.5,22.2L25.5,22.2z M25.9,22.2c0,0-0.1,0-0.1,0.1s0,0.1,0.1,0.1s0.1,0,0.1-0.1C26.1,22.3,26,22.2,25.9,22.2
	L25.9,22.2L25.9,22.2z M26.5,22.2c0,0-0.1,0-0.1,0.1l0,0c0,0.1,0,0.1,0.1,0.1s0.1,0,0.1-0.1C26.5,22.3,26.5,22.2,26.5,22.2
	L26.5,22.2z M26.9,22.2c-0.1,0-0.1,0-0.1,0.1l0,0c0,0.1,0,0.1,0.1,0.1s0.1,0,0.1-0.1l0,0C27,22.3,27,22.2,26.9,22.2L26.9,22.2z
	 M27.4,22.2c-0.1,0-0.1,0-0.1,0.1s0,0.1,0.1,0.1c0.1,0,0.1,0,0.1-0.1C27.5,22.3,27.5,22.2,27.4,22.2L27.4,22.2L27.4,22.2z
	 M27.9,22.2c-0.1,0-0.1,0-0.1,0.1l0,0c0,0.1,0,0.1,0.1,0.1s0.1,0,0.1-0.1l0,0C28,22.3,28,22.2,27.9,22.2L27.9,22.2L27.9,22.2z
	 M19.8,22.7c0,0-0.1,0-0.1,0.1l0,0c0,0,0,0.1,0.1,0.1c0,0,0,0,0,0c0.1,0,0.1,0,0.1-0.1S19.8,22.7,19.8,22.7L19.8,22.7z M20.2,22.7
	c-0.1,0-0.1,0-0.1,0.1s0,0.1,0.1,0.1l0,0c0.1,0,0.1,0,0.1-0.1C20.4,22.8,20.3,22.7,20.2,22.7L20.2,22.7z M20.7,22.7
	c-0.1,0-0.1,0-0.1,0.1s0,0.1,0.1,0.1l0,0c0,0,0.1,0,0.1-0.1l0,0C20.8,22.8,20.8,22.7,20.7,22.7L20.7,22.7z M21.2,22.7
	c0,0-0.1,0-0.1,0.1l0,0c0,0,0,0.1,0.1,0.1c0,0,0,0,0,0c0.1,0,0.1,0,0.1-0.1l0,0C21.3,22.8,21.3,22.7,21.2,22.7z M21.7,22.7
	c-0.1,0-0.1,0-0.1,0.1s0,0.1,0.1,0.1l0,0c0,0,0.1,0,0.1-0.1C21.8,22.8,21.8,22.7,21.7,22.7L21.7,22.7L21.7,22.7z M22.1,22.7
	c-0.1,0-0.1,0-0.1,0.1s0,0.1,0.1,0.1l0,0c0.1,0,0.1,0,0.1-0.1C22.3,22.8,22.3,22.8,22.1,22.7C22.2,22.7,22.1,22.7,22.1,22.7z
	 M22.6,22.7c0,0-0.1,0-0.1,0.1l0,0c0,0,0,0.1,0.1,0.1c0,0,0,0,0,0c0.1,0,0.1,0,0.1-0.1C22.8,22.8,22.7,22.7,22.6,22.7L22.6,22.7z
	 M23.1,22.7c-0.1,0-0.1,0-0.1,0.1s0,0.1,0.1,0.1l0,0c0,0,0.1,0,0.1-0.1C23.2,22.8,23.2,22.7,23.1,22.7L23.1,22.7L23.1,22.7z
	 M23.6,22.7c-0.1,0-0.1,0-0.1,0.1s0,0.1,0.1,0.1s0.1,0,0.1-0.1C23.7,22.8,23.6,22.7,23.6,22.7L23.6,22.7z M24.1,22.7
	c0,0-0.1,0-0.1,0.1s0,0.1,0.1,0.1s0.1,0,0.1-0.1C24.2,22.8,24.1,22.7,24.1,22.7z M24.5,22.7c0,0-0.1,0-0.1,0.1l0,0
	c0,0,0,0.1,0.1,0.1c0,0,0,0,0,0c0.1,0,0.1,0,0.1-0.1S24.6,22.7,24.5,22.7L24.5,22.7z M25,22.7c0,0-0.1,0-0.1,0.1l0,0
	c0,0,0,0.1,0.1,0.1c0,0,0,0,0,0c0.1,0,0.1,0,0.1-0.1l0,0C25.2,22.8,25.1,22.7,25,22.7L25,22.7z M25.5,22.7c-0.1,0-0.1,0-0.1,0.1
	s0,0.1,0.1,0.1l0,0c0.1,0,0.1,0,0.1-0.1C25.6,22.8,25.6,22.7,25.5,22.7L25.5,22.7z M25.9,22.7c0,0-0.1,0-0.1,0.1c0,0,0,0.1,0.1,0.1
	l0,0c0.1,0,0.1,0,0.1-0.1C26.1,22.8,26,22.7,25.9,22.7L25.9,22.7z M26.5,22.7c-0.1,0-0.1,0-0.1,0.1s0,0.1,0.1,0.1c0,0,0.1,0,0.1-0.1
	C26.5,22.8,26.5,22.7,26.5,22.7L26.5,22.7z M26.9,22.7c-0.1,0-0.1,0-0.1,0.1l0,0c0,0,0,0.1,0.1,0.1l0,0c0,0,0.1,0,0.1-0.1l0,0
	C27,22.8,27,22.7,26.9,22.7L26.9,22.7z M27.4,22.7c-0.1,0-0.1,0-0.1,0.1s0,0.1,0.1,0.1l0,0c0.1,0,0.1,0,0.1-0.1
	C27.5,22.8,27.5,22.7,27.4,22.7L27.4,22.7L27.4,22.7z M27.9,22.7c-0.1,0-0.1,0-0.1,0.1s0,0.1,0.1,0.1l0,0c0.1,0,0.1,0,0.1-0.1
	C28,22.8,27.9,22.7,27.9,22.7z M19.8,23.2c-0.1,0-0.1,0-0.1,0.1l0,0c0,0,0,0.1,0.1,0.1l0,0c0,0,0.1,0,0.1-0.1l0,0
	C19.9,23.3,19.8,23.2,19.8,23.2L19.8,23.2z M20.2,23.2c-0.1,0-0.1,0-0.1,0.1l0,0c0,0,0,0.1,0.1,0.1s0.1,0,0.1-0.1l0,0
	C20.4,23.3,20.3,23.2,20.2,23.2L20.2,23.2z M20.7,23.2c-0.1,0-0.1,0-0.1,0.1s0,0.1,0.1,0.1c0,0,0.1,0,0.1-0.1c0,0,0,0,0,0
	C20.8,23.3,20.8,23.2,20.7,23.2C20.7,23.2,20.7,23.2,20.7,23.2L20.7,23.2z M21.2,23.2c-0.1,0-0.1,0-0.1,0.1l0,0c0,0.1,0,0.1,0.1,0.1
	c0,0,0.1,0,0.1-0.1l0,0C21.3,23.3,21.3,23.2,21.2,23.2z M21.7,23.2c-0.1,0-0.1,0-0.1,0.1s0,0.1,0.1,0.1c0,0,0.1,0,0.1-0.1l0,0
	C21.8,23.3,21.8,23.2,21.7,23.2L21.7,23.2L21.7,23.2z M22.1,23.2c-0.1,0-0.1,0-0.1,0.1c0,0,0,0.1,0.1,0.1s0.1,0,0.1-0.1l0,0
	C22.3,23.3,22.2,23.2,22.1,23.2L22.1,23.2z M27.9,23.2c-0.1,0-0.1,0-0.1,0.1s0,0.1,0.1,0.1l0,0c0,0,0.1,0,0.1-0.1c0,0,0,0,0,0
	C28,23.3,28,23.2,27.9,23.2L27.9,23.2L27.9,23.2z M22.6,23.2c0,0-0.1,0-0.1,0.1l0,0c0,0.1,0,0.1,0.1,0.1c0.1,0,0.1,0,0.1-0.1l0,0
	C22.8,23.3,22.7,23.2,22.6,23.2L22.6,23.2L22.6,23.2z M23.1,23.2c0,0-0.1,0-0.1,0.1l0,0c0,0.1,0,0.1,0.1,0.1l0,0c0,0,0.1,0,0.1-0.1
	l0,0C23.2,23.3,23.2,23.2,23.1,23.2L23.1,23.2L23.1,23.2z M23.6,23.2c0,0-0.1,0-0.1,0.1l0,0c0,0,0,0.1,0.1,0.1l0,0
	c0.1,0,0.1,0,0.1-0.1l0,0C23.7,23.3,23.6,23.2,23.6,23.2L23.6,23.2z M24.1,23.2c-0.1,0-0.1,0-0.1,0.1l0,0c0,0,0,0.1,0.1,0.1l0,0
	c0,0,0.1,0,0.1-0.1c0,0,0,0,0,0C24.2,23.3,24.1,23.2,24.1,23.2L24.1,23.2L24.1,23.2z M24.5,23.2c0,0-0.1,0-0.1,0.1l0,0
	c0,0,0,0.1,0.1,0.1c0,0,0,0,0,0c0,0,0.1,0,0.1-0.1l0,0C24.6,23.3,24.6,23.2,24.5,23.2C24.6,23.2,24.5,23.2,24.5,23.2L24.5,23.2z
	 M25,23.2c0,0-0.1,0-0.1,0.1l0,0c0,0,0,0.1,0.1,0.1c0,0,0,0,0,0s0.1,0,0.1-0.1l0,0C25.2,23.3,25.1,23.2,25,23.2L25,23.2z M25.5,23.2
	c-0.1,0-0.1,0-0.1,0.1l0,0c0,0.1,0,0.1,0.1,0.1l0,0c0,0,0.1,0,0.1-0.1l0,0C25.6,23.3,25.6,23.2,25.5,23.2L25.5,23.2L25.5,23.2z
	 M25.9,23.2c-0.1,0-0.1,0-0.1,0.1l0,0c0,0,0,0.1,0.1,0.1l0,0c0,0,0.1,0,0.1-0.1l0,0C26.1,23.3,26,23.2,25.9,23.2
	C26,23.2,26,23.2,25.9,23.2L25.9,23.2z M26.5,23.2c0,0-0.1,0-0.1,0.1l0,0c0,0.1,0,0.1,0.1,0.1s0.1,0,0.1-0.1
	C26.6,23.3,26.5,23.2,26.5,23.2L26.5,23.2L26.5,23.2z M26.9,23.2c0,0-0.1,0-0.1,0.1l0,0c0,0,0,0.1,0.1,0.1l0,0c0,0,0.1,0,0.1-0.1
	c0,0,0,0,0,0C27,23.3,27,23.2,26.9,23.2L26.9,23.2L26.9,23.2z M27.4,23.2c-0.1,0-0.1,0-0.1,0.1l0,0c0,0.1,0,0.1,0.1,0.1
	c0.1,0,0.1,0,0.1-0.1l0,0C27.5,23.3,27.5,23.2,27.4,23.2L27.4,23.2L27.4,23.2z M22.1,23.7c0,0-0.1,0-0.1,0.1l0,0
	c0,0.1,0,0.1,0.1,0.1l0,0c0.1,0,0.1,0,0.1-0.1l0,0C22.3,23.7,22.2,23.7,22.1,23.7L22.1,23.7z M27.9,23.7c-0.1,0-0.1,0-0.1,0.1l0,0
	c0,0.1,0,0.1,0.1,0.1s0.1,0,0.1-0.1l0,0C28,23.7,28,23.7,27.9,23.7L27.9,23.7L27.9,23.7z M20.2,23.7c0,0-0.1,0-0.1,0.1c0,0,0,0,0,0
	c0,0.1,0,0.1,0.1,0.1l0,0c0.1,0,0.1,0,0.1-0.1C20.4,23.7,20.3,23.7,20.2,23.7L20.2,23.7L20.2,23.7z M20.7,23.7c-0.1,0-0.1,0-0.1,0.1
	l0,0c0,0.1,0,0.1,0.1,0.1c0,0,0.1,0,0.1-0.1l0,0C20.8,23.7,20.8,23.7,20.7,23.7C20.7,23.7,20.7,23.7,20.7,23.7L20.7,23.7z
	 M21.2,23.7c0,0-0.1,0-0.1,0.1c0,0,0,0,0,0c0,0,0,0.1,0.1,0.1l0,0c0,0,0.1,0,0.1-0.1l0,0C21.3,23.7,21.3,23.7,21.2,23.7L21.2,23.7z
	 M21.7,23.7c0,0-0.1,0-0.1,0.1l0,0c0,0.1,0,0.1,0.1,0.1s0.1,0,0.1-0.1l0,0C21.8,23.8,21.8,23.7,21.7,23.7L21.7,23.7L21.7,23.7z
	 M22.6,23.7c0,0-0.1,0-0.1,0.1c0,0,0,0,0,0c0,0,0,0.1,0.1,0.1l0,0c0.1,0,0.1,0,0.1-0.1l0,0C22.8,23.7,22.7,23.7,22.6,23.7L22.6,23.7
	L22.6,23.7z M23.1,23.7c0,0-0.1,0-0.1,0.1l0,0c0,0.1,0,0.1,0.1,0.1s0.1,0,0.1-0.1C23.2,23.7,23.2,23.7,23.1,23.7L23.1,23.7
	L23.1,23.7z M23.6,23.7c0,0-0.1,0-0.1,0.1c0,0,0,0,0,0c0,0.1,0,0.1,0.1,0.1l0,0c0.1,0,0.1,0,0.1-0.1C23.7,23.7,23.6,23.7,23.6,23.7
	L23.6,23.7z M24.1,23.7c0,0-0.1,0-0.1,0.1l0,0c0,0.1,0,0.1,0.1,0.1c0.1,0,0.1,0,0.1-0.1l0,0C24.2,23.7,24.1,23.7,24.1,23.7
	L24.1,23.7L24.1,23.7z M24.5,23.7c0,0-0.1,0-0.1,0.1c0,0,0,0,0,0c0,0,0,0.1,0.1,0.1l0,0c0.1,0,0.1,0,0.1-0.1
	C24.6,23.7,24.6,23.7,24.5,23.7L24.5,23.7L24.5,23.7z M25,23.7c0,0-0.1,0-0.1,0.1c0,0,0,0,0,0c0,0,0,0.1,0.1,0.1l0,0
	c0.1,0,0.1,0,0.1-0.1C25.2,23.7,25.1,23.7,25,23.7L25,23.7z M25.5,23.7c-0.1,0-0.1,0-0.1,0.1l0,0c0,0.1,0,0.1,0.1,0.1l0,0
	c0.1,0,0.1,0,0.1-0.1S25.6,23.7,25.5,23.7L25.5,23.7z M25.9,23.7c0,0-0.1,0-0.1,0.1l0,0c0,0.1,0,0.1,0.1,0.1l0,0
	c0.1,0,0.1,0,0.1-0.1S26,23.7,25.9,23.7L25.9,23.7L25.9,23.7z M26.5,23.7c0,0-0.1,0-0.1,0.1c0,0,0,0,0,0c0,0.1,0,0.1,0.1,0.1l0,0
	c0.1,0,0.1,0,0.1-0.1C26.6,23.7,26.5,23.7,26.5,23.7L26.5,23.7z M26.9,23.7c0,0-0.1,0-0.1,0.1l0,0c0,0,0,0.1,0.1,0.1l0,0
	c0.1,0,0.1,0,0.1-0.1l0,0C27,23.7,27,23.7,26.9,23.7L26.9,23.7z M27.4,23.7c-0.1,0-0.1,0-0.1,0.1l0,0c0,0.1,0,0.1,0.1,0.1l0,0
	c0.1,0,0.1,0,0.1-0.1C27.5,23.7,27.5,23.7,27.4,23.7L27.4,23.7L27.4,23.7z M20.7,24.1c-0.1,0-0.1,0-0.1,0.1s0,0.1,0.1,0.1
	c0,0,0.1,0,0.1-0.1l0,0C20.8,24.2,20.8,24.2,20.7,24.1z M21.2,24.1c-0.1,0-0.1,0-0.1,0.1l0,0c0,0,0,0.1,0.1,0.1l0,0
	c0.1,0,0.1,0,0.1-0.1l0,0C21.3,24.2,21.3,24.1,21.2,24.1L21.2,24.1z M21.7,24.1c-0.1,0-0.1,0-0.1,0.1s0,0.1,0.1,0.1
	c0,0,0.1,0,0.1-0.1C21.8,24.2,21.8,24.1,21.7,24.1L21.7,24.1L21.7,24.1z M22.1,24.1c-0.1,0-0.1,0-0.1,0.1c0,0,0,0.1,0.1,0.1
	s0.1,0,0.1-0.1C22.3,24.2,22.2,24.1,22.1,24.1L22.1,24.1L22.1,24.1z M22.6,24.1c-0.1,0-0.1,0-0.1,0.1l0,0c0,0.1,0,0.1,0.1,0.1
	c0.1,0,0.1,0,0.1-0.1C22.8,24.2,22.7,24.1,22.6,24.1L22.6,24.1L22.6,24.1z M23.1,24.1c-0.1,0-0.1,0-0.1,0.1s0,0.1,0.1,0.1
	c0,0,0.1,0,0.1-0.1C23.2,24.2,23.2,24.1,23.1,24.1L23.1,24.1L23.1,24.1z M23.6,24.1c-0.1,0-0.1,0-0.1,0.1l0,0c0,0,0,0.1,0.1,0.1
	s0.1,0,0.1-0.1C23.7,24.2,23.6,24.1,23.6,24.1L23.6,24.1z M24.1,24.1c-0.1,0-0.1,0-0.1,0.1c0,0,0,0.1,0.1,0.1c0,0,0.1,0,0.1-0.1l0,0
	C24.2,24.2,24.1,24.1,24.1,24.1L24.1,24.1L24.1,24.1z M24.5,24.1c-0.1,0-0.1,0-0.1,0.1l0,0c0,0,0,0.1,0.1,0.1l0,0
	c0.1,0,0.1,0,0.1-0.1l0,0C24.6,24.2,24.6,24.1,24.5,24.1L24.5,24.1L24.5,24.1z M25,24.1c-0.1,0-0.1,0-0.1,0.1l0,0c0,0,0,0.1,0.1,0.1
	l0,0c0.1,0,0.1,0,0.1-0.1l0,0C25.2,24.2,25.1,24.1,25,24.1L25,24.1z M25.5,24.1c-0.1,0-0.1,0-0.1,0.1s0.1,0.1,0.1,0.1
	c0,0,0.1,0,0.1-0.1C25.6,24.2,25.6,24.2,25.5,24.1L25.5,24.1z M25.9,24.1c-0.1,0-0.1,0-0.1,0.1c0,0,0,0.1,0.1,0.1s0.1,0,0.1-0.1l0,0
	C26.1,24.2,26,24.1,25.9,24.1L25.9,24.1L25.9,24.1z M26.5,24.1c-0.1,0-0.1,0-0.1,0.1l0,0c0,0.1,0,0.1,0.1,0.1s0.1,0,0.1-0.1
	C26.5,24.2,26.5,24.1,26.5,24.1L26.5,24.1z M26.9,24.1c-0.1,0-0.1,0-0.1,0.1s0,0.1,0.1,0.1l0,0c0,0,0.1,0,0.1-0.1l0,0
	C27,24.2,27,24.2,26.9,24.1L26.9,24.1z M27.4,24.1c-0.1,0-0.1,0-0.1,0.1s0,0.1,0.1,0.1c0.1,0,0.1,0,0.1-0.1
	C27.5,24.2,27.5,24.1,27.4,24.1L27.4,24.1L27.4,24.1z M27.9,24.1c-0.1,0-0.1,0-0.1,0.1s0,0.1,0.1,0.1c0,0,0.1,0,0.1-0.1l0,0
	C28,24.2,28,24.1,27.9,24.1L27.9,24.1L27.9,24.1z M21.2,24.6c0,0-0.1,0-0.1,0.1l0,0c0,0,0,0.1,0.1,0.1l0,0c0.1,0,0.1,0,0.1-0.1
	S21.3,24.6,21.2,24.6z M21.7,24.6c-0.1,0-0.1,0-0.1,0.1l0,0c0,0.1,0,0.1,0.1,0.1s0.1,0,0.1-0.1S21.8,24.6,21.7,24.6L21.7,24.6
	L21.7,24.6z M22.1,24.6c0,0-0.1,0-0.1,0.1c0,0.1,0,0.1,0.1,0.1l0,0c0.1,0,0.1,0,0.1-0.1S22.2,24.6,22.1,24.6z M22.6,24.6
	c0,0-0.1,0-0.1,0.1l0,0c0,0,0,0.1,0.1,0.1l0,0c0.1,0,0.1,0,0.1-0.1l0,0C22.8,24.7,22.7,24.6,22.6,24.6L22.6,24.6L22.6,24.6z
	 M23.1,24.6c-0.1,0-0.1,0-0.1,0.1l0,0c0,0.1,0,0.1,0.1,0.1s0.1,0,0.1-0.1S23.2,24.6,23.1,24.6L23.1,24.6L23.1,24.6z M23.6,24.6
	c0,0-0.1,0-0.1,0.1l0,0c0,0.1,0,0.1,0.1,0.1l0,0c0.1,0,0.1,0,0.1-0.1C23.7,24.7,23.6,24.6,23.6,24.6L23.6,24.6z M24.1,24.6
	c0,0-0.1,0-0.1,0.1c0,0.1,0,0.1,0.1,0.1c0.1,0,0.1,0,0.1-0.1l0,0C24.2,24.7,24.1,24.6,24.1,24.6L24.1,24.6L24.1,24.6z M24.5,24.6
	c0,0-0.1,0-0.1,0.1l0,0c0,0,0,0.1,0.1,0.1l0,0c0.1,0,0.1,0,0.1-0.1C24.6,24.7,24.6,24.6,24.5,24.6L24.5,24.6L24.5,24.6z M25,24.6
	c0,0-0.1,0-0.1,0.1l0,0c0,0,0,0.1,0.1,0.1l0,0c0.1,0,0.1,0,0.1-0.1C25.2,24.7,25.1,24.6,25,24.6L25,24.6z M25.5,24.6
	c-0.1,0-0.1,0-0.1,0.1c0,0.1,0,0.1,0.1,0.1l0,0c0.1,0,0.1,0,0.1-0.1S25.6,24.6,25.5,24.6L25.5,24.6z M25.9,24.6c0,0-0.1,0-0.1,0.1
	c0,0.1,0,0.1,0.1,0.1l0,0c0.1,0,0.1,0,0.1-0.1S26,24.6,25.9,24.6L25.9,24.6L25.9,24.6z M26.5,24.6c0,0-0.1,0-0.1,0.1l0,0
	c0,0.1,0,0.1,0.1,0.1l0,0c0.1,0,0.1,0,0.1-0.1C26.5,24.7,26.5,24.6,26.5,24.6L26.5,24.6z M26.9,24.6c-0.1,0-0.1,0-0.1,0.1l0,0
	c0,0,0,0.1,0.1,0.1l0,0c0.1,0,0.1,0,0.1-0.1l0,0C27,24.7,27,24.6,26.9,24.6L26.9,24.6z M27.4,24.6c-0.1,0-0.1,0-0.1,0.1
	c0,0.1,0,0.1,0.1,0.1l0,0c0.1,0,0.1,0,0.1-0.1C27.5,24.7,27.5,24.6,27.4,24.6L27.4,24.6L27.4,24.6z M27.9,24.6c-0.1,0-0.1,0-0.1,0.1
	c0,0.1,0,0.1,0.1,0.1s0.1,0,0.1-0.1l0,0C28,24.7,28,24.6,27.9,24.6L27.9,24.6L27.9,24.6z M28.3,24.6c0,0-0.1,0-0.1,0.1l0,0
	c0,0,0,0.1,0.1,0.1l0,0c0.1,0,0.1,0,0.1-0.1C28.5,24.7,28.4,24.6,28.3,24.6L28.3,24.6z M21.2,25.1c0,0-0.1,0-0.1,0.1c0,0,0,0,0,0
	c0,0,0,0.1,0.1,0.1l0,0c0.1,0,0.1,0,0.1-0.1C21.3,25.2,21.3,25.1,21.2,25.1L21.2,25.1L21.2,25.1z M21.7,25.1c0,0-0.1,0-0.1,0.1l0,0
	c0,0.1,0,0.1,0.1,0.1s0.1,0,0.1-0.1C21.8,25.2,21.8,25.1,21.7,25.1L21.7,25.1L21.7,25.1z M22.1,25.1c0,0-0.1,0-0.1,0.1l0,0
	c0,0.1,0,0.1,0.1,0.1l0,0c0.1,0,0.1,0,0.1-0.1C22.3,25.2,22.2,25.1,22.1,25.1L22.1,25.1L22.1,25.1z M22.6,25.1c0,0-0.1,0-0.1,0.1
	l0,0c0,0.1,0,0.1,0.1,0.1l0,0c0,0,0.1,0,0.1-0.1l0,0C22.8,25.2,22.7,25.1,22.6,25.1L22.6,25.1L22.6,25.1z M23.1,25.1
	c-0.1,0-0.1,0-0.1,0.1l0,0c0,0.1,0,0.1,0.1,0.1s0.1,0,0.1-0.1l0,0C23.2,25.2,23.2,25.1,23.1,25.1C23.1,25.1,23.1,25.1,23.1,25.1
	L23.1,25.1z M23.6,25.1c0,0-0.1,0-0.1,0.1l0,0c0,0.1,0,0.1,0.1,0.1s0.1,0,0.1-0.1C23.7,25.2,23.6,25.1,23.6,25.1L23.6,25.1
	L23.6,25.1z M24.1,25.1c0,0-0.1,0-0.1,0.1c0,0.1,0,0.1,0.1,0.1c0,0,0.1,0,0.1-0.1l0,0C24.2,25.2,24.1,25.1,24.1,25.1L24.1,25.1
	L24.1,25.1z M24.5,25.1c0,0-0.1,0-0.1,0.1l0,0c0,0.1,0,0.1,0.1,0.1l0,0c0,0,0.1,0,0.1-0.1l0,0C24.6,25.2,24.6,25.1,24.5,25.1
	C24.6,25.1,24.5,25.1,24.5,25.1L24.5,25.1z M25,25.1c0,0-0.1,0-0.1,0.1l0,0c0,0.1,0,0.1,0.1,0.1l0,0c0,0,0.1,0,0.1-0.1l0,0
	C25.2,25.2,25.1,25.1,25,25.1L25,25.1L25,25.1z M25.5,25.1c-0.1,0-0.1,0-0.1,0.1c0,0.1,0.1,0.1,0.1,0.1c0.1,0,0.1,0,0.1-0.1l0,0
	C25.6,25.2,25.6,25.1,25.5,25.1L25.5,25.1L25.5,25.1z M25.9,25.1c0,0-0.1,0-0.1,0.1c0,0.1,0,0.1,0.1,0.1c0,0,0.1,0,0.1-0.1l0,0
	C26.1,25.2,26,25.1,25.9,25.1C26,25.1,26,25.1,25.9,25.1L25.9,25.1z M26.5,25.1c0,0-0.1,0-0.1,0.1l0,0c0,0.1,0,0.1,0.1,0.1
	s0.1,0,0.1-0.1l0,0C26.6,25.2,26.5,25.1,26.5,25.1L26.5,25.1L26.5,25.1z M26.9,25.1c-0.1,0-0.1,0-0.1,0.1l0,0c0,0.1,0,0.1,0.1,0.1
	c0,0,0.1,0,0.1-0.1l0,0C27,25.2,27,25.1,26.9,25.1C27,25.1,26.9,25.1,26.9,25.1L26.9,25.1z M27.4,25.1c-0.1,0-0.1,0-0.1,0.1
	c0,0.1,0,0.1,0.1,0.1c0.1,0,0.1,0,0.1-0.1C27.5,25.2,27.5,25.1,27.4,25.1L27.4,25.1L27.4,25.1z M27.9,25.1c-0.1,0-0.1,0-0.1,0.1
	c0,0.1,0,0.1,0.1,0.1c0,0,0.1,0,0.1-0.1l0,0C28,25.2,28,25.1,27.9,25.1L27.9,25.1L27.9,25.1z M28.3,25.1c0,0-0.1,0-0.1,0.1l0,0
	c0,0,0,0.1,0.1,0.1l0,0c0,0,0.1,0,0.1-0.1l0,0C28.5,25.2,28.4,25.1,28.3,25.1C28.4,25.1,28.3,25.1,28.3,25.1L28.3,25.1z M21.2,25.6
	c0,0-0.1,0-0.1,0.1l0,0c0,0,0,0.1,0.1,0.1c0,0,0,0,0,0c0.1,0,0.1,0,0.1-0.1l0,0C21.3,25.6,21.3,25.6,21.2,25.6z M21.7,25.6
	c0,0-0.1,0-0.1,0.1l0,0c0,0.1,0,0.1,0.1,0.1l0,0c0,0,0.1,0,0.1-0.1S21.8,25.6,21.7,25.6L21.7,25.6L21.7,25.6z M22.1,25.6
	c-0.1,0-0.1,0-0.1,0.1l0,0c0,0,0,0.1,0.1,0.1l0,0c0.1,0,0.1,0,0.1-0.1S22.2,25.6,22.1,25.6L22.1,25.6z M22.6,25.6
	c-0.1,0-0.1,0-0.1,0.1l0,0c0,0.1,0,0.1,0.1,0.1c0.1,0,0.1,0,0.1-0.1S22.7,25.6,22.6,25.6L22.6,25.6L22.6,25.6z M23.1,25.6
	c-0.1,0-0.1,0-0.1,0.1s0,0.1,0.1,0.1l0,0c0,0,0.1,0,0.1-0.1l0,0C23.2,25.6,23.2,25.6,23.1,25.6L23.1,25.6L23.1,25.6z M23.6,25.6
	c-0.1,0-0.1,0-0.1,0.1l0,0c0,0,0,0.1,0.1,0.1l0,0c0.1,0,0.1,0,0.1-0.1l0,0C23.7,25.6,23.6,25.6,23.6,25.6L23.6,25.6z M24.1,25.6
	c-0.1,0-0.1,0-0.1,0.1c0,0,0,0.1,0.1,0.1l0,0c0,0,0.1,0,0.1-0.1c0,0,0,0,0,0C24.2,25.6,24.1,25.6,24.1,25.6L24.1,25.6L24.1,25.6z
	 M24.5,25.6c-0.1,0-0.1,0-0.1,0.1l0,0c0,0,0,0.1,0.1,0.1c0,0,0,0,0,0c0,0,0.1,0,0.1-0.1l0,0C24.6,25.6,24.6,25.6,24.5,25.6
	L24.5,25.6z M25,25.6c-0.1,0-0.1,0-0.1,0.1l0,0c0,0,0,0.1,0.1,0.1c0,0,0,0,0,0s0.1,0,0.1-0.1l0,0C25.2,25.6,25.1,25.6,25,25.6
	L25,25.6z M25.5,25.6c-0.1,0-0.1,0-0.1,0.1s0,0.1,0.1,0.1l0,0c0,0,0.1,0,0.1-0.1l0,0C25.6,25.6,25.6,25.6,25.5,25.6L25.5,25.6z
	 M25.9,25.6c-0.1,0-0.1,0-0.1,0.1c0,0,0,0.1,0.1,0.1l0,0c0,0,0.1,0,0.1-0.1l0,0C26.1,25.6,26,25.6,25.9,25.6L25.9,25.6z M26.5,25.6
	c-0.1,0-0.1,0-0.1,0.1l0,0c0,0.1,0,0.1,0.1,0.1s0.1,0,0.1-0.1l0,0C26.5,25.6,26.5,25.6,26.5,25.6L26.5,25.6z M26.9,25.6
	c-0.1,0-0.1,0-0.1,0.1c0,0,0,0.1,0.1,0.1l0,0c0,0,0.1,0,0.1-0.1c0,0,0,0,0,0C27,25.6,27,25.6,26.9,25.6L26.9,25.6z M27.4,25.6
	c-0.1,0-0.1,0-0.1,0.1s0.1,0.1,0.1,0.1c0,0,0.1,0,0.1-0.1C27.5,25.6,27.5,25.6,27.4,25.6L27.4,25.6z M27.9,25.6
	c-0.1,0-0.1,0-0.1,0.1s0,0.1,0.1,0.1l0,0c0,0,0.1,0,0.1-0.1c0,0,0,0,0,0C28,25.6,28,25.6,27.9,25.6L27.9,25.6L27.9,25.6z M28.3,25.6
	c-0.1,0-0.1,0-0.1,0.1l0,0c0,0,0,0.1,0.1,0.1c0,0,0,0,0,0c0,0,0.1,0,0.1-0.1l0,0C28.5,25.6,28.4,25.6,28.3,25.6L28.3,25.6L28.3,25.6
	z M22.6,26.1c0,0-0.1,0-0.1,0.1l0,0c0,0,0,0.1,0.1,0.1l0,0c0.1,0,0.1,0,0.1-0.1l0,0C22.8,26.1,22.7,26.1,22.6,26.1L22.6,26.1z
	 M23.1,26.1c-0.1,0-0.1,0-0.1,0.1l0,0c0,0.1,0,0.1,0.1,0.1s0.1,0,0.1-0.1S23.2,26.1,23.1,26.1L23.1,26.1z M23.6,26.1
	c0,0-0.1,0-0.1,0.1l0,0c0,0.1,0,0.1,0.1,0.1l0,0c0.1,0,0.1,0,0.1-0.1C23.7,26.1,23.6,26.1,23.6,26.1z M24.1,26.1c0,0-0.1,0-0.1,0.1
	s0,0.1,0.1,0.1s0.1,0,0.1-0.1l0,0C24.2,26.1,24.1,26.1,24.1,26.1L24.1,26.1z M24.5,26.1c0,0-0.1,0-0.1,0.1l0,0c0,0,0,0.1,0.1,0.1
	l0,0c0.1,0,0.1,0,0.1-0.1C24.6,26.1,24.6,26.1,24.5,26.1L24.5,26.1z M25,26.1c0,0-0.1,0-0.1,0.1l0,0c0,0,0,0.1,0.1,0.1l0,0
	c0.1,0,0.1,0,0.1-0.1C25.2,26.1,25.1,26.1,25,26.1z M25.5,26.1c-0.1,0-0.1,0-0.1,0.1s0,0.1,0.1,0.1l0,0c0.1,0,0.1,0,0.1-0.1
	S25.6,26.1,25.5,26.1L25.5,26.1z M25.9,26.1c0,0-0.1,0-0.1,0.1s0,0.1,0.1,0.1l0,0c0.1,0,0.1,0,0.1-0.1S26,26.1,25.9,26.1L25.9,26.1z
	 M26.5,26.1c0,0-0.1,0-0.1,0.1l0,0c0,0.1,0,0.1,0.1,0.1l0,0c0.1,0,0.1,0,0.1-0.1C26.5,26.1,26.5,26.1,26.5,26.1L26.5,26.1z
	 M26.9,26.1c-0.1,0-0.1,0-0.1,0.1l0,0c0,0,0,0.1,0.1,0.1l0,0c0.1,0,0.1,0,0.1-0.1l0,0C27,26.1,27,26.1,26.9,26.1L26.9,26.1z
	 M27.4,26.1c-0.1,0-0.1,0-0.1,0.1s0,0.1,0.1,0.1l0,0c0.1,0,0.1,0,0.1-0.1C27.5,26.1,27.5,26.1,27.4,26.1L27.4,26.1L27.4,26.1z
	 M27.9,26.1c-0.1,0-0.1,0-0.1,0.1s0,0.1,0.1,0.1s0.1,0,0.1-0.1l0,0C28,26.1,28,26.1,27.9,26.1L27.9,26.1L27.9,26.1z M28.3,26.1
	c0,0-0.1,0-0.1,0.1l0,0c0,0.1,0,0.1,0.1,0.1l0,0c0.1,0,0.1,0,0.1-0.1S28.4,26.1,28.3,26.1L28.3,26.1z M22.6,26.6c0,0-0.1,0-0.1,0.1
	l0,0c0,0.1,0,0.1,0.1,0.1c0.1,0,0.1,0,0.1-0.1S22.7,26.6,22.6,26.6z M23.1,26.6c-0.1,0-0.1,0-0.1,0.1c0,0.1,0,0.1,0.1,0.1
	c0,0,0.1,0,0.1-0.1l0,0C23.2,26.6,23.2,26.6,23.1,26.6C23.1,26.6,23.1,26.6,23.1,26.6z M23.6,26.6c-0.1,0-0.1,0-0.1,0.1
	c0,0.1,0,0.1,0.1,0.1s0.1,0,0.1-0.1C23.7,26.6,23.6,26.6,23.6,26.6z M24.1,26.6c0,0-0.1,0-0.1,0.1c0,0,0,0.1,0.1,0.1l0,0
	c0.1,0,0.1,0,0.1-0.1S24.1,26.6,24.1,26.6z M24.5,26.6c0,0-0.1,0-0.1,0.1l0,0c0,0,0,0.1,0.1,0.1c0,0,0,0,0,0c0.1,0,0.1,0,0.1-0.1
	S24.6,26.6,24.5,26.6z M25,26.6c0,0-0.1,0-0.1,0.1l0,0c0,0,0,0.1,0.1,0.1c0,0,0,0,0,0s0.1,0,0.1-0.1l0,0
	C25.2,26.6,25.1,26.6,25,26.6L25,26.6z M25.5,26.6c-0.1,0-0.1,0-0.1,0.1c0,0.1,0,0.1,0.1,0.1l0,0c0.1,0,0.1,0,0.1-0.1
	S25.6,26.6,25.5,26.6z M25.9,26.6c0,0-0.1,0-0.1,0.1c0,0,0,0.1,0.1,0.1l0,0c0.1,0,0.1,0,0.1-0.1S26,26.6,25.9,26.6z M26.5,26.6
	c-0.1,0-0.1,0-0.1,0.1c0,0.1,0,0.1,0.1,0.1s0.1,0,0.1-0.1C26.5,26.6,26.5,26.6,26.5,26.6L26.5,26.6z M26.9,26.6
	c-0.1,0-0.1,0-0.1,0.1l0,0c0,0,0,0.1,0.1,0.1l0,0c0,0,0.1,0,0.1-0.1c0,0,0,0,0,0C27,26.6,27,26.6,26.9,26.6L26.9,26.6L26.9,26.6z
	 M27.4,26.6c-0.1,0-0.1,0-0.1,0.1c0,0.1,0.1,0.1,0.1,0.1c0,0,0.1,0,0.1-0.1S27.5,26.6,27.4,26.6L27.4,26.6L27.4,26.6z M27.9,26.6
	c-0.1,0-0.1,0-0.1,0.1c0,0.1,0,0.1,0.1,0.1l0,0c0,0,0.1,0,0.1-0.1l0,0C28,26.6,28,26.6,27.9,26.6L27.9,26.6L27.9,26.6z M28.3,26.6
	c0,0-0.1,0-0.1,0.1l0,0c0,0,0,0.1,0.1,0.1c0,0,0,0,0,0c0.1,0,0.1,0,0.1-0.1S28.4,26.6,28.3,26.6L28.3,26.6z M28.8,26.6
	c0,0-0.1,0-0.1,0.1l0,0c0,0,0,0.1,0.1,0.1c0,0,0,0,0,0c0,0,0.1,0,0.1-0.1l0,0C29,26.6,28.9,26.6,28.8,26.6
	C28.8,26.5,28.8,26.5,28.8,26.6L28.8,26.6z M23.1,27c0,0-0.1,0-0.1,0.1l0,0c0,0.1,0,0.1,0.1,0.1l0,0c0,0,0.1,0,0.1-0.1l0,0
	C23.2,27.1,23.2,27,23.1,27L23.1,27z M23.6,27c0,0-0.1,0-0.1,0.1l0,0c0,0,0,0.1,0.1,0.1l0,0c0.1,0,0.1,0,0.1-0.1l0,0
	C23.7,27.1,23.6,27,23.6,27z M24.1,27c-0.1,0-0.1,0-0.1,0.1l0,0c0,0,0,0.1,0.1,0.1l0,0c0,0,0.1,0,0.1-0.1c0,0,0,0,0,0
	C24.2,27.1,24.1,27,24.1,27L24.1,27z M24.5,27c0,0-0.1,0-0.1,0.1l0,0c0,0,0,0.1,0.1,0.1c0,0,0,0,0,0c0,0,0.1,0,0.1-0.1l0,0
	C24.6,27.1,24.6,27,24.5,27L24.5,27z M25,27c0,0-0.1,0-0.1,0.1l0,0c0,0,0,0.1,0.1,0.1c0,0,0,0,0,0s0.1,0,0.1-0.1l0,0
	C25.2,27.1,25.1,27,25,27z M25.5,27c-0.1,0-0.1,0-0.1,0.1l0,0c0,0.1,0,0.1,0.1,0.1l0,0c0,0,0.1,0,0.1-0.1l0,0
	C25.6,27.1,25.6,27,25.5,27L25.5,27z M25.9,27c-0.1,0-0.1,0-0.1,0.1l0,0c0,0,0,0.1,0.1,0.1l0,0c0,0,0.1,0,0.1-0.1l0,0
	C26.1,27.1,26,27,25.9,27L25.9,27z M26.5,27c0,0-0.1,0-0.1,0.1l0,0c0,0.1,0,0.1,0.1,0.1s0.1,0,0.1-0.1C26.5,27.1,26.5,27,26.5,27
	L26.5,27z M26.9,27c0,0-0.1,0-0.1,0.1l0,0c0,0,0,0.1,0.1,0.1l0,0c0,0,0.1,0,0.1-0.1c0,0,0,0,0,0C27,27.1,27,27,26.9,27L26.9,27z
	 M27.4,27c-0.1,0-0.1,0-0.1,0.1l0,0c0,0.1,0.1,0.1,0.1,0.1c0,0,0.1,0,0.1-0.1C27.5,27.1,27.5,27,27.4,27L27.4,27L27.4,27z M27.9,27
	c-0.1,0-0.1,0-0.1,0.1c0,0.1,0,0.1,0.1,0.1l0,0c0,0,0.1,0,0.1-0.1c0,0,0,0,0,0C28,27.1,28,27,27.9,27L27.9,27L27.9,27z M28.3,27
	c0,0-0.1,0-0.1,0.1l0,0c0,0,0,0.1,0.1,0.1c0,0,0,0,0,0c0,0,0.1,0,0.1-0.1l0,0C28.5,27.1,28.4,27,28.3,27L28.3,27L28.3,27z M28.8,27
	c0,0-0.1,0-0.1,0.1l0,0c0,0.1,0,0.1,0.1,0.1c0.1,0,0.1,0,0.1-0.1C29,27.1,28.9,27,28.8,27L28.8,27L28.8,27z M24.1,27.5
	c-0.1,0-0.1,0-0.1,0.1s0,0.1,0.1,0.1c0.1,0,0.1,0,0.1-0.1C24.2,27.5,24.1,27.5,24.1,27.5L24.1,27.5z M24.5,27.5
	c-0.1,0-0.1,0-0.1,0.1s0,0.1,0.1,0.1s0.1,0,0.1-0.1C24.6,27.5,24.6,27.5,24.5,27.5z M25,27.5c-0.1,0-0.1,0-0.1,0.1s0,0.1,0.1,0.1
	s0.1,0,0.1-0.1l0,0C25.2,27.5,25.1,27.5,25,27.5z M25.5,27.5c-0.1,0-0.1,0-0.1,0.1s0,0.1,0.1,0.1h0c0.1,0,0.1,0,0.1-0.1
	C25.6,27.5,25.6,27.5,25.5,27.5z M25.9,27.5c-0.1,0-0.1,0-0.1,0.1s0,0.1,0.1,0.1c0.1,0,0.1,0,0.1-0.1C26.1,27.5,26,27.5,25.9,27.5z
	 M26.5,27.5c0,0-0.1,0-0.1,0.1c0,0,0,0,0,0s0,0.1,0.1,0.1l0,0c0.1,0,0.1,0,0.1-0.1C26.6,27.5,26.5,27.5,26.5,27.5z M26.9,27.5
	c-0.1,0-0.1,0-0.1,0.1s0,0.1,0.1,0.1c0,0,0.1,0,0.1-0.1l0,0C27,27.5,27,27.5,26.9,27.5L26.9,27.5z M27.4,27.5c-0.1,0-0.1,0-0.1,0.1
	l0,0c0,0.1,0,0.1,0.1,0.1c0.1,0,0.1,0,0.1-0.1C27.5,27.5,27.5,27.5,27.4,27.5L27.4,27.5L27.4,27.5z M27.9,27.5c-0.1,0-0.1,0-0.1,0.1
	s0,0.1,0.1,0.1s0.1,0,0.1-0.1C28,27.5,27.9,27.5,27.9,27.5z M28.3,27.5c-0.1,0-0.1,0-0.1,0.1s0,0.1,0.1,0.1c0.1,0,0.1,0,0.1-0.1l0,0
	C28.5,27.5,28.4,27.5,28.3,27.5L28.3,27.5z M28.8,27.5c-0.1,0-0.1,0-0.1,0.1s0,0.1,0.1,0.1c0.1,0,0.1,0,0.1-0.1
	C29,27.5,28.9,27.5,28.8,27.5L28.8,27.5z M29.3,27.5c0,0-0.1,0-0.1,0.1l0,0c0,0.1,0,0.1,0.1,0.1l0,0c0,0,0.1,0,0.1-0.1
	C29.4,27.5,29.4,27.5,29.3,27.5L29.3,27.5L29.3,27.5z M25.9,28c-0.1,0-0.1,0-0.1,0.1c0,0,0,0.1,0.1,0.1s0.1,0,0.1-0.1l0,0
	C26.1,28,26,28,25.9,28L25.9,28z M26.5,28c-0.1,0-0.1,0-0.1,0.1l0,0c0,0.1,0,0.1,0.1,0.1s0.1,0,0.1-0.1l0,0C26.5,28,26.5,28,26.5,28
	L26.5,28z M26.9,28c-0.1,0-0.1,0-0.1,0.1c0,0.1,0,0.1,0.1,0.1l0,0c0,0,0.1,0,0.1-0.1l0,0C27,28,27,28,26.9,28L26.9,28z M27.4,28
	c-0.1,0-0.1,0-0.1,0.1c0,0.1,0,0.1,0.1,0.1c0.1,0,0.1,0,0.1-0.1C27.5,28,27.5,28,27.4,28L27.4,28z M27.9,28c-0.1,0-0.1,0-0.1,0.1
	c0,0.1,0,0.1,0.1,0.1c0,0,0.1,0,0.1-0.1l0,0C28,28,28,28,27.9,28L27.9,28L27.9,28z M28.3,28c-0.1,0-0.1,0-0.1,0.1l0,0
	c0,0,0,0.1,0.1,0.1l0,0c0.1,0,0.1,0,0.1-0.1l0,0C28.5,28,28.4,28,28.3,28L28.3,28z M27.9,28.5c-0.1,0-0.1,0-0.1,0.1s0,0.1,0.1,0.1
	s0.1,0,0.1-0.1l0,0C28,28.5,28,28.5,27.9,28.5L27.9,28.5z M28.3,28.5c0,0-0.1,0-0.1,0.1l0,0c0,0,0,0.1,0.1,0.1l0,0
	c0.1,0,0.1,0,0.1-0.1C28.5,28.5,28.4,28.5,28.3,28.5L28.3,28.5z M27.4,28.5c-0.1,0-0.1,0-0.1,0.1s0,0.1,0.1,0.1c0.1,0,0.1,0,0.1-0.1
	S27.5,28.5,27.4,28.5L27.4,28.5L27.4,28.5z"/>
</svg>
