<?xml version="1.0" encoding="utf-8"?>
<!-- Generator: Adobe Illustrator 25.2.0, SVG Export Plug-In . SVG Version: 6.00 Build 0)  -->
<svg version="1.1" id="Layer_1" xmlns="http://www.w3.org/2000/svg" xmlns:xlink="http://www.w3.org/1999/xlink" x="0px" y="0px"
	 viewBox="0 0 46.7 47.6" style="enable-background:new 0 0 46.7 47.6;" xml:space="preserve">
<style type="text/css">
	.st0{fill:#FFC312;}
</style>
<path id="Path_2" class="st0" d="M42.4,12.1c-1.3-4.5-5.1-7.5-9.3-7.5H13.6c-4.3,0-8,3-9.3,7.5c-0.3,1-0.4,2.1-0.4,3.1v17
	c0,5.9,4.4,10.6,9.7,10.6h19.6c5.4,0,9.7-4.8,9.7-10.6v-17C42.9,14.2,42.7,13.1,42.4,12.1z M13.6,8.9h19.6c2.9,0,5.3,2.3,5.8,5.3
	l-15.6,9.2L7.8,14.2C8.2,11.2,10.7,8.9,13.6,8.9L13.6,8.9z M39,32.3c0,3.5-2.6,6.4-5.8,6.4H13.6c-3.2,0-5.8-2.9-5.8-6.4V19.1
	l14.6,8.7c0.6,0.4,1.3,0.4,1.9,0l14.6-8.7L39,32.3L39,32.3z"/>
</svg>
