<svg xmlns="http://www.w3.org/2000/svg" width="73.493" height="52.086" viewBox="0 0 73.493 52.086">
  <defs>
    <style>
      .cls-1 {
        fill: #ffc312;
      }
    </style>
  </defs>
  <path id="Path_2" data-name="Path 2" class="cls-1" d="M74.685,13.186C72.3,7.125,65.178,2.995,57.12,3H20.373C12.315,2.995,5.194,7.125,2.808,13.186A12.115,12.115,0,0,0,2,17.468V40.618c0,7.989,8.228,14.465,18.373,14.468H57.12c10.146,0,18.37-6.479,18.373-14.468V17.468A12.115,12.115,0,0,0,74.685,13.186Zm-54.312-4.4H57.12c5.4.012,10,3.1,10.877,7.292L38.747,28.638,9.5,16.079c.877-4.2,5.476-7.28,10.877-7.292Zm47.771,31.83C68.126,45.406,63.2,49.285,57.12,49.3H20.373c-6.081-.014-11.006-3.892-11.024-8.681v-18L36.983,34.483a4.643,4.643,0,0,0,3.528,0L68.144,22.619Z" transform="translate(-2 -3)"/>
</svg>
