<?xml version="1.0" encoding="utf-8"?>
<!-- Generator: Adobe Illustrator 25.2.0, SVG Export Plug-In . SVG Version: 6.00 Build 0)  -->
<svg version="1.1" id="Layer_1" xmlns="http://www.w3.org/2000/svg" xmlns:xlink="http://www.w3.org/1999/xlink" x="0px" y="0px"
	 viewBox="0 0 46.7 47.6" style="enable-background:new 0 0 46.7 47.6;" xml:space="preserve">
<style type="text/css">
	.st0{fill:#F39C12;}
</style>
<g id="_x23_ffffffff">
</g>
<g id="_x23_000000ff">
	<path class="st0" d="M13.8,5.3h10.4c0.4,0,0.9,0.2,1.2,0.5c0.4,0.4,0.5,0.9,0.4,1.4c-0.1,0.5-0.4,1-0.9,1.2
		c-0.2,0.1-0.5,0.2-0.8,0.2c-3.4,0-6.9,0-10.3,0c-1.1,0-2.2,0.4-3,1.1c-1,0.9-1.6,2.2-1.6,3.5c0,6.9,0,13.8,0,20.7
		c0,1.3,0.6,2.6,1.5,3.4c0.8,0.8,2,1.2,3.1,1.2c6.8,0,13.6,0,20.4,0c0.5,0,0.9,0,1.4-0.1c1.2-0.3,2.3-1.1,2.9-2.2
		c0.4-0.7,0.6-1.6,0.6-2.4c0-3.4,0-6.8,0-10.3c0-0.4,0.1-0.7,0.3-1c0.3-0.4,0.8-0.7,1.3-0.7c0.5,0,0.9,0.2,1.2,0.5
		c0.3,0.3,0.5,0.7,0.5,1.1v10.5c0,1.6-0.5,3.2-1.4,4.5c-0.8,1.2-2,2.2-3.3,2.8c-1,0.4-2.1,0.7-3.2,0.7H13.8c-1.5,0-2.9-0.4-4.1-1.2
		c-1.2-0.7-2.1-1.8-2.8-3c-0.6-1.1-1-2.5-1-3.8V13.2c0-0.7,0.1-1.5,0.3-2.2c0.6-2,2-3.7,3.8-4.8C11.1,5.6,12.5,5.3,13.8,5.3z"/>
	<path class="st0" d="M32.9,10.2C33.9,9.1,35,8,36.1,6.9c1.6,1.6,3.3,3.3,4.9,4.9C40,13,38.9,14,37.8,15.1
		C36.1,13.5,34.5,11.8,32.9,10.2z"/>
	<path class="st0" d="M31.2,11.9c1.7,1.6,3.3,3.3,4.9,4.9c-4,4-8,8-12,12c-0.9,0.9-1.8,1.8-2.8,2.7c-1.4,0.5-2.8,0.9-4.1,1.3
		c-1.1,0.3-2.1,0.7-3.2,1c0.8-2.4,1.5-4.7,2.3-7.1c0-0.1,0-0.2,0.1-0.2c4-4,8.1-8.1,12.1-12.1C29.4,13.6,30.3,12.8,31.2,11.9z"/>
</g>
</svg>
