<?xml version="1.0" encoding="utf-8"?>
<!-- Generator: Adobe Illustrator 25.2.0, SVG Export Plug-In . SVG Version: 6.00 Build 0)  -->
<svg version="1.1" id="Layer_1" xmlns="http://www.w3.org/2000/svg" xmlns:xlink="http://www.w3.org/1999/xlink" x="0px" y="0px"
	 viewBox="0 0 46.7 47.6" style="enable-background:new 0 0 46.7 47.6;" xml:space="preserve">
<style type="text/css">
	.st0{fill:#27AE60;}
</style>
<g>
	<g>
		<path class="st0" d="M18.8,20c-1.9,0-3.4,1.5-3.4,3.4c0,1.9,1.5,3.4,3.4,3.4c1.9,0,3.4-1.5,3.4-3.4C22.2,21.5,20.7,20,18.8,20z
			 M18.8,24.5c-0.6,0-1.1-0.5-1.1-1.1c0-0.6,0.5-1.1,1.1-1.1c0.6,0,1.1,0.5,1.1,1.1C19.9,24,19.4,24.5,18.8,24.5z"/>
	</g>
</g>
<g>
	<g>
		<path class="st0" d="M27.8,29c-1.9,0-3.4,1.5-3.4,3.4c0,1.9,1.5,3.4,3.4,3.4s3.4-1.5,3.4-3.4C31.2,30.5,29.6,29,27.8,29z
			 M27.8,33.5c-0.6,0-1.1-0.5-1.1-1.1c0-0.6,0.5-1.1,1.1-1.1s1.1,0.5,1.1,1.1C28.9,33,28.4,33.5,27.8,33.5z"/>
	</g>
</g>
<g>
	<g>
		<path class="st0" d="M28.9,22.3c-0.4-0.4-1.2-0.4-1.6,0l-9.5,9.5c-0.4,0.4-0.4,1.2,0,1.6c0.2,0.2,0.5,0.3,0.8,0.3s0.6-0.1,0.8-0.3
			l9.5-9.5C29.3,23.5,29.3,22.8,28.9,22.3z"/>
	</g>
</g>
<g>
	<g>
		<path class="st0" d="M36.8,6.5h-27C9.2,6.5,8.7,7,8.7,7.6v32.2c0,0.4,0.2,0.8,0.5,1c0.3,0.2,0.7,0.2,1.1,0l4-2l4,2
			c0.3,0.2,0.7,0.2,1,0l4-2l4,2c0.2,0.1,0.3,0.1,0.5,0.1c0.2,0,0.3,0,0.5-0.1l4-2l4,2c0.3,0.2,0.8,0.2,1.1,0c0.3-0.2,0.5-0.6,0.5-1
			V7.6C37.9,7,37.4,6.5,36.8,6.5z M35.7,38.1l-2.9-1.4c-0.3-0.2-0.7-0.2-1,0l-4,2l-4-2c-0.2-0.1-0.3-0.1-0.5-0.1s-0.3,0-0.5,0.1
			l-4,2l-4-2c-0.3-0.2-0.7-0.2-1,0l-2.9,1.4V8.8h24.7L35.7,38.1L35.7,38.1z"/>
	</g>
</g>
<g>
	<g>
		<path class="st0" d="M32.3,11H18.8c-0.6,0-1.1,0.5-1.1,1.1s0.5,1.1,1.1,1.1h13.5c0.6,0,1.1-0.5,1.1-1.1S32.9,11,32.3,11z"/>
	</g>
</g>
<g>
	<g>
		<path class="st0" d="M32.3,15.5H18.8c-0.6,0-1.1,0.5-1.1,1.1s0.5,1.1,1.1,1.1h13.5c0.6,0,1.1-0.5,1.1-1.1S32.9,15.5,32.3,15.5z"/>
	</g>
</g>
<g>
	<g>
		<circle class="st0" cx="14.3" cy="12.1" r="1.1"/>
	</g>
</g>
<g>
	<g>
		<circle class="st0" cx="14.3" cy="16.6" r="1.1"/>
	</g>
</g>
</svg>
