<svg xmlns="http://www.w3.org/2000/svg" width="73.493" height="70" viewBox="0 0 73.493 70">
  <defs>
    <style>
      .cls-1 {
        fill: #a3cb38;
      }
    </style>
  </defs>
  <path id="Path_16" data-name="Path 16" class="cls-1" d="M42.421,51H20.373a3.5,3.5,0,1,0,0,7H42.421a3.5,3.5,0,1,0,0-7Zm-14.7-21h7.349a3.5,3.5,0,1,0,0-7H27.723a3.5,3.5,0,1,0,0,7Zm44.1,7H60.795V5.509a3.472,3.472,0,0,0-1.837-3.044,3.835,3.835,0,0,0-3.675,0L44.259,8.484,33.235,2.465a3.835,3.835,0,0,0-3.675,0L18.536,8.484,7.512,2.465a3.835,3.835,0,0,0-3.675,0A3.472,3.472,0,0,0,2,5.509V61.5A10.771,10.771,0,0,0,13.024,72H64.469A10.771,10.771,0,0,0,75.493,61.5v-21A3.59,3.59,0,0,0,71.819,37ZM13.024,65a3.59,3.59,0,0,1-3.675-3.5V11.563L16.7,15.552a4.145,4.145,0,0,0,3.675,0L31.4,9.533l11.024,6.019a4.145,4.145,0,0,0,3.675,0l7.349-3.989V61.5a10.052,10.052,0,0,0,.661,3.5Zm55.12-3.5a3.679,3.679,0,0,1-7.349,0V44h7.349ZM42.421,37H20.373a3.5,3.5,0,1,0,0,7H42.421a3.5,3.5,0,1,0,0-7Z" transform="translate(-2 -1.996)"/>
</svg>
