<?xml version="1.0" encoding="utf-8"?>
<!-- Generator: Adobe Illustrator 25.2.0, SVG Export Plug-In . SVG Version: 6.00 Build 0)  -->
<svg version="1.1" id="Layer_1" xmlns="http://www.w3.org/2000/svg" xmlns:xlink="http://www.w3.org/1999/xlink" x="0px" y="0px"
	 viewBox="0 0 46.7 47.6" style="enable-background:new 0 0 46.7 47.6;" xml:space="preserve">
<style type="text/css">
	.st0{fill:#FFC312;}
</style>
<path id="Icon_awesome-hands-helping" class="st0" d="M35.6,19.6H24.6v4.6c0,3.3-2.3,5.9-5.2,5.9s-5.2-2.7-5.2-5.9v-10l-4.7,3.2
	c-1.5,1.1-2.3,2.8-2.3,4.5v3.9l-5.8,3.8c-1.1,0.9-1.5,2.4-0.9,3.6l5.8,11.4c0.4,1,1.7,1.6,2.8,1.2c0.1-0.1,0.3-0.1,0.4-0.2l7.5-4.9
	h9.9c2.6,0,4.7-2.4,4.7-5.3h1.2c1.3,0,2.3-1.2,2.3-2.6v-5.3h0.6c1.1-0.1,1.8-1,1.7-2v-4C37.5,20.6,36.7,19.7,35.6,19.6z M46.4,16.6
	L40.5,5.1c-0.4-1-1.7-1.6-2.8-1.2c-0.1,0.1-0.3,0.1-0.4,0.2l-7.5,4.9h-7.4c-0.9,0-1.8,0.3-2.5,0.8l-2.4,1.7
	c-0.7,0.5-1.1,1.4-1.1,2.2v10.4c0,1.8,1.3,3.3,2.9,3.3s2.9-1.5,2.9-3.3V17h13.4c2.2,0,4.1,2.1,4.1,4.6V24l5.8-3.8
	C46.7,19.3,47,17.8,46.4,16.6z"/>
</svg>
