<svg xmlns="http://www.w3.org/2000/svg" width="73.493" height="70" viewBox="0 0 73.493 70">
  <defs>
    <style>
      .cls-1 {
        fill: #ffc312;
      }
    </style>
  </defs>
  <path id="Icon_awesome-hands-helping" data-name="Icon awesome-hands-helping" class="cls-1" d="M56.04,26.251H38.585v7.657c0,5.428-3.709,9.845-8.268,9.845s-8.268-4.416-8.268-9.845V17.281L14.6,22.614a9.178,9.178,0,0,0-3.571,7.493v6.467L1.838,42.891A4.844,4.844,0,0,0,.495,48.866L9.681,67.817a3.375,3.375,0,0,0,5.018,1.6l11.874-8.163H42.26c4.054,0,7.349-3.924,7.349-8.751h1.837c2.033,0,3.675-1.955,3.675-4.375V39.377h.919A3.046,3.046,0,0,0,58.8,36.1V29.532A3.046,3.046,0,0,0,56.04,26.251ZM73,21.137,63.814,2.186A3.375,3.375,0,0,0,58.8.587L46.922,8.749H35.186a6.556,6.556,0,0,0-3.893,1.326l-3.847,2.858a4.588,4.588,0,0,0-1.722,3.705V33.908c0,3.022,2.056,5.469,4.593,5.469s4.593-2.447,4.593-5.469V21.875H56.04c3.548,0,6.431,3.432,6.431,7.657v3.9l9.187-6.317A4.862,4.862,0,0,0,73,21.137Z" transform="translate(0.002 -0.002)"/>
</svg>
