<?xml version="1.0" encoding="utf-8"?>
<!-- Generator: Adobe Illustrator 25.2.0, SVG Export Plug-In . SVG Version: 6.00 Build 0)  -->
<svg version="1.1" id="Layer_1" xmlns="http://www.w3.org/2000/svg" xmlns:xlink="http://www.w3.org/1999/xlink" x="0px" y="0px"
	 viewBox="0 0 51 51" style="enable-background:new 0 0 51 51;" xml:space="preserve">
<style type="text/css">
	.st0{fill:#1B74BB;}
	.st1{fill:#FEFEFE;}
</style>
<g id="_x23_1b74bbff">
	<path class="st0" d="M23.3,0.9C27.6,0.5,32,1.2,35.9,3c5.8,2.6,10.6,7.5,12.9,13.4C50.6,20.9,51,26,50,30.8
		c-0.9,4-2.7,7.7-5.4,10.8c-2.7,3.1-6.2,5.6-10,7c-4.7,1.8-9.9,2.1-14.7,1c-5.5-1.3-10.4-4.4-13.9-8.8C3.5,37.7,1.8,34,1.1,30.2
		C0.2,26,0.6,21.5,2,17.5c1.8-5.2,5.4-9.8,10.1-12.8C15.4,2.5,19.3,1.2,23.3,0.9 M25.3,11.3c-0.3,0.1-0.5,0.2-0.8,0.4
		c-4,1.9-8,3.8-11.9,5.7c-0.4,0.2-0.7,0.6-0.6,1c0.1,0.5,0.5,0.8,1,0.8c8.4,0,16.7,0,25.1,0c0.6,0,1.1-0.5,1-1.1
		c-0.1-0.4-0.4-0.6-0.7-0.8c-4.1-1.9-8.2-3.9-12.2-5.8C25.9,11.3,25.6,11.3,25.3,11.3 M15.6,21.4c-0.2,0-0.3,0.3-0.3,0.5
		c0,4,0,8,0,12c0,0.2,0.1,0.5,0.4,0.5c0.8,0,1.6,0,2.4,0c0.2,0,0.4-0.2,0.4-0.4c0-4,0-8.1,0-12.1c0-0.2-0.1-0.5-0.4-0.5
		C17.2,21.3,16.4,21.3,15.6,21.4 M21.5,21.4c-0.2,0.1-0.3,0.3-0.3,0.5c0,4,0,8,0,12c0,0.2,0.1,0.5,0.3,0.5c0.8,0,1.6,0,2.4,0
		c0.3,0,0.4-0.3,0.4-0.5c0-4,0-8,0-12c0-0.2-0.1-0.5-0.4-0.5C23.1,21.3,22.3,21.3,21.5,21.4 M27.4,21.4c-0.2,0.1-0.3,0.3-0.2,0.5
		c0,4,0,8,0,12c0,0.3,0.1,0.6,0.4,0.5c0.7,0,1.5,0,2.2,0c0.2,0,0.5-0.2,0.4-0.4c0-4,0-8.1,0-12.1c0-0.3-0.1-0.5-0.4-0.5
		C29,21.4,28.2,21.3,27.4,21.4 M33.4,21.4c-0.2,0.1-0.3,0.3-0.3,0.5c0,4,0,8,0,12c0,0.2,0.1,0.5,0.3,0.5c0.8,0,1.6,0,2.4,0
		c0.3,0,0.4-0.3,0.4-0.5c0-4,0-8,0-12c0-0.2-0.1-0.5-0.4-0.5C35,21.4,34.2,21.3,33.4,21.4 M12.8,36.3c-0.4,0.1-0.8,0.5-0.8,0.9
		c0,0.5,0.4,1,1,1c8.3,0,16.7,0,25,0c0.5,0,0.9-0.2,1.1-0.7c0.2-0.6-0.3-1.2-0.9-1.2c-2.3,0-4.7,0-7,0C25,36.3,18.9,36.3,12.8,36.3z
		"/>
	<path class="st0" d="M25.3,14.3c0.7-0.2,1.5,0.3,1.7,1.1c0.2,0.7-0.3,1.5-1.1,1.7c-0.8,0.2-1.6-0.4-1.7-1.1
		C24,15.2,24.5,14.5,25.3,14.3z"/>
</g>
<g id="_x23_fefefeff">
	<path class="st1" d="M25.3,11.3c0.3-0.1,0.5,0,0.8,0.1c4.1,1.9,8.2,3.9,12.2,5.8c0.3,0.1,0.7,0.4,0.7,0.8c0.1,0.6-0.4,1.2-1,1.1
		c-8.4,0-16.7,0-25.1,0c-0.5,0-0.9-0.3-1-0.8c-0.1-0.4,0.2-0.9,0.6-1c4-1.9,8-3.8,11.9-5.7C24.8,11.6,25.1,11.4,25.3,11.3
		 M25.3,14.3c-0.7,0.1-1.3,0.9-1.1,1.6c0.1,0.8,1,1.3,1.7,1.1c0.7-0.1,1.3-1,1.1-1.7C26.8,14.7,26,14.2,25.3,14.3z"/>
	<path class="st1" d="M15.6,21.4c0.8,0,1.6,0,2.4,0c0.3,0,0.4,0.3,0.4,0.5c0,4,0,8.1,0,12.1c0,0.2-0.1,0.4-0.4,0.4
		c-0.8,0-1.6,0-2.4,0c-0.3,0-0.4-0.3-0.4-0.5c0-4,0-8,0-12C15.2,21.6,15.3,21.4,15.6,21.4z"/>
	<path class="st1" d="M21.5,21.4c0.8,0,1.6,0,2.4,0c0.3,0,0.4,0.3,0.4,0.5c0,4,0,8,0,12c0,0.2-0.1,0.6-0.4,0.5c-0.8,0-1.6,0-2.4,0
		c-0.3,0-0.4-0.3-0.3-0.5c0-4,0-8,0-12C21.2,21.7,21.3,21.4,21.5,21.4z"/>
	<path class="st1" d="M27.4,21.4c0.8-0.1,1.6,0,2.4,0c0.3,0,0.5,0.2,0.4,0.5c0,4,0,8.1,0,12.1c0,0.2-0.2,0.5-0.4,0.4
		c-0.7,0-1.5,0-2.2,0c-0.3,0-0.5-0.3-0.4-0.5c0-4,0-8,0-12C27.1,21.7,27.2,21.4,27.4,21.4z"/>
	<path class="st1" d="M33.4,21.4c0.8-0.1,1.6,0,2.4,0c0.3,0,0.4,0.3,0.4,0.5c0,4,0,8,0,12c0,0.3-0.1,0.5-0.4,0.5c-0.8,0-1.6,0-2.4,0
		c-0.3,0-0.4-0.3-0.3-0.5c0-4,0-8,0-12C33.1,21.7,33.2,21.4,33.4,21.4z"/>
	<path class="st1" d="M12.8,36.3c6.1,0,12.2,0,18.4,0c2.3,0,4.7,0,7,0c0.6,0,1.1,0.7,0.9,1.2c-0.1,0.5-0.6,0.7-1.1,0.7
		c-8.3,0-16.7,0-25,0c-0.5,0-1-0.4-1-1C12,36.8,12.4,36.4,12.8,36.3z"/>
</g>
</svg>
