<?xml version="1.0" encoding="utf-8"?>
<!-- Generator: Adobe Illustrator 25.2.0, SVG Export Plug-In . SVG Version: 6.00 Build 0)  -->
<svg version="1.1" id="Layer_1" xmlns="http://www.w3.org/2000/svg" xmlns:xlink="http://www.w3.org/1999/xlink" x="0px" y="0px"
	 viewBox="0 0 46.7 47.6" style="enable-background:new 0 0 46.7 47.6;" xml:space="preserve">
<style type="text/css">
	.st0{fill:#F1C40F;}
</style>
<g id="_x23_000000ff">
	<path class="st0" d="M23.2,4.3h0.3c0.6,0,1.3,0.3,1.7,0.7c2.4,2.1,4.8,4.3,7.2,6.4c0-1.2,0-2.5,0-3.7c0-0.5,0.3-0.9,0.8-1.1
		c0.1,0,0.3-0.1,0.4-0.1c1.5,0,3,0,4.5,0c0.3,0,0.6,0.1,0.8,0.4c0.2,0.2,0.3,0.5,0.3,0.8c0,3.2,0,6.5,0,9.7c0.1,0.1,0.3,0.2,0.4,0.4
		c1.3,1.1,2.5,2.2,3.8,3.3c0.2,0.2,0.4,0.5,0.4,0.8v0.1c0,0.3-0.1,0.5-0.3,0.7c-0.5,0.6-1,1.1-1.5,1.7c-0.2,0.2-0.4,0.3-0.6,0.4
		c-0.4,0.1-0.8,0-1-0.3c-5.4-4.8-10.9-9.6-16.3-14.4c-0.3-0.3-0.8-0.4-1.2-0.2c-0.2,0.1-0.3,0.2-0.5,0.4C17,15,11.6,19.8,6.2,24.6
		c-0.2,0.2-0.5,0.3-0.8,0.3c-0.3,0-0.6-0.2-0.8-0.4c-0.5-0.6-1-1.1-1.5-1.7c-0.2-0.2-0.3-0.5-0.3-0.7V22c0-0.2,0.1-0.4,0.2-0.6
		c0.1-0.2,0.3-0.3,0.4-0.4c6-5.3,12-10.6,18.1-15.9C21.9,4.6,22.6,4.3,23.2,4.3z"/>
	<path class="st0" d="M7.8,26.2c5.2-4.6,10.4-9.2,15.6-13.7c5.2,4.6,10.4,9.2,15.6,13.8c0.1,0.1,0.3,0.2,0.4,0.2c0,4.4,0,8.8,0,13.2
		c0,0.4-0.2,0.7-0.5,0.9c-0.2,0.1-0.4,0.2-0.6,0.2H25.6c-0.9-1.3-1.9-2.6-2.8-3.9c2.5-1.5,5-3,7.4-4.6c-3.5-3.3-7-6.5-10.6-9.8
		c1.4,2.8,2.9,5.7,4.3,8.5c-2.5,1.5-5,3-7.4,4.6c0.9,1.7,1.8,3.5,2.7,5.2H8.5c-0.4,0-0.9-0.3-1-0.7c-0.1-0.2-0.1-0.5-0.1-0.7
		c0-4.3,0-8.6,0-12.9C7.5,26.4,7.7,26.4,7.8,26.2z"/>
</g>
</svg>
