<svg xmlns="http://www.w3.org/2000/svg" width="73.493" height="70" viewBox="0 0 73.493 70">
  <defs>
    <style>
      .cls-1 {
        fill: #ff6000;
      }
    </style>
  </defs>
  <path id="Path_23" data-name="Path 23" class="cls-1" d="M74.42,45.89,65.237,37a3.8,3.8,0,0,0-5.216,0L49.773,46.94,39.525,37a3.8,3.8,0,0,0-5.216,0L25.9,45.19,17.485,37a3.8,3.8,0,0,0-5.216,0L3.086,45.75A3.484,3.484,0,0,0,2.315,46.9a3.359,3.359,0,0,0-.294,1.33V61.5A10.769,10.769,0,0,0,13.041,72H64.466a10.769,10.769,0,0,0,11.02-10.5V48.375a3.36,3.36,0,0,0-.294-1.33A3.484,3.484,0,0,0,74.42,45.89ZM68.139,61.5A3.59,3.59,0,0,1,64.466,65H13.041a3.59,3.59,0,0,1-3.673-3.5V49.81l5.51-5.25,8.412,8.05a3.8,3.8,0,0,0,5.216,0l8.412-8.05L47.165,54.5a3.8,3.8,0,0,0,5.216,0l10.248-9.8,5.51,5.25ZM64.466,2H13.041A10.769,10.769,0,0,0,2.021,12.5V30.91a3.9,3.9,0,0,0,0,.945s0,.245,0,.35a3.638,3.638,0,0,0,2.736,2.14A3.785,3.785,0,0,0,8.118,33.29l6.759-6.23,8.412,8.05a3.8,3.8,0,0,0,5.216,0l8.412-8.05L47.165,37a3.8,3.8,0,0,0,5.216,0l10.248-9.8,6.5,6.23a3.785,3.785,0,0,0,3.362,1.055,3.638,3.638,0,0,0,2.736-2.14.934.934,0,0,0,0-.315,2.956,2.956,0,0,0,.22-.98V12.5A10.767,10.767,0,0,0,64.466,2Zm3.673,20.44-2.9-2.94a3.8,3.8,0,0,0-5.216,0L49.773,29.44,39.525,19.5a3.8,3.8,0,0,0-5.216,0L25.9,27.69,17.485,19.5a3.8,3.8,0,0,0-5.216,0l-2.9,2.94V12.5A3.59,3.59,0,0,1,13.041,9H64.466a3.59,3.59,0,0,1,3.673,3.5Z" transform="translate(-1.992 -2)"/>
</svg>
