<?xml version="1.0" encoding="utf-8"?>
<!-- Generator: Adobe Illustrator 25.2.0, SVG Export Plug-In . SVG Version: 6.00 Build 0)  -->
<svg version="1.1" id="Layer_1" xmlns="http://www.w3.org/2000/svg" xmlns:xlink="http://www.w3.org/1999/xlink" x="0px" y="0px"
	 viewBox="0 0 46.7 47.6" style="enable-background:new 0 0 46.7 47.6;" xml:space="preserve">
<style type="text/css">
	.st0{fill:#FFC312;}
</style>
<path id="Path_18" class="st0" d="M27.9,6.7c0,3.6-2.1,6.5-4.6,6.5s-4.6-2.9-4.6-6.5c0-3.4,1.8-5.5,4.6-5.5S27.9,3.4,27.9,6.7z
	 M32.2,18.6v3.6H14.4v-3.6c0-1.1,0.6-2.1,1.5-2.6c1.6-0.8,3.3-1.3,5.1-1.6c1.4,0.8,3.1,0.8,4.5,0c1.8,0.3,3.5,0.8,5.2,1.6
	C31.7,16.6,32.3,17.6,32.2,18.6z M42,25.7v1.9c0,0.9-0.7,1.7-1.6,1.7H6.2c-0.9,0-1.6-0.8-1.6-1.7v-1.9c0-0.9,0.6-1.7,1.6-1.7h34.2
	C41.4,24.1,42.1,24.8,42,25.7L42,25.7z M38.2,31.1v10.8c0,0.5-0.3,0.8-0.8,0.9H9.3c-0.5,0-0.8-0.4-0.8-0.9V31.1L38.2,31.1z"/>
<path id="Path_19" class="st0" d="M16.4,5.3c0.2,1.6,1,3.1,2.4,4c-1.5,0.2-3,0.5-4.5,1c-1.7,0.5-2.8,1.6-2.8,2.9v2.5h-1.1L9.8,8.5
	c0-0.9,0.4-1.8,1.2-2.3c0.9-0.6,1.9-0.9,3-0.9L16.4,5.3L16.4,5.3z M36.9,8.5l-0.6,7.2h-1.1v-2.5c0-1.2-1.1-2.4-2.8-2.9
	c-1.5-0.4-3-0.8-4.5-1c1.4-0.9,2.3-2.4,2.4-4h2.4c1.1,0,2.1,0.3,3,0.9C36.5,6.7,36.9,7.6,36.9,8.5z"/>
</svg>
