<?xml version="1.0" encoding="utf-8"?>
<!-- Generator: Adobe Illustrator 25.2.0, SVG Export Plug-In . SVG Version: 6.00 Build 0)  -->
<svg version="1.1" id="Layer_1" xmlns="http://www.w3.org/2000/svg" xmlns:xlink="http://www.w3.org/1999/xlink" x="0px" y="0px"
	 viewBox="0 0 46.7 47.6" style="enable-background:new 0 0 46.7 47.6;" xml:space="preserve">
<style type="text/css">
	.st0{fill:#27AE60;}
</style>
<g id="_x23_ffffffff">
</g>
<g id="_x23_ffffffff_1_">
</g>
<g id="_x23_104e6eff">
	<path class="st0" d="M11.5,8.4c0.8-2.4,3.2-4.1,5.8-4.1c2.2-0.1,4.4,1.2,5.5,3.2c0.7,1.2,0.9,2.7,0.7,4.1c0.2,0,0.3-0.1,0.5-0.1
		c-0.4-2.1,0.5-4.4,2.2-5.8c1.4-1.1,3.2-1.6,5-1.3c1.9,0.3,3.6,1.6,4.4,3.2c0.6,1.2,0.8,2.7,0.6,4c1.6,0.7,3.2,2.3,2.8,4.1
		c1.4,1.2,2.2,3,2.4,4.8V33c-0.1,1,0,2.1-0.3,3c-0.3,0.9-1,1.7-1.9,2c-0.6,0.2-1.3,0.1-2-0.1c0,1,0,2,0,3c-0.1,0.7-1,1.1-1.6,0.7
		c-0.3-0.2-0.4-0.6-0.4-1c0-6.4,0-12.8,0-19.1c-0.1-0.7,0.8-1.2,1.4-0.9c0.5,0.2,0.6,0.7,0.6,1.2c0,4,0,8,0,12c0,0.7,0,1.5,0.4,2
		c0.3,0.4,1,0.4,1.3,0c0.4-0.4,0.4-1,0.5-1.6c0-4.4,0-8.7,0-13.1c0-1.4-0.5-2.8-1.5-3.7c-0.6,0.4-1.4,0.6-2.1,0.4
		c-1.2-0.2-2.2-0.9-3.1-1.8c-1.5,0.7-3.2,0.5-4.9,0.5c-1.1,0-2.1,0.5-2.7,1.4c-0.6,0.8-0.9,1.9-0.9,2.9c0,6.7,0,13.3,0,20
		c-0.7,0-1.3,0-2,0c0-6.7,0-13.4,0-20.1c0.1-2.4,1.5-4.9,3.8-5.7c-0.5-0.4-0.9-1-1.2-1.5c-0.7,0.1-1.4,0.1-1.9,0.5
		c-0.8,0.6-1.5,1.4-2.4,1.8c-0.9,0.5-2,0.8-3.1,0.8c-1.8,0-3.6,0-5.3,0c-0.9,0-1.8,0.3-2.4,1c-0.9,0.9-1.3,2.2-1.3,3.4
		c0,4.4,0,8.8,0,13.1c0,0.5,0.1,1.1,0.4,1.5c0.4,0.6,1.5,0.6,1.9,0c0.4-0.6,0.3-1.4,0.4-2.2c0-3.9,0-7.8,0-11.7c0-0.3,0-0.7,0.3-0.9
		c0.5-0.5,1.4-0.3,1.6,0.3c0.1,0.5,0.1,1.1,0.1,1.7c0,5.9,0,11.9,0,17.8c-0.7,0-1.3,0-2,0c0-1,0-1.9,0-2.9c-1.1,0.4-2.5,0.3-3.4-0.5
		c-0.8-0.7-1.2-1.8-1.3-2.8V20.3c0.2-1.9,1.2-3.9,2.9-5c1.1-0.7,2.4-0.8,3.6-0.7C11.3,13,10.7,10.5,11.5,8.4 M16.4,6.4
		c-1.2,0.3-2.2,1.1-2.8,2.2c-0.8,1.5-0.5,3.4,0.6,4.6c0.8,0.9,2,1.4,3.2,1.4c1.4-0.1,2.8-0.9,3.5-2.1c0.7-1.1,0.7-2.5,0.3-3.7
		C20.5,7,18.3,5.9,16.4,6.4 M29.2,6.3c-1.9,0.4-3.5,2.3-3.3,4.3c0,2.3,2.4,4.3,4.7,3.9c2.3-0.2,4.1-2.6,3.6-4.9
		C33.8,7.4,31.4,5.8,29.2,6.3 M35.3,13.5c-0.3,0.5-0.7,1-1.1,1.4c0.6,0.5,1.3,1,2.1,1c0.3-0.1,0.6-0.4,0.6-0.7
		C36.8,14.4,36.1,13.8,35.3,13.5z"/>
</g>
</svg>
