<svg id="Group_4" data-name="Group 4" xmlns="http://www.w3.org/2000/svg" width="51" height="51" viewBox="0 0 51 51">
  <defs>
    <style>
      .cls-1 {
        fill: #05c46b;
      }
    </style>
  </defs>
  <path id="Path_31" data-name="Path 31" class="cls-1" d="M19.309,19.975,24.7,22.316a.97.97,0,0,0,1.292-.674L26,21.589l-.827-.359a2.925,2.925,0,0,1-1.529-1.653,3.579,3.579,0,0,1-.067-2.415A3,3,0,0,1,25.016,15.4a2.391,2.391,0,0,1,2.095-.077l.416.181.157-.48a3.274,3.274,0,0,1,.488-.947,2.96,2.96,0,0,0-1.67-2.505,2.516,2.516,0,0,0-3.351,1.748l-.4,1.223a.409.409,0,0,1-.545.284l-1.061-.462a2.272,2.272,0,0,0-1.99.073,2.852,2.852,0,0,0-1.362,1.674,3.4,3.4,0,0,0,.064,2.294A2.777,2.777,0,0,0,19.309,19.975Z" transform="translate(-6.089 -5.518)"/>
  <path id="Path_32" data-name="Path 32" class="cls-1" d="M55.1,3.875H17.916c-4.984,0-9.041,3.118-9.041,6.951V54.875H53.1V7.275A4.172,4.172,0,0,1,55.1,3.875Zm-36.992,11.9c1.167-2.381,4.637-3.587,7.733-2.69L27,13.419l.436-.89a5.348,5.348,0,0,1,3.141-2.576,7.633,7.633,0,0,1,4.591-.113A5.273,5.273,0,0,1,38.857,13a6.049,6.049,0,0,1,3.987-.224,4.456,4.456,0,0,1,2.661,1.919,2.876,2.876,0,0,1,.117,2.8l-2.706,5.519a2.72,2.72,0,0,1-2.47,1.313,3.325,3.325,0,0,1-.928-.131l-4.36-1.264-.031.063a3.32,3.32,0,0,1-3.015,1.6,4.073,4.073,0,0,1-1.132-.16L21.6,21.718a5.606,5.606,0,0,1-3.35-2.415A3.622,3.622,0,0,1,18.106,15.773ZM46.462,49.208H15.508a.586.586,0,1,1,0-1.133H46.462a.586.586,0,1,1,0,1.133Zm0-4.533H15.508a.586.586,0,1,1,0-1.133H46.462a.586.586,0,1,1,0,1.133Zm0-4.533H15.508a.586.586,0,1,1,0-1.133H46.462a.586.586,0,1,1,0,1.133Zm0-4.533H15.508a.586.586,0,1,1,0-1.133H46.462a.586.586,0,1,1,0,1.133Zm0-4.533H15.508a.586.586,0,1,1,0-1.133H46.462a.586.586,0,1,1,0,1.133Z" transform="translate(-8.875 -3.875)"/>
  <path id="Path_33" data-name="Path 33" class="cls-1" d="M30.78,14.945l-.812-.353a1.651,1.651,0,0,0-1.447.054,2.072,2.072,0,0,0-.99,1.218,2.471,2.471,0,0,0,.047,1.668,2.019,2.019,0,0,0,1.056,1.142l1.222.531h0l2.9,1.261a.646.646,0,0,0,.861-.449l1.555-4.753a2.473,2.473,0,0,0-.047-1.669,2.017,2.017,0,0,0-1.056-1.142,1.651,1.651,0,0,0-1.447.054,2.07,2.07,0,0,0-.99,1.218l-.306.936A.409.409,0,0,1,30.78,14.945ZM43.645,3.875A2.758,2.758,0,0,0,41.1,6.8V24.376h5.081V6.8A2.758,2.758,0,0,0,43.645,3.875Z" transform="translate(4.814 -3.875)"/>
</svg>
