<svg xmlns="http://www.w3.org/2000/svg" width="51" height="51" viewBox="0 0 51 51">
  <defs>
    <style>
      .cls-1 {
        fill: #109e00;
      }
    </style>
  </defs>
  <path id="Path_2275" data-name="Path 2275" class="cls-1" d="M25.5,0A25.5,25.5,0,1,0,51,25.5,25.5,25.5,0,0,0,25.5,0Zm0,.425A25.075,25.075,0,1,1,.425,25.5,25.069,25.069,0,0,1,25.5.425ZM12.205,12.856a.323.323,0,0,0-.345.345.335.335,0,0,0,.345.332.324.324,0,0,0,.332-.332A.366.366,0,0,0,12.205,12.856Zm4.091,0a.346.346,0,0,0-.345.345.335.335,0,0,0,.345.332.324.324,0,0,0,.332-.332A.366.366,0,0,0,16.3,12.856Zm1.341,0a.313.313,0,0,0-.332.345.3.3,0,0,0,.332.332.335.335,0,0,0,.345-.332A.378.378,0,0,0,17.638,12.856Zm-5.432,1.355a.335.335,0,0,0-.345.332.378.378,0,0,0,.345.345.313.313,0,0,0,.332-.345A.324.324,0,0,0,12.205,14.211Zm1.341,0a.324.324,0,0,0-.332.332.335.335,0,0,0,.332.345.323.323,0,0,0,.345-.345A.313.313,0,0,0,13.547,14.211Zm1.395,0a.324.324,0,0,0-.332.332.366.366,0,0,0,.332.345.346.346,0,0,0,.345-.345A.335.335,0,0,0,14.941,14.211Zm1.355,0a.366.366,0,0,0-.345.332.378.378,0,0,0,.345.345.313.313,0,0,0,.332-.345A.324.324,0,0,0,16.3,14.211Zm1.341,0a.324.324,0,0,0-.332.332.335.335,0,0,0,.332.345.323.323,0,0,0,.345-.345A.335.335,0,0,0,17.638,14.211Zm-5.432,1.395a.335.335,0,0,0-.345.332.366.366,0,0,0,.345.332.332.332,0,0,0,0-.664Zm1.341,0a.332.332,0,0,0,0,.664.335.335,0,0,0,.345-.332A.313.313,0,0,0,13.547,15.605Zm1.395,0a.324.324,0,0,0-.332.332.353.353,0,0,0,.332.332.332.332,0,1,0,0-.664Zm1.355,0a.332.332,0,1,0,0,.664.332.332,0,0,0,0-.664Zm1.341,0a.332.332,0,0,0,0,.664.332.332,0,1,0,0-.664Zm1.355,0a.335.335,0,0,0-.345.332.366.366,0,0,0,.345.332.353.353,0,0,0,.332-.332A.3.3,0,0,0,18.992,15.605Zm9.563,0a.332.332,0,0,0,0,.664.332.332,0,1,0,0-.664Zm1.355,0a.336.336,0,1,0,0,.664.353.353,0,0,0,.332-.332A.324.324,0,0,0,29.909,15.605Zm1.341,0a.332.332,0,1,0,0,.664.335.335,0,0,0,.345-.332A.313.313,0,0,0,31.251,15.605Zm-10.917,1.3a.353.353,0,0,0-.332.332.366.366,0,0,0,.332.345.384.384,0,0,0,.385-.345A.373.373,0,0,0,20.334,16.907Zm-8.128.04a.346.346,0,0,0-.345.345.335.335,0,0,0,.345.332.324.324,0,0,0,.332-.332A.366.366,0,0,0,12.205,16.947Zm1.341,0a.335.335,0,0,0-.332.345.3.3,0,0,0,.332.332.335.335,0,0,0,.345-.332A.346.346,0,0,0,13.547,16.947Zm1.395,0a.335.335,0,0,0-.332.345.324.324,0,0,0,.332.332.366.366,0,0,0,.345-.332C15.245,17.124,15.11,16.947,14.941,16.947Zm1.355,0a.378.378,0,0,0-.345.345.335.335,0,0,0,.345.332.324.324,0,0,0,.332-.332A.366.366,0,0,0,16.3,16.947Zm1.341,0a.335.335,0,0,0-.332.345.3.3,0,0,0,.332.332.335.335,0,0,0,.345-.332A.378.378,0,0,0,17.638,16.947Zm1.355,0a.346.346,0,0,0-.345.345.335.335,0,0,0,.345.332.353.353,0,0,0,.332-.332A.335.335,0,0,0,18.992,16.947Zm6.827,0a.366.366,0,0,0-.332.345.332.332,0,1,0,.664,0A.335.335,0,0,0,25.819,16.947Zm1.341,0a.335.335,0,0,0-.332.345.3.3,0,0,0,.332.332.335.335,0,0,0,.345-.332A.346.346,0,0,0,27.16,16.947Zm1.395,0a.335.335,0,0,0-.332.345.3.3,0,0,0,.332.332.335.335,0,0,0,.345-.332A.378.378,0,0,0,28.555,16.947Zm1.355,0a.384.384,0,0,0-.385.345.346.346,0,0,0,.385.332.353.353,0,0,0,.332-.332A.366.366,0,0,0,29.909,16.947Zm1.341,0a.366.366,0,0,0-.332.345.324.324,0,0,0,.332.332.335.335,0,0,0,.345-.332A.346.346,0,0,0,31.251,16.947Zm1.395,0a.335.335,0,0,0-.332.345.324.324,0,0,0,.332.332.353.353,0,0,0,.332-.332C32.935,17.124,32.814,16.947,32.645,16.947Zm1.355,0a.346.346,0,0,0-.345.345.313.313,0,0,0,.345.332.324.324,0,0,0,.332-.332A.366.366,0,0,0,34,16.947ZM20.334,18.3a.324.324,0,0,0-.332.332.335.335,0,0,0,.332.345.355.355,0,0,0,.385-.345A.373.373,0,0,0,20.334,18.3Zm16.363,0a.335.335,0,0,0-.345.332.346.346,0,0,0,.345.345.335.335,0,0,0,.332-.345A.324.324,0,0,0,36.7,18.3Zm-24.491.04a.313.313,0,0,0-.345.332.346.346,0,0,0,.345.345.313.313,0,0,0,.332-.345A.324.324,0,0,0,12.205,18.341Zm1.341,0a.3.3,0,0,0-.332.332.313.313,0,0,0,.332.345.323.323,0,0,0,.345-.345A.313.313,0,0,0,13.547,18.341Zm1.395,0a.3.3,0,0,0-.332.332.335.335,0,0,0,.332.345.346.346,0,0,0,.345-.345A.362.362,0,0,0,14.941,18.341Zm1.355,0a.335.335,0,0,0-.345.332.346.346,0,0,0,.345.345.313.313,0,0,0,.332-.345A.324.324,0,0,0,16.3,18.341Zm1.341,0a.3.3,0,0,0-.332.332.313.313,0,0,0,.332.345.323.323,0,0,0,.345-.345A.335.335,0,0,0,17.638,18.341Zm1.355,0a.313.313,0,0,0-.345.332.346.346,0,0,0,.345.345.335.335,0,0,0,.332-.345A.3.3,0,0,0,18.992,18.341Zm2.736,0a.3.3,0,0,0-.332.332.332.332,0,1,0,.664,0A.3.3,0,0,0,21.728,18.341Zm1.355,0a.313.313,0,0,0-.345.332.346.346,0,0,0,.345.345.335.335,0,0,0,.332-.345A.3.3,0,0,0,23.083,18.341Zm1.381,0a.3.3,0,0,0-.332.332.335.335,0,0,0,.332.345.346.346,0,0,0,.345-.345A.335.335,0,0,0,24.464,18.341Zm1.355,0a.324.324,0,0,0-.332.332.335.335,0,0,0,.332.345.313.313,0,0,0,.332-.345A.3.3,0,0,0,25.819,18.341Zm1.341,0a.3.3,0,0,0-.332.332.313.313,0,0,0,.332.345.323.323,0,0,0,.345-.345A.313.313,0,0,0,27.16,18.341Zm1.395,0a.3.3,0,0,0-.332.332.313.313,0,0,0,.332.345.323.323,0,0,0,.345-.345A.335.335,0,0,0,28.555,18.341Zm1.355,0a.345.345,0,0,0-.385.332.355.355,0,0,0,.385.345.335.335,0,0,0,.332-.345A.324.324,0,0,0,29.909,18.341Zm1.341,0a.324.324,0,0,0-.332.332.335.335,0,0,0,.332.345.323.323,0,0,0,.345-.345A.313.313,0,0,0,31.251,18.341Zm1.395,0a.3.3,0,0,0-.332.332.332.332,0,1,0,.664,0C32.935,18.463,32.814,18.341,32.645,18.341Zm1.355,0a.313.313,0,0,0-.345.332.323.323,0,0,0,.345.345.313.313,0,0,0,.332-.345A.324.324,0,0,0,34,18.341Zm1.341,0a.334.334,0,0,0-.372.332.359.359,0,0,0,.717,0A.313.313,0,0,0,35.341,18.341Zm-21.795,1.3a.335.335,0,0,0-.332.345.3.3,0,0,0,.332.332.313.313,0,0,0,.345-.332A.346.346,0,0,0,13.547,19.643Zm1.395,0a.335.335,0,0,0-.332.345.324.324,0,0,0,.332.332.335.335,0,0,0,.345-.332C15.245,19.82,15.11,19.643,14.941,19.643Zm1.355,0a.378.378,0,0,0-.345.345.335.335,0,0,0,.345.332.3.3,0,0,0,.332-.332A.366.366,0,0,0,16.3,19.643Zm1.341,0a.335.335,0,0,0-.332.345.3.3,0,0,0,.332.332.313.313,0,0,0,.345-.332A.378.378,0,0,0,17.638,19.643Zm1.355,0a.346.346,0,0,0-.345.345.335.335,0,0,0,.345.332.324.324,0,0,0,.332-.332A.335.335,0,0,0,18.992,19.643Zm1.341,0a.335.335,0,0,0-.332.345.324.324,0,0,0,.332.332.373.373,0,0,0,.385-.332A.384.384,0,0,0,20.334,19.643Zm1.395,0a.335.335,0,0,0-.332.345.332.332,0,0,0,.664,0A.335.335,0,0,0,21.728,19.643Zm1.355,0a.346.346,0,0,0-.345.345.335.335,0,0,0,.345.332.324.324,0,0,0,.332-.332A.335.335,0,0,0,23.083,19.643Zm1.381,0a.335.335,0,0,0-.332.345.324.324,0,0,0,.332.332.335.335,0,0,0,.345-.332A.378.378,0,0,0,24.464,19.643Zm1.355,0a.366.366,0,0,0-.332.345.324.324,0,0,0,.332.332.3.3,0,0,0,.332-.332A.335.335,0,0,0,25.819,19.643Zm1.341,0a.335.335,0,0,0-.332.345.3.3,0,0,0,.332.332.313.313,0,0,0,.345-.332A.346.346,0,0,0,27.16,19.643Zm1.395,0a.335.335,0,0,0-.332.345.3.3,0,0,0,.332.332.313.313,0,0,0,.345-.332A.378.378,0,0,0,28.555,19.643Zm1.355,0a.384.384,0,0,0-.385.345.346.346,0,0,0,.385.332.324.324,0,0,0,.332-.332A.366.366,0,0,0,29.909,19.643Zm1.341,0a.366.366,0,0,0-.332.345.324.324,0,0,0,.332.332.313.313,0,0,0,.345-.332A.346.346,0,0,0,31.251,19.643Zm1.395,0a.335.335,0,0,0-.332.345.332.332,0,0,0,.664,0C32.935,19.82,32.814,19.643,32.645,19.643Zm1.355,0a.346.346,0,0,0-.345.345A.313.313,0,0,0,34,20.32a.3.3,0,0,0,.332-.332A.366.366,0,0,0,34,19.643Zm1.341,0a.371.371,0,0,0-.372.345.36.36,0,0,0,.717,0A.346.346,0,0,0,35.341,19.643Zm1.355,0a.378.378,0,0,0-.345.345.335.335,0,0,0,.345.332.3.3,0,0,0,.332-.332A.335.335,0,0,0,36.7,19.643ZM13.547,21.038a.324.324,0,0,0-.332.332.335.335,0,0,0,.332.345.346.346,0,0,0,.345-.345A.335.335,0,0,0,13.547,21.038Zm1.395,0a.324.324,0,0,0-.332.332.366.366,0,0,0,.332.345.378.378,0,0,0,.345-.345A.4.4,0,0,0,14.941,21.038Zm1.355,0a.366.366,0,0,0-.345.332.378.378,0,0,0,.345.345.335.335,0,0,0,.332-.345A.353.353,0,0,0,16.3,21.038Zm1.341,0a.324.324,0,0,0-.332.332.335.335,0,0,0,.332.345.346.346,0,0,0,.345-.345A.366.366,0,0,0,17.638,21.038Zm1.355,0a.335.335,0,0,0-.345.332.378.378,0,0,0,.345.345.366.366,0,0,0,.332-.345A.324.324,0,0,0,18.992,21.038Zm1.341,0A.353.353,0,0,0,20,21.37a.366.366,0,0,0,.332.345.384.384,0,0,0,.385-.345A.346.346,0,0,0,20.334,21.038Zm1.395,0a.324.324,0,0,0-.332.332.332.332,0,1,0,.664,0A.324.324,0,0,0,21.728,21.038Zm1.355,0a.335.335,0,0,0-.345.332.378.378,0,0,0,.345.345.366.366,0,0,0,.332-.345A.324.324,0,0,0,23.083,21.038Zm1.381,0a.324.324,0,0,0-.332.332.366.366,0,0,0,.332.345.378.378,0,0,0,.345-.345A.366.366,0,0,0,24.464,21.038Zm1.355,0a.353.353,0,0,0-.332.332.366.366,0,0,0,.332.345.335.335,0,0,0,.332-.345A.324.324,0,0,0,25.819,21.038Zm1.341,0a.324.324,0,0,0-.332.332.335.335,0,0,0,.332.345.346.346,0,0,0,.345-.345A.335.335,0,0,0,27.16,21.038Zm1.395,0a.324.324,0,0,0-.332.332.335.335,0,0,0,.332.345.346.346,0,0,0,.345-.345A.366.366,0,0,0,28.555,21.038Zm1.355,0a.373.373,0,0,0-.385.332.384.384,0,0,0,.385.345.366.366,0,0,0,.332-.345A.353.353,0,0,0,29.909,21.038Zm1.341,0a.353.353,0,0,0-.332.332.366.366,0,0,0,.332.345.346.346,0,0,0,.345-.345A.335.335,0,0,0,31.251,21.038Zm1.395,0a.324.324,0,0,0-.332.332.332.332,0,1,0,.664,0C32.935,21.2,32.814,21.038,32.645,21.038Zm1.355,0a.335.335,0,0,0-.345.332.346.346,0,0,0,.345.345.335.335,0,0,0,.332-.345A.353.353,0,0,0,34,21.038Zm1.341,0a.36.36,0,0,0-.372.332.371.371,0,0,0,.372.345.378.378,0,0,0,.345-.345A.335.335,0,0,0,35.341,21.038Zm1.355,0a.335.335,0,0,0-.345.332.378.378,0,0,0,.345.345.335.335,0,0,0,.332-.345A.3.3,0,0,0,36.7,21.038ZM13.547,22.392a.324.324,0,0,0-.332.332.3.3,0,0,0,.332.332.332.332,0,1,0,0-.664Zm1.395,0a.332.332,0,1,0,0,.664.366.366,0,0,0,.345-.332A.4.4,0,0,0,14.941,22.392Zm1.355,0a.366.366,0,0,0-.345.332.335.335,0,0,0,.345.332.324.324,0,0,0,.332-.332A.353.353,0,0,0,16.3,22.392Zm1.341,0a.324.324,0,0,0-.332.332.3.3,0,0,0,.332.332.335.335,0,0,0,.345-.332A.366.366,0,0,0,17.638,22.392Zm1.355,0a.332.332,0,1,0,0,.664.353.353,0,0,0,.332-.332A.324.324,0,0,0,18.992,22.392Zm1.341,0a.332.332,0,1,0,0,.664.336.336,0,1,0,0-.664Zm1.395,0a.324.324,0,0,0-.332.332.3.3,0,0,0,.332.332.332.332,0,1,0,0-.664Zm1.355,0a.332.332,0,1,0,0,.664.353.353,0,0,0,.332-.332A.324.324,0,0,0,23.083,22.392Zm1.381,0a.332.332,0,0,0,0,.664.332.332,0,1,0,0-.664Zm1.355,0a.353.353,0,0,0-.332.332.332.332,0,1,0,.332-.332Zm1.341,0a.324.324,0,0,0-.332.332.3.3,0,0,0,.332.332.332.332,0,1,0,0-.664Zm1.395,0a.324.324,0,0,0-.332.332.3.3,0,0,0,.332.332.335.335,0,0,0,.345-.332A.366.366,0,0,0,28.555,22.392Zm1.355,0a.373.373,0,0,0-.385.332.346.346,0,0,0,.385.332.332.332,0,1,0,0-.664Zm1.341,0a.353.353,0,0,0-.332.332.324.324,0,0,0,.332.332.332.332,0,1,0,0-.664Zm1.395,0a.332.332,0,0,0,0,.664.353.353,0,0,0,.332-.332C32.935,22.556,32.814,22.392,32.645,22.392Zm1.355,0a.335.335,0,0,0-.345.332.313.313,0,0,0,.345.332.324.324,0,0,0,.332-.332A.353.353,0,0,0,34,22.392Zm1.341,0a.36.36,0,0,0-.372.332.334.334,0,0,0,.372.332.366.366,0,0,0,.345-.332A.335.335,0,0,0,35.341,22.392Zm1.355,0a.332.332,0,1,0,0,.664.332.332,0,0,0,0-.664ZM13.547,23.734a.335.335,0,0,0-.332.345.324.324,0,0,0,.332.332.313.313,0,0,0,.345-.332A.323.323,0,0,0,13.547,23.734Zm1.395,0a.335.335,0,0,0-.332.345.353.353,0,0,0,.332.332.335.335,0,0,0,.345-.332A.346.346,0,0,0,14.941,23.734Zm1.355,0a.378.378,0,0,0-.345.345.366.366,0,0,0,.345.332.3.3,0,0,0,.332-.332A.335.335,0,0,0,16.3,23.734Zm1.341,0a.335.335,0,0,0-.332.345.358.358,0,0,0,.332.372.313.313,0,0,0,.345-.332A.384.384,0,0,0,17.638,23.734Zm1.355,0a.346.346,0,0,0-.345.345.366.366,0,0,0,.345.332.324.324,0,0,0,.332-.332A.313.313,0,0,0,18.992,23.734Zm1.341,0a.366.366,0,0,0-.332.345.353.353,0,0,0,.332.332.346.346,0,0,0,.385-.332A.355.355,0,0,0,20.334,23.734Zm16.363,0a.346.346,0,0,0-.345.345.335.335,0,0,0,.345.332.3.3,0,0,0,.332-.332A.313.313,0,0,0,36.7,23.734Zm-14.968.04a.313.313,0,0,0-.332.345.332.332,0,1,0,.664,0A.313.313,0,0,0,21.728,23.773Zm1.355,0a.323.323,0,0,0-.345.345.335.335,0,0,0,.345.332.324.324,0,0,0,.332-.332A.313.313,0,0,0,23.083,23.773Zm1.381,0a.313.313,0,0,0-.332.345.324.324,0,0,0,.332.332.335.335,0,0,0,.345-.332A.346.346,0,0,0,24.464,23.773Zm1.355,0a.335.335,0,0,0-.332.345.324.324,0,0,0,.332.332.3.3,0,0,0,.332-.332A.313.313,0,0,0,25.819,23.773Zm1.341,0a.313.313,0,0,0-.332.345.3.3,0,0,0,.332.332.313.313,0,0,0,.345-.332A.323.323,0,0,0,27.16,23.773Zm1.395,0a.313.313,0,0,0-.332.345.3.3,0,0,0,.332.332.313.313,0,0,0,.345-.332A.346.346,0,0,0,28.555,23.773Zm1.355,0a.355.355,0,0,0-.385.345.346.346,0,0,0,.385.332.324.324,0,0,0,.332-.332A.335.335,0,0,0,29.909,23.773Zm1.341,0a.335.335,0,0,0-.332.345.324.324,0,0,0,.332.332.313.313,0,0,0,.345-.332A.323.323,0,0,0,31.251,23.773Zm1.395,0a.313.313,0,0,0-.332.345.332.332,0,1,0,.664,0A.335.335,0,0,0,32.645,23.773Zm1.355,0a.323.323,0,0,0-.345.345.313.313,0,0,0,.345.332.3.3,0,0,0,.332-.332A.335.335,0,0,0,34,23.773Zm1.341,0a.344.344,0,0,0-.372.345.358.358,0,0,0,.372.332.335.335,0,0,0,.345-.332A.323.323,0,0,0,35.341,23.773ZM20.334,25.088A.324.324,0,0,0,20,25.42a.335.335,0,0,0,.332.345.355.355,0,0,0,.385-.345A.346.346,0,0,0,20.334,25.088Zm16.363,0a.335.335,0,0,0-.345.332.346.346,0,0,0,.345.345.335.335,0,0,0,.332-.345A.324.324,0,0,0,36.7,25.088Zm-21.755.04a.3.3,0,0,0-.332.332.335.335,0,0,0,.332.345.346.346,0,0,0,.345-.345A.335.335,0,0,0,14.941,25.128Zm1.355,0a.335.335,0,0,0-.345.332.346.346,0,0,0,.345.345.313.313,0,0,0,.332-.345A.324.324,0,0,0,16.3,25.128Zm1.341,0a.3.3,0,0,0-.332.332.313.313,0,0,0,.332.345.323.323,0,0,0,.345-.345A.335.335,0,0,0,17.638,25.128Zm1.355,0a.313.313,0,0,0-.345.332.346.346,0,0,0,.345.345.335.335,0,0,0,.332-.345A.3.3,0,0,0,18.992,25.128Zm2.736,0a.3.3,0,0,0-.332.332.313.313,0,0,0,.332.345.335.335,0,0,0,.332-.345A.324.324,0,0,0,21.728,25.128Zm1.355,0a.313.313,0,0,0-.345.332.346.346,0,0,0,.345.345.366.366,0,0,0,.332-.345A.324.324,0,0,0,23.083,25.128Zm1.381,0a.3.3,0,0,0-.332.332.335.335,0,0,0,.332.345.378.378,0,0,0,.345-.345A.366.366,0,0,0,24.464,25.128Zm1.355,0a.324.324,0,0,0-.332.332.332.332,0,1,0,.664,0A.324.324,0,0,0,25.819,25.128Zm1.341,0a.3.3,0,0,0-.332.332.313.313,0,0,0,.332.345.346.346,0,0,0,.345-.345A.335.335,0,0,0,27.16,25.128Zm1.395,0a.3.3,0,0,0-.332.332.313.313,0,0,0,.332.345.346.346,0,0,0,.345-.345A.366.366,0,0,0,28.555,25.128Zm1.355,0a.346.346,0,0,0-.385.332.355.355,0,0,0,.385.345.366.366,0,0,0,.332-.345A.353.353,0,0,0,29.909,25.128Zm1.341,0a.324.324,0,0,0-.332.332.335.335,0,0,0,.332.345.346.346,0,0,0,.345-.345A.335.335,0,0,0,31.251,25.128Zm1.395,0a.3.3,0,0,0-.332.332.335.335,0,0,0,.332.345.366.366,0,0,0,.332-.345A.353.353,0,0,0,32.645,25.128Zm1.355,0a.313.313,0,0,0-.345.332.323.323,0,0,0,.345.345.335.335,0,0,0,.332-.345A.353.353,0,0,0,34,25.128Zm1.341,0a.334.334,0,0,0-.372.332.344.344,0,0,0,.372.345.378.378,0,0,0,.345-.345A.335.335,0,0,0,35.341,25.128ZM16.3,26.47a.378.378,0,0,0-.345.345.366.366,0,0,0,.345.332.324.324,0,0,0,.332-.332A.366.366,0,0,0,16.3,26.47Zm1.341,0a.335.335,0,0,0-.332.345.324.324,0,0,0,.332.332.335.335,0,0,0,.345-.332A.378.378,0,0,0,17.638,26.47Zm1.355,0a.346.346,0,0,0-.345.345.366.366,0,0,0,.345.332.353.353,0,0,0,.332-.332A.335.335,0,0,0,18.992,26.47Zm1.341,0a.366.366,0,0,0-.332.345.353.353,0,0,0,.332.332.373.373,0,0,0,.385-.332A.355.355,0,0,0,20.334,26.47Zm1.395,0a.335.335,0,0,0-.332.345.332.332,0,0,0,.664,0A.335.335,0,0,0,21.728,26.47Zm1.355,0a.346.346,0,0,0-.345.345.366.366,0,0,0,.345.332.353.353,0,0,0,.332-.332A.335.335,0,0,0,23.083,26.47Zm1.381,0a.335.335,0,0,0-.332.345.353.353,0,0,0,.332.332.366.366,0,0,0,.345-.332A.378.378,0,0,0,24.464,26.47Zm1.355,0a.366.366,0,0,0-.332.345.353.353,0,0,0,.332.332.324.324,0,0,0,.332-.332A.335.335,0,0,0,25.819,26.47Zm1.341,0a.335.335,0,0,0-.332.345.324.324,0,0,0,.332.332.335.335,0,0,0,.345-.332A.346.346,0,0,0,27.16,26.47Zm1.395,0a.335.335,0,0,0-.332.345.324.324,0,0,0,.332.332.335.335,0,0,0,.345-.332A.378.378,0,0,0,28.555,26.47Zm1.355,0a.384.384,0,0,0-.385.345.373.373,0,0,0,.385.332.353.353,0,0,0,.332-.332A.366.366,0,0,0,29.909,26.47Zm1.341,0a.366.366,0,0,0-.332.345.353.353,0,0,0,.332.332.335.335,0,0,0,.345-.332A.346.346,0,0,0,31.251,26.47Zm1.395,0a.335.335,0,0,0-.332.345.332.332,0,0,0,.664,0C32.935,26.646,32.814,26.47,32.645,26.47Zm1.355,0a.346.346,0,0,0-.345.345.335.335,0,0,0,.345.332.324.324,0,0,0,.332-.332A.366.366,0,0,0,34,26.47Zm1.341,0a.371.371,0,0,0-.372.345.36.36,0,0,0,.372.332.366.366,0,0,0,.345-.332A.346.346,0,0,0,35.341,26.47Zm1.355,0a.378.378,0,0,0-.345.345.366.366,0,0,0,.345.332.324.324,0,0,0,.332-.332A.335.335,0,0,0,36.7,26.47ZM17.638,27.824a.324.324,0,0,0-.332.332.313.313,0,0,0,.332.345.346.346,0,0,0,.345-.345A.366.366,0,0,0,17.638,27.824Zm1.355,0a.335.335,0,0,0-.345.332.346.346,0,0,0,.345.345.366.366,0,0,0,.332-.345A.324.324,0,0,0,18.992,27.824Zm1.341,0a.353.353,0,0,0-.332.332.335.335,0,0,0,.332.345.384.384,0,0,0,.385-.345A.373.373,0,0,0,20.334,27.824Zm1.395,0a.324.324,0,0,0-.332.332.313.313,0,0,0,.332.345.335.335,0,0,0,.332-.345A.324.324,0,0,0,21.728,27.824Zm1.355,0a.335.335,0,0,0-.345.332.346.346,0,0,0,.345.345.366.366,0,0,0,.332-.345A.324.324,0,0,0,23.083,27.824Zm1.381,0a.324.324,0,0,0-.332.332.335.335,0,0,0,.332.345.378.378,0,0,0,.345-.345A.366.366,0,0,0,24.464,27.824Zm1.355,0a.353.353,0,0,0-.332.332.332.332,0,1,0,.664,0A.324.324,0,0,0,25.819,27.824Zm1.341,0a.324.324,0,0,0-.332.332.313.313,0,0,0,.332.345.346.346,0,0,0,.345-.345A.335.335,0,0,0,27.16,27.824Zm1.395,0a.324.324,0,0,0-.332.332.313.313,0,0,0,.332.345.346.346,0,0,0,.345-.345A.366.366,0,0,0,28.555,27.824Zm1.355,0a.373.373,0,0,0-.385.332.355.355,0,0,0,.385.345.366.366,0,0,0,.332-.345A.353.353,0,0,0,29.909,27.824Zm1.341,0a.353.353,0,0,0-.332.332.335.335,0,0,0,.332.345.346.346,0,0,0,.345-.345A.335.335,0,0,0,31.251,27.824Zm1.395,0a.324.324,0,0,0-.332.332.335.335,0,0,0,.332.345.366.366,0,0,0,.332-.345C32.935,27.988,32.814,27.824,32.645,27.824Zm1.355,0a.335.335,0,0,0-.345.332A.323.323,0,0,0,34,28.5a.335.335,0,0,0,.332-.345A.353.353,0,0,0,34,27.824Zm1.341,0a.36.36,0,0,0-.372.332.344.344,0,0,0,.372.345.378.378,0,0,0,.345-.345A.335.335,0,0,0,35.341,27.824Zm1.355,0a.366.366,0,0,0-.345.332.346.346,0,0,0,.345.345.335.335,0,0,0,.332-.345A.324.324,0,0,0,36.7,27.824Zm1.381,0a.324.324,0,0,0-.332.332.313.313,0,0,0,.332.345.346.346,0,0,0,.345-.345A.366.366,0,0,0,38.077,27.824Zm-20.44,1.395a.3.3,0,0,0-.332.332.313.313,0,0,0,.332.345.346.346,0,0,0,.345-.345A.335.335,0,0,0,17.638,29.219Zm1.355,0a.313.313,0,0,0-.345.332.346.346,0,0,0,.345.345.366.366,0,0,0,.332-.345A.3.3,0,0,0,18.992,29.219Zm1.341,0a.324.324,0,0,0-.332.332.335.335,0,0,0,.332.345.384.384,0,0,0,.385-.345A.345.345,0,0,0,20.334,29.219Zm1.395,0a.324.324,0,0,0-.332.332.335.335,0,0,0,.332.345.313.313,0,0,0,.332-.345A.3.3,0,0,0,21.728,29.219Zm1.355,0a.335.335,0,0,0-.345.332.378.378,0,0,0,.345.345.335.335,0,0,0,.332-.345A.3.3,0,0,0,23.083,29.219Zm1.381,0a.324.324,0,0,0-.332.332.366.366,0,0,0,.332.345.346.346,0,0,0,.345-.345A.335.335,0,0,0,24.464,29.219Zm1.355,0a.353.353,0,0,0-.332.332.366.366,0,0,0,.332.345.313.313,0,0,0,.332-.345A.3.3,0,0,0,25.819,29.219Zm1.341,0a.324.324,0,0,0-.332.332.335.335,0,0,0,.332.345.323.323,0,0,0,.345-.345A.313.313,0,0,0,27.16,29.219Zm1.395,0a.324.324,0,0,0-.332.332.335.335,0,0,0,.332.345.323.323,0,0,0,.345-.345A.335.335,0,0,0,28.555,29.219Zm1.355,0a.373.373,0,0,0-.385.332.384.384,0,0,0,.385.345.335.335,0,0,0,.332-.345A.324.324,0,0,0,29.909,29.219Zm1.341,0a.353.353,0,0,0-.332.332.366.366,0,0,0,.332.345.323.323,0,0,0,.345-.345A.313.313,0,0,0,31.251,29.219Zm1.395,0a.324.324,0,0,0-.332.332.366.366,0,0,0,.332.345.335.335,0,0,0,.332-.345A.324.324,0,0,0,32.645,29.219Zm1.355,0a.335.335,0,0,0-.345.332A.346.346,0,0,0,34,29.9a.313.313,0,0,0,.332-.345A.324.324,0,0,0,34,29.219Zm1.341,0a.36.36,0,0,0-.372.332.371.371,0,0,0,.372.345.346.346,0,0,0,.345-.345A.313.313,0,0,0,35.341,29.219Zm1.355,0a.366.366,0,0,0-.345.332.346.346,0,0,0,.345.345.313.313,0,0,0,.332-.345A.3.3,0,0,0,36.7,29.219Zm1.381,0a.324.324,0,0,0-.332.332.313.313,0,0,0,.332.345.323.323,0,0,0,.345-.345A.335.335,0,0,0,38.077,29.219ZM17.638,30.56a.313.313,0,0,0-.332.345.3.3,0,0,0,.332.332.335.335,0,0,0,.345-.332A.346.346,0,0,0,17.638,30.56Zm1.355,0a.323.323,0,0,0-.345.345.335.335,0,0,0,.345.332.353.353,0,0,0,.332-.332A.313.313,0,0,0,18.992,30.56Zm1.341,0a.335.335,0,0,0-.332.345.324.324,0,0,0,.332.332.373.373,0,0,0,.385-.332A.355.355,0,0,0,20.334,30.56Zm1.395,0a.335.335,0,0,0-.332.345.332.332,0,0,0,.664,0A.335.335,0,0,0,21.728,30.56Zm1.355,0a.346.346,0,0,0-.345.345.335.335,0,0,0,.345.332.324.324,0,0,0,.332-.332A.335.335,0,0,0,23.083,30.56Zm1.381,0a.335.335,0,0,0-.332.345.324.324,0,0,0,.332.332.335.335,0,0,0,.345-.332A.378.378,0,0,0,24.464,30.56Zm1.355,0a.366.366,0,0,0-.332.345.324.324,0,0,0,.332.332.3.3,0,0,0,.332-.332A.335.335,0,0,0,25.819,30.56Zm1.341,0a.335.335,0,0,0-.332.345.3.3,0,0,0,.332.332.313.313,0,0,0,.345-.332A.346.346,0,0,0,27.16,30.56Zm1.395,0a.335.335,0,0,0-.332.345.3.3,0,0,0,.332.332.313.313,0,0,0,.345-.332A.378.378,0,0,0,28.555,30.56Zm1.355,0a.384.384,0,0,0-.385.345.346.346,0,0,0,.385.332.324.324,0,0,0,.332-.332A.366.366,0,0,0,29.909,30.56Zm1.341,0a.366.366,0,0,0-.332.345.324.324,0,0,0,.332.332.313.313,0,0,0,.345-.332A.346.346,0,0,0,31.251,30.56Zm1.395,0a.335.335,0,0,0-.332.345.332.332,0,0,0,.664,0C32.935,30.737,32.814,30.56,32.645,30.56Zm1.355,0a.346.346,0,0,0-.345.345.313.313,0,0,0,.345.332.3.3,0,0,0,.332-.332A.366.366,0,0,0,34,30.56Zm1.341,0a.371.371,0,0,0-.372.345.36.36,0,0,0,.717,0A.346.346,0,0,0,35.341,30.56Zm1.355,0a.378.378,0,0,0-.345.345.335.335,0,0,0,.345.332.3.3,0,0,0,.332-.332A.313.313,0,0,0,36.7,30.56Zm1.381,0a.335.335,0,0,0-.332.345.3.3,0,0,0,.332.332.313.313,0,0,0,.345-.332A.346.346,0,0,0,38.077,30.56ZM21.728,31.915a.324.324,0,0,0-.332.332.313.313,0,0,0,.332.345.335.335,0,0,0,.332-.345A.324.324,0,0,0,21.728,31.915Zm1.355,0a.335.335,0,0,0-.345.332.346.346,0,0,0,.345.345.366.366,0,0,0,.332-.345A.324.324,0,0,0,23.083,31.915Zm1.381,0a.324.324,0,0,0-.332.332.335.335,0,0,0,.332.345.378.378,0,0,0,.345-.345A.366.366,0,0,0,24.464,31.915Zm1.355,0a.353.353,0,0,0-.332.332.332.332,0,1,0,.664,0A.324.324,0,0,0,25.819,31.915Zm1.341,0a.324.324,0,0,0-.332.332.313.313,0,0,0,.332.345.346.346,0,0,0,.345-.345A.335.335,0,0,0,27.16,31.915Zm1.395,0a.324.324,0,0,0-.332.332.313.313,0,0,0,.332.345.346.346,0,0,0,.345-.345A.366.366,0,0,0,28.555,31.915Zm1.355,0a.373.373,0,0,0-.385.332.355.355,0,0,0,.385.345.366.366,0,0,0,.332-.345A.353.353,0,0,0,29.909,31.915Zm1.341,0a.353.353,0,0,0-.332.332.335.335,0,0,0,.332.345.346.346,0,0,0,.345-.345A.335.335,0,0,0,31.251,31.915Zm1.395,0a.324.324,0,0,0-.332.332.335.335,0,0,0,.332.345.366.366,0,0,0,.332-.345C32.935,32.078,32.814,31.915,32.645,31.915Zm1.355,0a.335.335,0,0,0-.345.332.323.323,0,0,0,.345.345.335.335,0,0,0,.332-.345A.353.353,0,0,0,34,31.915Zm1.341,0a.36.36,0,0,0-.372.332.344.344,0,0,0,.372.345.378.378,0,0,0,.345-.345A.335.335,0,0,0,35.341,31.915Zm1.355,0a.366.366,0,0,0-.345.332.378.378,0,0,0,.345.345.335.335,0,0,0,.332-.345A.324.324,0,0,0,36.7,31.915Zm1.381,0a.324.324,0,0,0-.332.332.335.335,0,0,0,.332.345.346.346,0,0,0,.345-.345A.366.366,0,0,0,38.077,31.915ZM21.728,33.309a.324.324,0,0,0-.332.332.332.332,0,1,0,.332-.332Zm1.355,0a.332.332,0,1,0,0,.664.324.324,0,0,0,.332-.332A.3.3,0,0,0,23.083,33.309Zm1.381,0a.332.332,0,0,0,0,.664.332.332,0,1,0,0-.664Zm1.355,0a.353.353,0,0,0-.332.332.324.324,0,0,0,.332.332.332.332,0,1,0,0-.664Zm1.341,0a.324.324,0,0,0-.332.332.3.3,0,0,0,.332.332.332.332,0,1,0,0-.664Zm1.395,0a.324.324,0,0,0-.332.332.3.3,0,0,0,.332.332.313.313,0,0,0,.345-.332A.335.335,0,0,0,28.555,33.309Zm1.355,0a.373.373,0,0,0-.385.332.345.345,0,0,0,.385.332.332.332,0,1,0,0-.664Zm1.341,0a.353.353,0,0,0-.332.332.324.324,0,0,0,.332.332.332.332,0,1,0,0-.664Zm1.395,0a.332.332,0,1,0,.332.332C32.935,33.431,32.814,33.309,32.645,33.309Zm1.355,0a.335.335,0,0,0-.345.332.313.313,0,0,0,.345.332.3.3,0,0,0,.332-.332A.324.324,0,0,0,34,33.309Zm1.341,0a.36.36,0,0,0-.372.332.36.36,0,0,0,.717,0A.313.313,0,0,0,35.341,33.309Zm1.355,0a.366.366,0,0,0-.345.332.335.335,0,0,0,.345.332.324.324,0,0,0,.332-.332A.3.3,0,0,0,36.7,33.309Zm1.381,0a.324.324,0,0,0-.332.332.3.3,0,0,0,.332.332.332.332,0,1,0,0-.664Zm1.355,0a.324.324,0,0,0-.332.332.3.3,0,0,0,.332.332.324.324,0,0,0,.332-.332A.3.3,0,0,0,39.432,33.309ZM23.083,34.651a.323.323,0,0,0-.345.345.335.335,0,0,0,.345.332A.324.324,0,0,0,23.415,35,.335.335,0,0,0,23.083,34.651Zm1.381,0a.313.313,0,0,0-.332.345.324.324,0,0,0,.332.332A.335.335,0,0,0,24.809,35,.378.378,0,0,0,24.464,34.651Zm1.355,0a.335.335,0,0,0-.332.345.324.324,0,0,0,.332.332A.3.3,0,0,0,26.151,35,.335.335,0,0,0,25.819,34.651Zm1.341,0a.313.313,0,0,0-.332.345.3.3,0,0,0,.332.332A.313.313,0,0,0,27.505,35,.346.346,0,0,0,27.16,34.651Zm1.395,0a.313.313,0,0,0-.332.345.3.3,0,0,0,.332.332A.313.313,0,0,0,28.9,35,.378.378,0,0,0,28.555,34.651Zm1.355,0a.355.355,0,0,0-.385.345.345.345,0,0,0,.385.332A.324.324,0,0,0,30.241,35,.366.366,0,0,0,29.909,34.651Zm1.341,0a.335.335,0,0,0-.332.345.324.324,0,0,0,.332.332A.313.313,0,0,0,31.6,35,.346.346,0,0,0,31.251,34.651Zm1.395,0a.313.313,0,0,0-.332.345.332.332,0,0,0,.664,0C32.935,34.828,32.814,34.651,32.645,34.651Zm1.355,0a.323.323,0,0,0-.345.345.313.313,0,0,0,.345.332A.3.3,0,0,0,34.332,35,.366.366,0,0,0,34,34.651Zm1.341,0A.344.344,0,0,0,34.97,35a.36.36,0,0,0,.717,0A.346.346,0,0,0,35.341,34.651Zm1.355,0a.346.346,0,0,0-.345.345.335.335,0,0,0,.345.332A.3.3,0,0,0,37.028,35,.313.313,0,0,0,36.7,34.651Zm1.381,0a.313.313,0,0,0-.332.345.3.3,0,0,0,.332.332A.313.313,0,0,0,38.423,35,.346.346,0,0,0,38.077,34.651Zm1.355,0A.313.313,0,0,0,39.1,35a.332.332,0,0,0,.664,0A.313.313,0,0,0,39.432,34.651ZM25.819,36.005a.332.332,0,1,0,.332.332A.324.324,0,0,0,25.819,36.005Zm1.341,0a.332.332,0,1,0,0,.664.332.332,0,1,0,0-.664Zm1.395,0a.332.332,0,0,0,0,.664.335.335,0,0,0,.345-.332A.366.366,0,0,0,28.555,36.005Zm1.355,0a.336.336,0,1,0,0,.664.332.332,0,1,0,0-.664Zm1.341,0a.332.332,0,1,0,0,.664.332.332,0,1,0,0-.664Zm1.395,0a.3.3,0,0,0-.332.332.324.324,0,0,0,.332.332.332.332,0,1,0,0-.664Zm1.355,0a.332.332,0,1,0,0,.664.324.324,0,0,0,.332-.332A.353.353,0,0,0,34,36.005Zm1.341,0a.334.334,0,0,0-.372.332.358.358,0,0,0,.372.332.366.366,0,0,0,.345-.332A.335.335,0,0,0,35.341,36.005Zm1.355,0a.332.332,0,1,0,0,.664.332.332,0,0,0,0-.664Zm1.381,0a.332.332,0,1,0,0,.664.335.335,0,0,0,.345-.332A.366.366,0,0,0,38.077,36.005Zm1.355,0a.332.332,0,1,0,0,.664.332.332,0,0,0,0-.664Zm1.355,0a.313.313,0,0,0-.345.332.335.335,0,0,0,.345.332.353.353,0,0,0,.332-.332A.324.324,0,0,0,40.787,36.005Zm-9.536,1.341a.366.366,0,0,0-.332.345.353.353,0,0,0,.332.332.335.335,0,0,0,.345-.332A.346.346,0,0,0,31.251,37.347Zm1.395,0a.335.335,0,0,0-.332.345.332.332,0,1,0,.664,0C32.935,37.524,32.814,37.347,32.645,37.347Zm1.355,0a.346.346,0,0,0-.345.345.335.335,0,0,0,.345.332.324.324,0,0,0,.332-.332A.366.366,0,0,0,34,37.347Zm1.341,0a.371.371,0,0,0-.372.345.36.36,0,0,0,.372.332.366.366,0,0,0,.345-.332A.346.346,0,0,0,35.341,37.347Zm1.355,0a.378.378,0,0,0-.345.345.366.366,0,0,0,.345.332.324.324,0,0,0,.332-.332A.335.335,0,0,0,36.7,37.347Zm1.381,0a.335.335,0,0,0-.332.345.324.324,0,0,0,.332.332.335.335,0,0,0,.345-.332A.378.378,0,0,0,38.077,37.347ZM36.7,38.7a.366.366,0,0,0-.345.332.346.346,0,0,0,.345.345.335.335,0,0,0,.332-.345A.324.324,0,0,0,36.7,38.7Zm1.381,0a.324.324,0,0,0-.332.332.313.313,0,0,0,.332.345.346.346,0,0,0,.345-.345A.366.366,0,0,0,38.077,38.7Zm-2.736.04a.36.36,0,0,0-.372.332.371.371,0,0,0,.372.345.346.346,0,0,0,.345-.345A.313.313,0,0,0,35.341,38.741Z"/>
</svg>
