<?xml version="1.0" encoding="utf-8"?>
<!-- Generator: Adobe Illustrator 25.2.0, SVG Export Plug-In . SVG Version: 6.00 Build 0)  -->
<svg version="1.1" id="Layer_1" xmlns="http://www.w3.org/2000/svg" xmlns:xlink="http://www.w3.org/1999/xlink" x="0px" y="0px"
	 viewBox="0 0 46.7 47.6" style="enable-background:new 0 0 46.7 47.6;" xml:space="preserve">
<style type="text/css">
	.st0{fill:#E74C3C;}
</style>
<g id="_x23_38272eff">
	<path class="st0" d="M21.3,1.4c4-0.4,8.2,0.2,11.9,1.9c4.4,2,8,5.3,10.4,9.4c2,3.5,3.1,7.5,3.1,11.6c0,4-1.1,8-3.1,11.5
		c-2.9,5-7.8,8.9-13.4,10.5c-3.6,1.1-7.5,1.2-11.2,0.4c-4.4-0.9-8.5-3.2-11.6-6.4c-3-3-5.1-6.9-6-11c-1-4.4-0.6-9.2,1-13.4
		C4.1,11.4,7.2,7.6,11.2,5C14.2,3,17.7,1.8,21.3,1.4 M22.9,10.3c2.5,1.8,5,3.7,7.5,5.5c0.5-0.2,0.7-1,0.2-1.4
		c-2.1-1.5-4.2-3.1-6.2-4.6c-0.2-0.2-0.5-0.3-0.8-0.2C23.3,9.6,23,9.9,22.9,10.3 M22.4,11.6c-0.7,1-1.5,1.9-2.2,2.9
		c-0.4-0.5-1.3-0.6-1.7-0.1c-0.3,0.4-0.6,0.7-0.8,1.2c-0.1,0.5,0.3,1,0.7,1.2c-0.9,1.1-1.8,2.2-2.6,3.4c2.3,1.7,4.6,3.4,7,5.1
		c0.3-0.2,0.5-0.5,0.7-0.7c0.7-0.9,1.3-1.7,2-2.6c2.4,1.8,4.8,3.5,7.2,5.3c0.5,0.4,1.2,0.3,1.5-0.2c0.3-0.4,0.7-0.8,0.7-1.3
		c0-0.4-0.3-0.7-0.5-0.9c-2.4-1.7-4.7-3.5-7.1-5.2c0.7-1,1.5-1.9,2.2-2.9c0.1-0.2,0.2-0.3,0.3-0.5c-2.3-1.7-4.6-3.4-6.8-5.1
		C22.7,11.3,22.5,11.4,22.4,11.6 M14.5,21.4c0,0.3,0.3,0.5,0.6,0.7c2,1.5,4.1,3,6.1,4.5c0.5,0.4,1.2,0,1.3-0.6
		c-2.5-1.9-5-3.7-7.5-5.5C14.7,20.7,14.4,21,14.5,21.4 M14.5,28.1c-0.4,0-0.9-0.1-1.2,0.3c-0.4,0.4-0.2,0.9-0.3,1.4
		c-0.3,0-0.5,0-0.8,0.1c-0.4,0.2-0.7,0.6-0.6,1.1c0,0.6,0,1.2,0,1.8c0,0.6,0.5,1,1.1,1c5.1,0,10.1,0,15.2,0c0.6,0,1.1-0.6,1.1-1.2
		c0-0.7,0-1.4,0-2c-0.1-0.6-0.8-0.9-1.4-0.8c0-0.3,0-0.7,0-1c-0.1-0.4-0.5-0.7-0.9-0.6C22.5,28.1,18.5,28.1,14.5,28.1z"/>
</g>
</svg>
